<svg width="140" height="47" viewBox="0 0 95 47" fill="none" xmlns="http://www.w3.org/2000/svg">
<g clip-path="url(#clip0_131_3055)">
<path fill-rule="evenodd" clip-rule="evenodd" d="M44.2425 30.4812L43.2031 28.7258L38.8402 28.9074L37.9506 30.7431L35.7949 30.8328C37.1515 28.0968 38.5079 25.3605 39.8659 22.6252L41.7024 22.5488L46.4533 30.3892L44.2422 30.4812L44.2425 30.4812ZM40.8527 24.7672L39.6444 27.2436L42.254 27.135L40.8525 24.7672L40.8527 24.7672ZM47.553 30.3434L47.219 22.3192L49.203 22.2366L52.8995 26.8896L56.1649 21.9468L58.1379 21.8646L58.4719 29.8889L56.5608 29.9684L56.3462 24.8119L53.7481 28.8039L52.1824 28.869L49.2512 25.1515L49.464 30.2638L47.553 30.3434ZM66.7253 29.5453L60.8934 29.7881L60.5594 21.7638L66.2272 21.5279C67.0704 21.4928 67.7666 21.6616 68.2641 22.0059C68.7773 22.3615 69.0744 22.8938 69.1028 23.5749C69.1215 24.0246 69.0064 24.447 68.7561 24.8045C68.6268 24.989 68.4617 25.1551 68.2612 25.2965C68.5729 25.4249 68.8348 25.5983 69.0418 25.8113C69.38 26.1588 69.5691 26.6055 69.5909 27.1301C69.6211 27.8547 69.3665 28.4465 68.853 28.8689C68.3649 29.27 67.6475 29.5069 66.7253 29.5453ZM66.8563 23.298C66.672 23.1677 66.3896 23.1083 66.0189 23.1237L62.602 23.2659L62.668 24.8529L66.0958 24.7102C66.4372 24.696 66.711 24.6049 66.8889 24.4481C67.0477 24.3082 67.1332 24.1061 67.1226 23.851C67.1122 23.5998 67.0205 23.4141 66.8561 23.298L66.8563 23.298ZM67.229 26.4964C67.0176 26.3493 66.6988 26.2831 66.2939 26.3L62.7344 26.4481L62.8041 28.1212L66.3965 27.9716C66.814 27.9542 67.1116 27.866 67.2964 27.7157C67.4664 27.5774 67.5439 27.3714 67.5329 27.1081C67.5213 26.8295 67.4144 26.6256 67.229 26.4964ZM71.5378 29.345L71.2038 21.3208L73.2134 21.2371L73.5474 29.2613L71.5378 29.345ZM75.9689 29.1605L75.6349 21.1363L80.9408 20.9154C81.8988 20.8756 82.659 21.0849 83.1965 21.5029C83.755 21.9371 84.064 22.5851 84.0981 23.4033C84.1289 24.1439 83.9023 24.7668 83.4448 25.2306C83.0934 25.587 82.6088 25.8437 82.0037 25.9813L84.8922 28.7894L82.3258 28.8962L79.6136 26.2415L77.8635 26.3144L77.9785 29.0772L75.9689 29.1608L75.9689 29.1605ZM81.7604 22.7814C81.5415 22.6194 81.206 22.5454 80.7569 22.5641L77.7124 22.6908L77.795 24.6757L80.8395 24.549C81.2802 24.5307 81.6094 24.4279 81.8172 24.2468C82.009 24.0799 82.1029 23.8319 82.0894 23.5084C82.0756 23.1768 81.9646 22.9329 81.7602 22.7817L81.7604 22.7814ZM86.2735 28.7316L85.9395 20.7074L93.7681 20.3815L93.8363 22.0199L87.9846 22.2635L88.0462 23.7429L93.2077 23.5281L93.2755 25.1556L88.1139 25.3705L88.1822 27.0114L94.0339 26.7679L94.1021 28.406L86.2735 28.7319L86.2735 28.7316Z" fill="white"/>
<path d="M24.0526 19.1077L30.299 30.8698C30.3609 30.9922 30.339 31.1459 30.2437 31.2469L15.7231 46.2059C15.6136 46.3075 15.4411 46.2453 15.4348 46.0929L14.8867 32.9273L24.0372 23.5091C24.1057 23.4508 24.1299 23.3525 24.1264 23.2693L23.9815 19.1106C23.9804 19.083 24.037 19.0806 24.0524 19.1077L24.0526 19.1077Z" fill="#6000FF"/>
<path fill-rule="evenodd" clip-rule="evenodd" d="M14.887 32.9273L15.435 46.0928C15.4414 46.2451 15.6142 46.3075 15.7234 46.2056L30.244 31.2469C30.3393 31.1456 30.3611 30.9922 30.2993 30.8698L24.0788 23.462L14.887 32.9273Z" fill="url(#paint0_linear_131_3055)"/>
<path fill-rule="evenodd" clip-rule="evenodd" d="M24.0119 19.0738L24.0111 19.0738L24.0103 19.0739L24.0095 19.0739C23.9922 19.0749 23.976 19.0862 23.9769 19.1086L24.126 23.2663C24.1283 23.3216 24.1188 23.4049 24.0785 23.4622L30.3302 31.0607C30.3415 30.9906 30.3244 30.922 30.2931 30.8539L24.0467 19.0918C24.0399 19.0799 24.0256 19.0737 24.0114 19.0738L24.0119 19.0738Z" fill="url(#paint1_linear_131_3055)"/>
<path fill-rule="evenodd" clip-rule="evenodd" d="M30.3305 31.0604C30.3418 30.9902 30.3247 30.9216 30.2933 30.8535L29.97 30.2426L24.3422 23.7822L30.3302 31.0604L30.3305 31.0604Z" fill="#BE80F5"/>
<path d="M10.045 9.59807L7.65426 17.2219C7.62953 17.3063 7.63357 17.4032 7.67944 17.4846L10.4014 22.244L3.62596 26.3855C3.54286 26.4304 3.42845 26.4075 3.38258 26.3263L1.75471 23.3259C1.69346 23.2174 1.70307 23.106 1.76989 23.0061L9.97266 9.55966C9.99995 9.53082 10.0577 9.55612 10.0452 9.59831L10.045 9.59807Z" fill="#6000FF"/>
<path fill-rule="evenodd" clip-rule="evenodd" d="M10.0014 9.54731L9.99879 9.54742C9.98905 9.54808 9.97971 9.55184 9.97265 9.55964L2.12012 22.4313L2.11133 22.4482L7.65425 17.2219L7.67031 17.1704C7.6703 17.1702 7.6703 17.1702 7.67057 17.1702L7.67147 17.1665L10.0452 9.59778C10.054 9.5679 10.0275 9.54648 10.0017 9.54678L10.0014 9.54731Z" fill="url(#paint2_linear_131_3055)"/>
<path fill-rule="evenodd" clip-rule="evenodd" d="M1.76936 23.0061C1.7028 23.1059 1.69319 23.2174 1.75444 23.3259L3.38232 26.3262C3.42845 26.4077 3.54261 26.4306 3.62595 26.3852L10.4012 22.244L7.67919 17.4848C7.63305 17.4034 7.62901 17.3062 7.654 17.2221L1.76936 23.0061Z" fill="url(#paint3_linear_131_3055)"/>
<path fill-rule="evenodd" clip-rule="evenodd" d="M13.6567 3.36707L14.143 15.0498C14.1459 15.119 14.1204 15.1895 14.0805 15.2468L1.31102 33.7837C1.21718 33.9127 1.23947 34.1059 1.37132 34.2117L11.2287 42.7971C11.317 42.8765 11.4575 42.843 11.4953 42.7303L20.815 18.6453C20.8405 18.5746 20.8365 18.4776 20.8046 18.3956L13.7828 3.33412C13.7703 3.30642 13.7466 3.29524 13.7234 3.29621C13.6892 3.29763 13.6547 3.32573 13.6565 3.36682L13.6567 3.36707Z" fill="url(#paint4_linear_131_3055)"/>
<path fill-rule="evenodd" clip-rule="evenodd" d="M13.7201 3.29678L13.719 3.29683C13.6845 3.29826 13.6503 3.32635 13.6521 3.36744L14.1426 15.05C14.1437 15.0779 14.1387 15.1154 14.129 15.1479L20.7121 18.2083L13.7782 3.33501C13.7657 3.30783 13.7428 3.29636 13.7198 3.29705L13.7201 3.29678ZM14.1292 15.1479L15.3887 15.7895L14.1292 15.1479Z" fill="url(#paint5_linear_131_3055)"/>
<path fill-rule="evenodd" clip-rule="evenodd" d="M20.8321 18.5247L20.8321 18.5229C20.8301 18.4818 20.8227 18.4428 20.807 18.4025L20.7168 18.208L14.1292 15.1477L15.3932 15.7891L20.8321 18.5247Z" fill="url(#paint6_linear_131_3055)"/>
<path d="M2.10753 22.4519L1.77357 22.9993L7.654 17.222L2.10753 22.4519Z" fill="#BE80F5"/>
<path d="M41.6663 42.4428L40.9264 40.8001L37.4973 40.9428L36.9074 42.6408L35.5666 42.6966L38.3457 34.8743L39.5327 34.8249L43.0291 42.386L41.6663 42.4428ZM39.0188 36.4977L37.8898 39.7925L40.4396 39.6864L39.0188 36.4977ZM48.1601 34.0915L49.3801 34.0407L49.7158 42.1078L48.7926 42.1462L48.6108 41.4822C48.0619 42.0481 47.3735 42.3484 46.5455 42.3828C45.6516 42.42 44.8994 42.1577 44.2888 41.596C43.6853 41.0266 43.3649 40.2949 43.3277 39.401C43.2905 38.5071 43.5492 37.7551 44.1036 37.1448C44.6651 36.5269 45.3927 36.1994 46.2866 36.1622C47.0413 36.1308 47.703 36.3345 48.2717 36.7732L48.1601 34.0915ZM45.1883 40.7218C45.5699 41.0729 46.0391 41.2369 46.5959 41.2137C47.1528 41.1905 47.6068 40.9881 47.9579 40.6066C48.316 40.2173 48.4835 39.7443 48.4603 39.1874C48.445 38.8211 48.3471 38.4949 48.1663 38.2088C47.9853 37.9154 47.7411 37.6907 47.4337 37.5347C47.1336 37.3784 46.8004 37.3078 46.434 37.3231C46.0677 37.3383 45.7378 37.4365 45.4444 37.6175C45.1583 37.7982 44.9373 38.0423 44.7813 38.3497C44.6323 38.6495 44.5654 38.9825 44.5807 39.3489C44.6038 39.9057 44.8064 40.3634 45.1883 40.7218ZM52.76 40.781L56.0902 40.6424L56.14 41.8404L51.546 42.0316L51.2258 34.3382L55.6989 34.1521L55.7483 35.3391L52.5391 35.4726L52.6224 37.4729L55.5458 37.3512L55.5943 38.5162L52.6708 38.6379L52.76 40.781ZM63.3241 41.5414L61.9063 41.6004L59.9131 38.6778L58.1696 41.7559L56.7518 41.8149L59.1007 37.6767L56.6075 34.1143L58.0252 34.0553L59.8303 36.6885L61.3993 33.9149L62.8061 33.8563L60.6412 37.6566L63.3241 41.5414Z" fill="white"/>
</g>
<defs>
<linearGradient id="paint0_linear_131_3055" x1="23.6435" y1="36.5033" x2="15.7558" y2="32.8751" gradientUnits="userSpaceOnUse">
<stop stop-color="#6000FF"/>
<stop offset="0.65098" stop-color="#4900C3"/>
<stop offset="1" stop-color="#320086"/>
</linearGradient>
<linearGradient id="paint1_linear_131_3055" x1="24.2053" y1="18.0015" x2="27.021" y2="26.9691" gradientUnits="userSpaceOnUse">
<stop stop-color="#6A0AFF"/>
<stop offset="0.0470588" stop-color="#8C2DFF"/>
<stop offset="0.101961" stop-color="#6A0AFF"/>
<stop offset="0.901961" stop-color="#AF50FF"/>
<stop offset="1" stop-color="#AF50FF"/>
</linearGradient>
<linearGradient id="paint2_linear_131_3055" x1="10.6736" y1="10.2923" x2="3.16659" y2="23.1594" gradientUnits="userSpaceOnUse">
<stop stop-color="#6A0AFF"/>
<stop offset="0.509804" stop-color="#8C2DFF"/>
<stop offset="0.968627" stop-color="#AF50FF"/>
<stop offset="1" stop-color="#AF50FF"/>
</linearGradient>
<linearGradient id="paint3_linear_131_3055" x1="5.49243" y1="19.9864" x2="6.43468" y2="24.4894" gradientUnits="userSpaceOnUse">
<stop stop-color="#6000FF"/>
<stop offset="1" stop-color="#3E00A5"/>
</linearGradient>
<linearGradient id="paint4_linear_131_3055" x1="-8.92457" y1="46.425" x2="23.3616" y2="36.5045" gradientUnits="userSpaceOnUse">
<stop stop-color="#AE60FF"/>
<stop offset="0.321569" stop-color="#AF50FF"/>
<stop offset="1" stop-color="#6000FF"/>
</linearGradient>
<linearGradient id="paint5_linear_131_3055" x1="13.0951" y1="7.48878" x2="19.8314" y2="21.7358" gradientUnits="userSpaceOnUse">
<stop stop-color="#6F0FFF"/>
<stop offset="0.701961" stop-color="#AF50FF"/>
<stop offset="1" stop-color="#AF50FF"/>
</linearGradient>
<linearGradient id="paint6_linear_131_3055" x1="14.227" y1="15.1703" x2="20.6764" y2="18.4487" gradientUnits="userSpaceOnUse">
<stop stop-color="#AE60FF"/>
<stop offset="0.0313725" stop-color="#B670FA"/>
<stop offset="1" stop-color="#BE80F5"/>
</linearGradient>
<clipPath id="clip0_131_3055">
<rect width="93" height="43" fill="white" transform="translate(0 3.86792) rotate(-2.38362)"/>
</clipPath>
</defs>
</svg>
