<svg width="20" height="17" viewBox="0 0 152 129" fill="none" xmlns="http://www.w3.org/2000/svg">
<path d="M47.0924 28.9977C53.0079 17.0917 69.9921 17.0917 75.9076 28.9977C78.2502 33.7125 82.7514 36.9828 87.9593 37.7538C101.111 39.7006 106.359 55.8535 96.8637 65.1587C93.1036 68.8436 91.3843 74.135 92.2604 79.3263C94.4728 92.4356 80.7323 102.419 68.9484 96.2635C64.2819 93.8261 58.7181 93.8261 54.0516 96.2635C42.2677 102.419 28.5272 92.4356 30.7396 79.3263C31.6157 74.135 29.8964 68.8436 26.1363 65.1587C16.641 55.8535 21.8894 39.7006 35.0407 37.7538C40.2486 36.9828 44.7498 33.7125 47.0924 28.9977Z" fill="url(#paint0_linear_2938_404)"/>
<g filter="url(#filter0_b_2938_404)">
<path d="M121.646 52.1084C133.59 57.8479 133.813 74.7757 122.025 80.8281C117.356 83.2249 114.156 87.7542 113.456 92.955C111.688 106.088 95.658 111.532 86.2589 102.19C82.5368 98.4908 77.2403 96.8467 72.0777 97.7882C59.041 100.166 48.9105 86.6018 54.8903 74.776C57.2583 70.093 57.1852 64.5476 54.6945 59.9287C48.4049 48.2647 58.1743 34.4386 71.2691 36.4713C76.4547 37.2763 81.7061 35.4932 85.3293 31.6971C94.4788 22.111 110.647 27.1296 112.76 40.2118C113.597 45.3923 116.916 49.8356 121.646 52.1084Z" fill="url(#paint1_linear_2938_404)"/>
<path d="M121.429 52.5591C133.001 58.1196 133.217 74.5196 121.796 80.3833C116.982 82.8548 113.682 87.5253 112.96 92.8883C111.248 105.612 95.7174 110.886 86.6113 101.835C82.7732 98.0208 77.3115 96.3255 71.988 97.2963C59.3578 99.5995 49.5431 86.4587 55.3365 75.0017C57.7783 70.1726 57.7029 64.4544 55.1346 59.6914C49.0411 48.3911 58.5059 34.996 71.1924 36.9654C76.5397 37.7955 81.9548 35.9568 85.691 32.0423C94.5552 22.7551 110.219 27.6173 112.267 40.2915C113.13 45.6335 116.552 50.2154 121.429 52.5591Z" stroke="url(#paint2_linear_2938_404)"/>
</g>
<g filter="url(#filter1_b_2938_404)">
<path d="M95.8079 64.3026C97.9553 65.2656 97.9953 68.2999 95.8741 69.3192L95.4738 69.5115C94.6114 69.9259 94.0244 70.7566 93.9219 71.7079L93.8742 72.1494C93.6219 74.4893 90.7486 75.465 89.1236 73.7626L88.817 73.4413C88.1564 72.7492 87.185 72.4477 86.2486 72.6441L85.8139 72.7352C83.5106 73.2183 81.6948 70.7871 82.8118 68.7156L83.0225 68.3247C83.4766 67.4826 83.4632 66.4655 82.9871 65.6356L82.7661 65.2504C81.5949 63.2091 83.346 60.7309 85.6612 61.1531L86.0981 61.2327C87.0394 61.4044 88.0025 61.0773 88.6446 60.368L88.9427 60.0388C90.5221 58.2941 93.4202 59.1937 93.7342 61.5261L93.7934 61.9662C93.921 62.9144 94.5297 63.7294 95.4027 64.1209L95.8079 64.3026Z" fill="url(#paint3_linear_2938_404)"/>
</g>
<defs>
<filter id="filter0_b_2938_404" x="-43.1434" y="-69.1647" width="269.761" height="271.917" filterUnits="userSpaceOnUse" color-interpolation-filters="sRGB">
<feFlood flood-opacity="0" result="BackgroundImageFix"/>
<feGaussianBlur in="BackgroundImage" stdDeviation="47.9407"/>
<feComposite in2="SourceAlpha" operator="in" result="effect1_backgroundBlur_2938_404"/>
<feBlend mode="normal" in="SourceGraphic" in2="effect1_backgroundBlur_2938_404" result="shape"/>
</filter>
<filter id="filter1_b_2938_404" x="51.0464" y="27.7802" width="77.7414" height="78.188" filterUnits="userSpaceOnUse" color-interpolation-filters="sRGB">
<feFlood flood-opacity="0" result="BackgroundImageFix"/>
<feGaussianBlur in="BackgroundImage" stdDeviation="15.6729"/>
<feComposite in2="SourceAlpha" operator="in" result="effect1_backgroundBlur_2938_404"/>
<feBlend mode="normal" in="SourceGraphic" in2="effect1_backgroundBlur_2938_404" result="shape"/>
</filter>
<linearGradient id="paint0_linear_2938_404" x1="44.1014" y1="19.3214" x2="82.3959" y2="94.6947" gradientUnits="userSpaceOnUse">
<stop offset="0.105049" stop-color="#FF7C7C"/>
<stop offset="1" stop-color="#F73333"/>
</linearGradient>
<linearGradient id="paint1_linear_2938_404" x1="63.1546" y1="86.1281" x2="100.962" y2="45.3002" gradientUnits="userSpaceOnUse">
<stop stop-color="white" stop-opacity="0.08"/>
<stop offset="1" stop-color="#FFC1C1" stop-opacity="0.4"/>
</linearGradient>
<linearGradient id="paint2_linear_2938_404" x1="150.737" y1="66.0871" x2="28.1445" y2="67.7038" gradientUnits="userSpaceOnUse">
<stop stop-color="white"/>
<stop offset="1" stop-color="white" stop-opacity="0"/>
</linearGradient>
<linearGradient id="paint3_linear_2938_404" x1="86.8562" y1="61.7317" x2="91.2541" y2="78.5663" gradientUnits="userSpaceOnUse">
<stop stop-color="white" stop-opacity="0.63"/>
<stop offset="1" stop-color="white" stop-opacity="0"/>
</linearGradient>
</defs>
</svg>
