<svg width="140" height="47" viewBox="0 0 95 47" fill="none" xmlns="http://www.w3.org/2000/svg">
<g clip-path="url(#clip0_131_3037)">
<path fill-rule="evenodd" clip-rule="evenodd" d="M44.2425 30.4812L43.2031 28.7258L38.8402 28.9074L37.9506 30.7431L35.7949 30.8328C37.1515 28.0968 38.5079 25.3605 39.8659 22.6252L41.7024 22.5488L46.4533 30.3892L44.2422 30.4812L44.2425 30.4812ZM40.8527 24.7672L39.6444 27.2436L42.254 27.135L40.8525 24.7672L40.8527 24.7672ZM47.553 30.3434L47.219 22.3192L49.203 22.2366L52.8995 26.8896L56.1649 21.9468L58.1379 21.8646L58.4719 29.8889L56.5608 29.9684L56.3462 24.8119L53.7481 28.8039L52.1824 28.869L49.2512 25.1515L49.464 30.2638L47.553 30.3434ZM66.7253 29.5453L60.8934 29.7881L60.5594 21.7638L66.2272 21.5279C67.0704 21.4928 67.7666 21.6616 68.2641 22.0059C68.7773 22.3615 69.0744 22.8938 69.1028 23.5749C69.1215 24.0246 69.0064 24.447 68.7561 24.8045C68.6268 24.989 68.4617 25.1551 68.2612 25.2965C68.5729 25.4249 68.8348 25.5983 69.0418 25.8113C69.38 26.1588 69.5691 26.6055 69.5909 27.1301C69.6211 27.8547 69.3665 28.4465 68.853 28.8689C68.3649 29.27 67.6475 29.5069 66.7253 29.5453ZM66.8563 23.298C66.672 23.1677 66.3896 23.1083 66.0189 23.1237L62.602 23.2659L62.668 24.8529L66.0958 24.7102C66.4372 24.696 66.711 24.6049 66.8889 24.4481C67.0477 24.3082 67.1332 24.1061 67.1226 23.851C67.1122 23.5998 67.0205 23.4141 66.8561 23.298L66.8563 23.298ZM67.229 26.4964C67.0176 26.3493 66.6988 26.2831 66.2939 26.3L62.7344 26.4481L62.8041 28.1212L66.3965 27.9716C66.814 27.9542 67.1116 27.866 67.2964 27.7157C67.4664 27.5774 67.5439 27.3714 67.5329 27.1081C67.5213 26.8295 67.4144 26.6256 67.229 26.4964ZM71.5378 29.345L71.2038 21.3208L73.2134 21.2371L73.5474 29.2613L71.5378 29.345ZM75.9689 29.1605L75.6349 21.1363L80.9408 20.9154C81.8988 20.8756 82.659 21.0849 83.1965 21.5029C83.755 21.9371 84.064 22.5851 84.0981 23.4033C84.1289 24.1439 83.9023 24.7668 83.4448 25.2306C83.0934 25.587 82.6088 25.8437 82.0037 25.9813L84.8922 28.7894L82.3258 28.8962L79.6136 26.2415L77.8635 26.3144L77.9785 29.0772L75.9689 29.1608L75.9689 29.1605ZM81.7604 22.7814C81.5415 22.6194 81.206 22.5454 80.7569 22.5641L77.7124 22.6908L77.795 24.6757L80.8395 24.549C81.2802 24.5307 81.6094 24.4279 81.8172 24.2468C82.009 24.0799 82.1029 23.8319 82.0894 23.5084C82.0756 23.1768 81.9646 22.9329 81.7602 22.7817L81.7604 22.7814ZM86.2735 28.7316L85.9395 20.7074L93.7681 20.3815L93.8363 22.0199L87.9846 22.2635L88.0462 23.7429L93.2077 23.5281L93.2755 25.1556L88.1139 25.3705L88.1822 27.0114L94.0339 26.7679L94.1021 28.406L86.2735 28.7319L86.2735 28.7316Z" fill="white"/>
<path d="M39.5441 39.0964L38.3882 39.1445L35.9064 33.511L37.4376 33.4472L39.0124 37.2339L40.4117 33.3234L41.7035 33.2697L43.4375 37.0373L44.6935 33.1452L46.2097 33.0821L44.1964 38.9027L42.8952 38.9569L41.118 35.1209L39.6658 39.0913L39.5441 39.0964ZM53.0001 38.5362L51.726 38.5893L50.9844 37.3364L47.8698 37.4661L47.2349 38.7762L45.6968 38.8402C46.6652 36.8877 47.633 34.9346 48.6022 32.9825L49.9127 32.928C51.0416 34.794 52.1729 36.6587 53.3033 38.5236L53.0001 38.5362ZM49.3062 34.5103L48.4434 36.2788L50.3073 36.2012L49.3062 34.5103ZM59.0335 38.2851L54.0891 38.4909L53.8507 32.764L55.2844 32.7044L55.4732 37.2394L59.1652 37.0857L59.2148 38.2775L59.0335 38.2851ZM65.2466 38.0265L60.3021 38.2323L60.0637 32.5054L61.4975 32.4457L61.6863 36.9808L65.3782 36.8271L65.4278 38.0189L65.2466 38.0265ZM71.9212 37.7486L66.5149 37.9737L66.2765 32.2468L71.8089 32.0165L71.8576 33.1853L67.7355 33.3569L67.7795 34.4134L71.4635 34.26L71.5119 35.4211L67.8278 35.5744L67.8766 36.7461L72.0535 36.5723L72.1021 37.7411L71.9209 37.7486L71.9212 37.7486ZM76.4602 37.5597L75.2075 37.6118L75.0187 33.0768L72.5313 33.1803L72.4817 31.9885L78.9057 31.7211L78.9553 32.9129L76.4524 33.0171L76.6412 37.5522L76.46 37.5597L76.4602 37.5597Z" fill="white"/>
<path d="M24.0526 19.1077L30.299 30.8698C30.3609 30.9922 30.339 31.1459 30.2437 31.2469L15.7231 46.2059C15.6136 46.3075 15.4411 46.2453 15.4348 46.0929L14.8867 32.9273L24.0372 23.5091C24.1057 23.4508 24.1299 23.3525 24.1264 23.2693L23.9815 19.1106C23.9804 19.083 24.037 19.0806 24.0524 19.1077L24.0526 19.1077Z" fill="#6000FF"/>
<path fill-rule="evenodd" clip-rule="evenodd" d="M14.887 32.9273L15.435 46.0928C15.4414 46.2451 15.6142 46.3075 15.7234 46.2056L30.244 31.2469C30.3393 31.1456 30.3611 30.9922 30.2993 30.8698L24.0788 23.462L14.887 32.9273Z" fill="url(#paint0_linear_131_3037)"/>
<path fill-rule="evenodd" clip-rule="evenodd" d="M24.0119 19.0738L24.0111 19.0738L24.0103 19.0739L24.0096 19.0739C23.9922 19.0749 23.976 19.0862 23.977 19.1086L24.126 23.2663C24.1283 23.3216 24.1189 23.4049 24.0785 23.4622L30.3302 31.0607C30.3415 30.9906 30.3244 30.922 30.2931 30.8539L24.0467 19.0918C24.0399 19.0799 24.0256 19.0737 24.0114 19.0738L24.0119 19.0738Z" fill="url(#paint1_linear_131_3037)"/>
<path fill-rule="evenodd" clip-rule="evenodd" d="M30.3305 31.0604C30.3418 30.9902 30.3247 30.9216 30.2933 30.8535L29.97 30.2426L24.3422 23.7822L30.3302 31.0604L30.3305 31.0604Z" fill="#BE80F5"/>
<path d="M10.045 9.59807L7.65426 17.2219C7.62953 17.3063 7.63357 17.4032 7.67944 17.4846L10.4014 22.244L3.62596 26.3855C3.54286 26.4304 3.42845 26.4075 3.38258 26.3263L1.75471 23.3259C1.69346 23.2174 1.70307 23.106 1.76989 23.0061L9.97266 9.55966C9.99995 9.53082 10.0577 9.55612 10.0452 9.59831L10.045 9.59807Z" fill="#6000FF"/>
<path fill-rule="evenodd" clip-rule="evenodd" d="M10.0014 9.54731L9.99879 9.54742C9.98905 9.54808 9.97971 9.55184 9.97265 9.55964L2.12012 22.4313L2.11133 22.4482L7.65425 17.2219L7.67031 17.1704C7.6703 17.1702 7.6703 17.1702 7.67057 17.1702L7.67147 17.1665L10.0452 9.59778C10.054 9.5679 10.0275 9.54648 10.0017 9.54678L10.0014 9.54731Z" fill="url(#paint2_linear_131_3037)"/>
<path fill-rule="evenodd" clip-rule="evenodd" d="M1.76936 23.0061C1.7028 23.1059 1.69319 23.2174 1.75444 23.3259L3.38232 26.3262C3.42845 26.4077 3.54261 26.4306 3.62595 26.3852L10.4012 22.244L7.67919 17.4848C7.63305 17.4034 7.62901 17.3062 7.654 17.2221L1.76936 23.0061Z" fill="url(#paint3_linear_131_3037)"/>
<path fill-rule="evenodd" clip-rule="evenodd" d="M13.6567 3.36707L14.143 15.0498C14.1459 15.119 14.1204 15.1895 14.0805 15.2468L1.31102 33.7837C1.21718 33.9127 1.23947 34.1059 1.37132 34.2117L11.2287 42.7971C11.317 42.8765 11.4575 42.843 11.4953 42.7303L20.815 18.6453C20.8405 18.5746 20.8365 18.4776 20.8046 18.3956L13.7828 3.33412C13.7703 3.30642 13.7466 3.29524 13.7234 3.29621C13.6892 3.29763 13.6547 3.32573 13.6565 3.36682L13.6567 3.36707Z" fill="url(#paint4_linear_131_3037)"/>
<path fill-rule="evenodd" clip-rule="evenodd" d="M13.7201 3.29678L13.719 3.29683C13.6845 3.29826 13.6503 3.32635 13.6521 3.36744L14.1426 15.05C14.1437 15.0779 14.1387 15.1154 14.129 15.1479L20.7121 18.2083L13.7782 3.33501C13.7657 3.30783 13.7428 3.29636 13.7198 3.29705L13.7201 3.29678ZM14.1292 15.1479L15.3887 15.7895L14.1292 15.1479Z" fill="url(#paint5_linear_131_3037)"/>
<path fill-rule="evenodd" clip-rule="evenodd" d="M20.8321 18.5247L20.8321 18.5229C20.8301 18.4818 20.8227 18.4428 20.807 18.4025L20.7168 18.208L14.1292 15.1477L15.3932 15.7891L20.8321 18.5247Z" fill="url(#paint6_linear_131_3037)"/>
<path d="M2.10753 22.4519L1.77357 22.9993L7.654 17.222L2.10753 22.4519Z" fill="#BE80F5"/>
</g>
<defs>
<linearGradient id="paint0_linear_131_3037" x1="23.6435" y1="36.5033" x2="15.7558" y2="32.8751" gradientUnits="userSpaceOnUse">
<stop stop-color="#6000FF"/>
<stop offset="0.65098" stop-color="#4900C3"/>
<stop offset="1" stop-color="#320086"/>
</linearGradient>
<linearGradient id="paint1_linear_131_3037" x1="24.2053" y1="18.0015" x2="27.021" y2="26.9691" gradientUnits="userSpaceOnUse">
<stop stop-color="#6A0AFF"/>
<stop offset="0.0470588" stop-color="#8C2DFF"/>
<stop offset="0.101961" stop-color="#6A0AFF"/>
<stop offset="0.901961" stop-color="#AF50FF"/>
<stop offset="1" stop-color="#AF50FF"/>
</linearGradient>
<linearGradient id="paint2_linear_131_3037" x1="10.6736" y1="10.2923" x2="3.16659" y2="23.1594" gradientUnits="userSpaceOnUse">
<stop stop-color="#6A0AFF"/>
<stop offset="0.509804" stop-color="#8C2DFF"/>
<stop offset="0.968627" stop-color="#AF50FF"/>
<stop offset="1" stop-color="#AF50FF"/>
</linearGradient>
<linearGradient id="paint3_linear_131_3037" x1="5.49243" y1="19.9864" x2="6.43468" y2="24.4894" gradientUnits="userSpaceOnUse">
<stop stop-color="#6000FF"/>
<stop offset="1" stop-color="#3E00A5"/>
</linearGradient>
<linearGradient id="paint4_linear_131_3037" x1="-8.92457" y1="46.425" x2="23.3616" y2="36.5045" gradientUnits="userSpaceOnUse">
<stop stop-color="#AE60FF"/>
<stop offset="0.321569" stop-color="#AF50FF"/>
<stop offset="1" stop-color="#6000FF"/>
</linearGradient>
<linearGradient id="paint5_linear_131_3037" x1="13.0951" y1="7.48878" x2="19.8314" y2="21.7358" gradientUnits="userSpaceOnUse">
<stop stop-color="#6F0FFF"/>
<stop offset="0.701961" stop-color="#AF50FF"/>
<stop offset="1" stop-color="#AF50FF"/>
</linearGradient>
<linearGradient id="paint6_linear_131_3037" x1="14.227" y1="15.1703" x2="20.6764" y2="18.4487" gradientUnits="userSpaceOnUse">
<stop stop-color="#AE60FF"/>
<stop offset="0.0313725" stop-color="#B670FA"/>
<stop offset="1" stop-color="#BE80F5"/>
</linearGradient>
<clipPath id="clip0_131_3037">
<rect width="93" height="43" fill="white" transform="translate(0 3.86792) rotate(-2.38362)"/>
</clipPath>
</defs>
</svg>
