<svg width="173" height="54" viewBox="0 0 173 54" fill="none" xmlns="http://www.w3.org/2000/svg">
<g clip-path="url(#clip0_25_2706)">
<path d="M10.8681 30.07C10.8537 29.8303 10.8872 29.5902 10.9665 29.3633C11.0458 29.1365 11.1694 28.9274 11.3302 28.7481C11.491 28.5688 11.6859 28.4228 11.9036 28.3185C12.1212 28.2142 12.3575 28.1536 12.5987 28.1403L15.6493 27.9673C16.1356 27.9382 16.6135 28.1022 16.9779 28.4233C17.3422 28.7445 17.5632 29.1964 17.5922 29.6796L18.2793 41.1415C18.6167 41.0198 19.0499 40.8855 19.5269 40.7433C19.8574 40.6448 20.1448 40.4384 20.3425 40.1573C20.5402 39.8763 20.6367 39.5372 20.6162 39.195L19.764 24.9784C19.735 24.4951 19.9004 24.02 20.2238 23.6576C20.5472 23.2952 21.002 23.0752 21.4884 23.0459L24.5477 22.8625C25.034 22.8335 25.5119 22.9976 25.8763 23.3187C26.2406 23.6399 26.4616 24.0919 26.4906 24.5752L27.2816 37.7705C27.2816 37.7705 28.0285 37.4168 28.7548 37.0594C29.0247 36.9265 29.2493 36.7175 29.4005 36.4586C29.5518 36.1997 29.623 35.9023 29.6053 35.6036L28.6623 19.8729C28.6333 19.3896 28.7987 18.9146 29.122 18.5523C29.4453 18.19 29.9001 17.97 30.3864 17.9407L33.4424 17.7575C33.9285 17.7289 34.4059 17.8931 34.7699 18.2142C35.1339 18.5353 35.3546 18.987 35.3835 19.47L36.1601 32.4236C38.6952 30.3566 41.2428 27.9004 43.2082 25.013C43.4933 24.5939 43.6697 24.1112 43.7216 23.6081C43.7735 23.1049 43.6992 22.5969 43.5055 22.1294C42.35 19.3684 40.6272 16.8779 38.4471 14.8173C36.2671 12.7568 33.6779 11.1715 30.8452 10.163C28.0126 9.15448 24.9988 8.7449 21.9968 8.96048C18.9948 9.17606 16.0706 10.012 13.4115 11.4149C10.7523 12.8178 8.41671 14.7567 6.55411 17.1076C4.69152 19.4584 3.34295 22.1695 2.5947 25.0672C1.84646 27.9649 1.71501 30.9855 2.20878 33.9357C2.70255 36.8859 3.81065 39.7006 5.46218 42.1999C5.74965 42.6309 6.15498 42.9713 6.63055 43.1812C7.10611 43.391 7.63216 43.4616 8.14689 43.3846C8.72197 43.2993 9.43747 43.1847 10.2873 43.0337C10.6572 42.9692 10.9904 42.7718 11.2236 42.4791C11.4567 42.1863 11.5734 41.8187 11.5515 41.4461L10.8695 30.0699" fill="white"/>
<path d="M11.9049 48.4556C15.2658 50.5913 19.1564 51.761 23.1463 51.8352C27.1361 51.9094 31.0697 50.8852 34.5118 48.8759C37.9538 46.8666 40.7702 43.9506 42.6493 40.4505C44.5284 36.9503 45.397 33.0025 45.159 29.0438C45.1293 28.5486 45.0769 28.0625 45.0147 27.5784C37.8261 39.7449 23.5865 46.0849 11.9049 48.4556" fill="#F0B90B"/>
<path d="M63.7187 27.5336C64.8883 27.6754 65.9692 28.2244 66.7697 29.0832C67.567 29.9277 68.0335 31.0282 68.0846 32.1855C68.1841 33.8458 67.7029 35.1954 66.6411 36.2342C65.5792 37.273 63.985 37.8562 61.8586 37.9836L53.8563 38.4633L52.6585 18.4829L60.5185 18.0117C62.5309 17.8911 64.1004 18.2467 65.2268 19.0786C66.3532 19.9105 66.9633 21.1094 67.0572 22.6754C67.1753 23.7819 66.8867 24.8937 66.2445 25.8058C65.613 26.6384 64.7266 27.2447 63.7187 27.5336ZM56.4208 26.8918L60.4362 26.651C61.5753 26.5828 62.4281 26.2665 62.9945 25.7024C63.2812 25.4044 63.4984 25.0472 63.6306 24.6564C63.7628 24.2656 63.8067 23.8506 63.7592 23.4412C63.7558 23.0335 63.662 22.6316 63.4844 22.2642C63.3067 21.8968 63.0496 21.573 62.7315 21.3158C62.1018 20.8233 61.1794 20.6135 59.9643 20.6864L56.0628 20.9203L56.4208 26.8918ZM61.0442 35.3626C62.2782 35.2886 63.2156 34.9531 63.8562 34.3562C64.1768 34.0501 64.4221 33.6748 64.5732 33.2594C64.7242 32.8439 64.7769 32.3995 64.7272 31.9607C64.7227 31.5159 64.6151 31.0782 64.4129 30.6815C64.2107 30.2848 63.9193 29.9398 63.5612 29.6732C62.8438 29.1482 61.868 28.9226 60.634 28.9966L56.5616 29.2407L56.9433 35.6084L61.0442 35.3626ZM75.6637 21.3074C77.5053 21.197 79.0094 21.5755 80.176 22.4428C81.3563 23.3314 82.1621 24.6243 82.437 26.0706L79.3614 26.255C79.2108 25.4677 78.7774 24.7619 78.142 24.2689C77.4411 23.7659 76.5771 23.5394 75.7174 23.6332C75.0333 23.6307 74.3719 23.8775 73.8583 24.3269C73.6477 24.5358 73.4867 24.7889 73.3872 25.0677C73.2876 25.3464 73.2522 25.6437 73.2833 25.9377C73.2876 26.1592 73.3394 26.3771 73.4352 26.5771C73.5309 26.777 73.6685 26.9544 73.8387 27.0973C74.2068 27.3939 74.6336 27.6102 75.0914 27.7323C75.7828 27.9154 76.4833 28.063 77.19 28.1745C78.1749 28.3209 79.1479 28.5379 80.1013 28.8237C80.8491 29.0628 81.5235 29.4865 82.0614 30.0553C82.6598 30.7362 82.9911 31.6087 82.9947 32.513C83.0474 33.1196 82.9569 33.7301 82.7303 34.2959C82.5037 34.8618 82.1474 35.3673 81.6896 35.7723C80.7415 36.6434 79.4226 37.1295 77.7329 37.2308C75.7774 37.3481 74.1697 36.99 72.9098 36.1566C72.282 35.7381 71.7455 35.1982 71.3322 34.5691C70.9188 33.94 70.6372 33.2346 70.5039 32.4949L73.665 32.3054C73.727 32.7066 73.871 33.0908 74.0882 33.4344C74.3054 33.778 74.5912 34.0736 74.928 34.3031C75.7163 34.8149 76.6589 35.0394 77.5955 34.9385C78.2658 34.9363 78.91 34.6792 79.3958 34.2199C79.6017 34.0134 79.7599 33.7649 79.8595 33.4916C79.9591 33.2183 79.9977 32.9268 79.9726 32.6374C79.9702 32.396 79.9163 32.1579 79.8144 31.9388C79.7126 31.7197 79.5652 31.5245 79.382 31.3662C78.9926 31.0514 78.5405 30.822 78.0555 30.6931C77.3514 30.5079 76.6366 30.3658 75.915 30.2676C74.9615 30.117 74.0183 29.908 73.0909 29.6416C72.3646 29.421 71.7094 29.0147 71.1911 28.4631C70.6147 27.8045 70.2954 26.9619 70.2914 26.0887C70.237 25.4759 70.3263 24.8588 70.5523 24.2859C70.7784 23.7131 71.1349 23.1999 71.5939 22.7869C72.5414 21.9064 73.898 21.4132 75.6637 21.3074ZM92.5228 20.2967C94.5542 20.175 96.2664 20.6072 97.6593 21.5936C99.0676 22.6027 100.044 24.0995 100.397 25.7892L96.9515 25.9958C96.7466 25.0899 96.2036 24.2952 95.432 23.7721C94.6017 23.2427 93.616 23.0067 92.6338 23.1019C92.0468 23.1231 91.4709 23.2681 90.9444 23.5274C90.4179 23.7867 89.9528 24.1543 89.5801 24.6057C88.7973 25.5331 88.4568 26.8459 88.5586 28.5439C88.6604 30.242 89.1556 31.5093 90.0441 32.346C90.4662 32.7535 90.9713 33.0663 91.5254 33.2634C92.0795 33.4604 92.6698 33.5371 93.2564 33.4884C94.2452 33.4654 95.1967 33.1078 95.9537 32.4746C96.6555 31.8558 97.0987 30.9983 97.1958 30.0711L100.642 29.8646C100.491 31.5877 99.7011 33.1942 98.4253 34.3714C97.1608 35.5265 95.5128 36.165 93.4814 36.2868C92.079 36.3988 90.6715 36.1506 89.394 35.5661C88.1887 34.9954 87.1763 34.0891 86.4796 32.9573C85.7096 31.6812 85.2785 30.2313 85.2267 28.7437C85.1031 27.2696 85.3585 25.7883 85.9689 24.4388C86.5254 23.2319 87.4224 22.2112 88.5508 21.5005C89.7493 20.7676 91.1171 20.3531 92.5228 20.2967ZM117.015 29.3375C117.079 30.2935 116.89 31.2498 116.467 32.1112C116.012 33.0118 115.302 33.7604 114.424 34.2644C113.351 34.871 112.144 35.2066 110.91 35.242C109.649 35.3386 108.382 35.1676 107.193 34.7405C106.14 34.3643 105.205 33.7201 104.48 32.8724C103.779 32.0358 103.332 31.0187 103.19 29.939L106.664 29.7308C106.805 30.5818 107.252 31.3526 107.923 31.8991C108.298 32.1978 108.729 32.4201 109.19 32.5532C109.652 32.6864 110.135 32.7278 110.613 32.6751C111.031 32.6763 111.444 32.5947 111.83 32.435C112.215 32.2753 112.565 32.0408 112.858 31.7453C113.112 31.4635 113.304 31.1327 113.423 30.7736C113.541 30.4146 113.584 30.035 113.548 29.6589C113.535 29.0149 113.284 28.3981 112.844 27.926C112.409 27.4825 111.881 27.1407 111.297 26.9252C110.693 26.6963 109.868 26.4428 108.823 26.1646C107.754 25.9111 106.706 25.575 105.69 25.1595C104.866 24.8013 104.142 24.2503 103.579 23.5535C102.939 22.7108 102.588 21.6871 102.575 20.6314C102.493 19.6318 102.712 18.6304 103.202 17.7536C103.711 16.8858 104.464 16.1843 105.368 15.735C106.418 15.2087 107.57 14.9121 108.745 14.865C110.796 14.7421 112.453 15.1351 113.718 16.0439C114.334 16.4782 114.855 17.0322 115.249 17.6725C115.644 18.3128 115.904 19.026 116.013 19.769L112.51 19.979C112.337 19.2403 111.92 18.5805 111.326 18.1044C110.635 17.5782 109.765 17.3401 108.9 17.4404C108.106 17.4486 107.342 17.7416 106.748 18.2652C106.483 18.5307 106.281 18.8527 106.159 19.207C106.036 19.5612 105.996 19.9384 106.042 20.31C106.056 20.9229 106.294 21.5097 106.713 21.9597C107.133 22.3893 107.646 22.718 108.214 22.9206C108.808 23.1406 109.618 23.3903 110.645 23.6696C111.734 23.9229 112.801 24.2626 113.835 24.6854C114.678 25.0516 115.419 25.6165 115.992 26.3313C116.644 27.2004 117.003 28.2528 117.015 29.3375ZM126.611 18.2532C128.643 18.1315 130.355 18.5637 131.748 19.5501C133.156 20.5592 134.133 22.056 134.486 23.7457L131.04 23.9523C130.835 23.0464 130.292 22.2517 129.52 21.7286C128.69 21.1992 127.704 20.9632 126.722 21.0584C126.135 21.0796 125.559 21.2246 125.033 21.4839C124.506 21.7432 124.041 22.1107 123.669 22.5622C122.886 23.4896 122.545 24.8024 122.647 26.5004C122.749 28.1985 123.244 29.4658 124.133 30.3025C124.555 30.71 125.06 31.0228 125.614 31.2198C126.168 31.4169 126.758 31.4936 127.345 31.4449C128.334 31.4219 129.285 31.0642 130.042 30.4311C130.744 29.8123 131.187 28.9548 131.284 28.0276L134.73 27.8211C134.58 29.5442 133.79 31.1507 132.514 32.3279C131.249 33.483 129.601 34.1215 127.57 34.2433C126.167 34.3553 124.76 34.1071 123.482 33.5226C122.277 32.9519 121.265 32.0456 120.568 30.9138C119.798 29.6376 119.367 28.1878 119.315 26.7002C119.192 25.2261 119.447 23.7448 120.057 22.3953C120.614 21.1884 121.511 20.1677 122.639 19.457C123.838 18.7241 125.206 18.3096 126.611 18.2532ZM143.556 17.2375C144.849 17.1222 146.145 17.4119 147.264 18.0661C148.294 18.6831 149.1 19.6095 149.566 20.7115L149.349 17.089L152.595 16.8944L153.53 32.4882L150.284 32.6828L150.066 29.0603C149.735 30.2101 149.046 31.2261 148.097 31.9618C147.065 32.7449 145.812 33.1874 144.514 33.2275C143.23 33.3261 141.943 33.0689 140.797 32.4846C139.665 31.8873 138.732 30.9763 138.111 29.8622C137.395 28.5661 136.995 27.1212 136.943 25.6434C136.821 24.1791 137.046 22.7064 137.6 21.3436C138.084 20.1633 138.901 19.1474 139.954 18.4191C141.022 17.702 142.269 17.293 143.556 17.2375V17.2375ZM144.722 20.0078C144.079 20.0176 143.445 20.1636 142.862 20.4361C142.28 20.7085 141.762 21.1011 141.344 21.5878C140.535 22.5547 140.179 23.8399 140.275 25.4437C140.371 27.0474 140.879 28.2809 141.797 29.1442C142.27 29.5774 142.831 29.9054 143.442 30.1063C144.053 30.3073 144.7 30.3765 145.34 30.3093C146.2 30.2714 147.034 30.0004 147.751 29.5257C148.451 29.0525 149.006 28.3947 149.352 27.6262C149.735 26.7606 149.894 25.8138 149.815 24.8718C149.778 23.9321 149.507 23.0165 149.027 22.2066C148.594 21.4788 147.965 20.8867 147.209 20.4977C146.441 20.1121 145.581 19.9427 144.722 20.0078V20.0078ZM165.253 15.88C167.075 15.7707 168.572 16.268 169.744 17.3717C170.915 18.4755 171.566 20.1122 171.696 22.282L172.24 31.3666L168.994 31.5612L168.47 22.8162C168.386 21.42 167.96 20.3615 167.193 19.6406C166.786 19.2748 166.305 18.9993 165.783 18.8323C165.26 18.6653 164.708 18.6106 164.163 18.672C163.585 18.6813 163.017 18.8125 162.494 19.0568C161.972 19.3012 161.508 19.6531 161.132 20.0892C160.403 20.9565 160.086 22.1827 160.181 23.7675L160.678 32.0597L157.432 32.2543L156.497 16.6605L159.743 16.4659L159.949 19.8903C160.257 18.7525 160.942 17.7509 161.893 17.0471C162.872 16.3357 164.041 15.9295 165.253 15.88Z" fill="white"/>
</g>
<defs>
<clipPath id="clip0_25_2706">
<rect width="170" height="43" fill="white" transform="translate(0.664551 10.1729) rotate(-3.43061)"/>
</clipPath>
</defs>
</svg>
