<svg width="188" height="40" viewBox="0 0 188 40" fill="none" xmlns="http://www.w3.org/2000/svg">
<g clip-path="url(#clip0_25_2713)">
<path d="M37.0524 30.6333C36.6205 30.6574 36.3102 30.5847 36.1215 30.4154C35.9476 30.2451 35.8499 29.9656 35.8282 29.577L35.1044 16.5952C35.0828 16.2065 35.1562 15.9175 35.325 15.7282C35.4929 15.5239 35.7853 15.4101 36.2024 15.3869L41.6756 15.0817C43.7606 14.9655 45.3191 15.3209 46.3514 16.148C47.3835 16.9751 47.9483 18.2631 48.0458 20.0119C48.1424 21.7458 47.7239 23.0811 46.7901 24.0178C45.8703 24.9388 44.3605 25.4578 42.2606 25.5749L40.1383 25.6932L40.3408 29.3254C40.3625 29.714 40.289 30.003 40.1203 30.1924C39.9515 30.3816 39.6512 30.4884 39.2193 30.5125L37.0524 30.6333ZM41.722 22.3437C42.3326 22.3097 42.7926 22.1191 43.1019 21.772C43.426 21.424 43.5698 20.9212 43.5332 20.2635C43.4957 19.5909 43.2964 19.0997 42.9356 18.79C42.5896 18.4794 42.1113 18.3411 41.5007 18.3752L39.7358 18.4736L39.9571 22.4421L41.722 22.3437Z" fill="white"/>
<path d="M53.8965 30.0315C52.4967 30.1095 51.3472 29.7238 50.4483 28.8744C49.5634 28.009 49.0752 26.7543 48.9835 25.11C48.9135 23.8544 49.1353 22.7399 49.6486 21.7668C50.177 20.7927 50.9483 20.0225 51.9625 19.4562C52.9907 18.874 54.1899 18.5448 55.56 18.4684C56.692 18.4053 57.6969 18.4767 58.5748 18.6826C59.4669 18.8728 60.2906 19.1792 61.0463 19.6019L61.5463 28.5704C61.5621 28.8544 61.5205 29.0442 61.4211 29.1396C61.3219 29.2352 61.1159 29.2916 60.8032 29.3091L58.5245 29.4361C58.3607 29.4453 58.2329 29.4299 58.141 29.3899C58.0483 29.3353 57.9689 29.2496 57.9026 29.1333L57.5746 28.477C57.1686 28.9644 56.6661 29.3298 56.0672 29.5731C55.484 29.8306 54.7604 29.9833 53.8965 30.0315ZM55.4021 26.8887C55.9829 26.8563 56.4292 26.689 56.741 26.3869C57.0528 26.0846 57.1941 25.6718 57.1649 25.1486L56.9699 21.651C56.6796 21.5322 56.3183 21.4849 55.8865 21.5089C55.0971 21.553 54.4795 21.8648 54.0338 22.4444C53.6029 23.0232 53.4155 23.8133 53.4713 24.8148C53.5521 26.2647 54.1957 26.956 55.4021 26.8887Z" fill="white"/>
<path d="M64.694 29.0921C64.262 29.1162 63.9517 29.0434 63.763 28.8741C63.5743 28.7047 63.4692 28.4256 63.4475 28.037L62.9487 19.091C62.9337 18.8219 62.9684 18.64 63.0527 18.5454C63.1511 18.4349 63.3566 18.371 63.6695 18.3536L65.9705 18.2253C66.1491 18.2153 66.2849 18.2377 66.3775 18.2925C66.4842 18.3316 66.5488 18.4179 66.5713 18.5516L66.7204 19.218C67.1142 18.7762 67.6395 18.4171 68.2962 18.1406C68.9672 17.8483 69.7196 17.6789 70.5537 17.6324C71.76 17.5651 72.7547 17.8545 73.5376 18.5006C74.3198 19.1317 74.748 20.1124 74.8221 21.4427L75.1534 27.3843C75.1751 27.773 75.1016 28.062 74.9329 28.2513C74.779 28.4397 74.4861 28.5461 74.0542 28.5702L71.8873 28.691C71.4554 28.7151 71.1377 28.6428 70.934 28.4743C70.7453 28.3049 70.6401 28.0258 70.6185 27.6372L70.3035 21.987C70.2785 21.5386 70.1637 21.2227 69.9593 21.0391C69.7548 20.8556 69.4441 20.7755 69.0271 20.7987C68.5803 20.8236 68.2295 20.9631 67.9748 21.2172C67.735 21.4705 67.6267 21.8064 67.6501 22.225L67.9601 27.7854C67.9818 28.174 67.9081 28.463 67.7395 28.6524C67.5857 28.8408 67.2928 28.9472 66.8609 28.9713L64.694 29.0921Z" fill="white"/>
<path d="M83.1311 28.4016C81.0461 28.5179 79.4105 28.1217 78.2244 27.2133C77.0384 26.3049 76.3937 24.9239 76.2904 23.0704C76.227 21.9344 76.4318 20.9184 76.9047 20.0224C77.3777 19.1264 78.0923 18.4118 79.0486 17.8787C80.0197 17.3447 81.183 17.0399 82.5382 16.9644C83.5658 16.9071 84.4351 16.9561 85.1459 17.1114C85.8716 17.2658 86.5212 17.5295 87.0948 17.9024C87.2644 17.9979 87.3538 18.1278 87.363 18.2922C87.3697 18.4118 87.3188 18.5721 87.2105 18.773L86.3833 20.416C86.2907 20.6312 86.17 20.7428 86.0211 20.7511C85.9317 20.7561 85.7869 20.7042 85.5866 20.5954C85.1703 20.3638 84.7802 20.198 84.416 20.0984C84.0668 19.9979 83.6316 19.9622 83.1104 19.9912C82.3657 20.0328 81.7759 20.3056 81.3408 20.8096C80.9207 21.3128 80.734 21.9829 80.7806 22.82C80.8281 23.6721 81.0956 24.3169 81.5832 24.7544C82.0699 25.1771 82.7154 25.366 83.5195 25.3212C83.9961 25.2946 84.4244 25.2033 84.8041 25.0472C85.1838 24.8911 85.568 24.6823 85.9568 24.4207C86.1586 24.2894 86.3042 24.2213 86.3936 24.2164C86.5276 24.2089 86.6526 24.3069 86.7685 24.5104L87.87 26.1808C87.9529 26.326 87.9968 26.4436 88.0018 26.5332C88.0093 26.6678 87.9269 26.7998 87.755 26.9294C87.1519 27.3679 86.4834 27.7049 85.7497 27.9408C85.0315 28.1908 84.1587 28.3444 83.1311 28.4016Z" fill="white"/>
<path d="M93.7547 27.8093C92.3546 27.8873 91.2052 27.5016 90.3064 26.6522C89.4215 25.7868 88.9332 24.5321 88.8415 22.8878C88.7715 21.6322 88.9932 20.5178 89.5067 19.5446C90.035 18.5705 90.8063 17.8003 91.8204 17.234C92.8487 16.6519 94.048 16.3226 95.4181 16.2462C96.5499 16.1831 97.5549 16.2545 98.4328 16.4605C99.3248 16.6506 100.149 16.9571 100.904 17.3797L101.404 26.3482C101.42 26.6323 101.378 26.822 101.279 26.9174C101.18 27.013 100.974 27.0695 100.661 27.0869L98.3826 27.2139C98.2188 27.2231 98.0908 27.2077 97.999 27.1678C97.9064 27.1131 97.8269 27.0275 97.7606 26.9112L97.4327 26.2549C97.0267 26.7422 96.5241 27.1077 95.9251 27.351C95.3419 27.6084 94.6184 27.7611 93.7547 27.8093ZM95.2601 24.6666C95.841 24.6342 96.2873 24.4668 96.5991 24.1647C96.9109 23.8624 97.0522 23.4497 97.0231 22.9264L96.8281 19.4288C96.5376 19.31 96.1764 19.2627 95.7444 19.2868C94.9552 19.3308 94.3377 19.6426 93.8918 20.2222C93.4611 20.801 93.2734 21.5911 93.3293 22.5926C93.4101 24.0426 94.0538 24.7338 95.2601 24.6666Z" fill="white"/>
<path d="M115.429 25.4088C115.539 25.5225 115.599 25.6542 115.607 25.8037C115.615 25.9381 115.577 26.0528 115.492 26.1474C115.407 26.2272 115.29 26.2712 115.141 26.2795L111.678 26.4726C111.47 26.4842 111.313 26.4779 111.207 26.4539C111.115 26.4139 111.013 26.3371 110.903 26.2235L107.633 22.2449L107.818 25.5632C107.84 25.9518 107.766 26.2408 107.598 26.4302C107.429 26.6194 107.128 26.7262 106.697 26.7503L104.53 26.8711C104.098 26.8952 103.787 26.8225 103.599 26.6532C103.425 26.4829 103.327 26.2034 103.305 25.8148L102.582 12.8329C102.56 12.4443 102.633 12.1553 102.802 11.966C102.97 11.7617 103.263 11.6479 103.68 11.6247L105.847 11.5039C106.278 11.4798 106.589 11.5599 106.779 11.7443C106.967 11.9137 107.073 12.1927 107.094 12.5813L107.513 20.0924L110.247 16.0716C110.33 15.947 110.422 15.8594 110.524 15.8088C110.625 15.7581 110.78 15.727 110.989 15.7153L114.452 15.5223C114.601 15.514 114.715 15.5526 114.794 15.6381C114.888 15.7079 114.938 15.81 114.946 15.9446C114.954 16.094 114.909 16.2315 114.812 16.3569L111.237 20.9645L115.429 25.4088Z" fill="white"/>
<path d="M122.749 26.1927C121.498 26.2624 120.369 26.1155 119.363 25.7518C118.371 25.3872 117.569 24.8021 116.957 23.9967C116.344 23.1912 116.004 22.1831 115.937 20.9723C115.831 19.074 116.286 17.5942 117.303 16.5329C118.319 15.4716 119.832 14.885 121.843 14.7729C123.809 14.6633 125.326 15.0735 126.393 16.0036C127.475 16.9178 128.065 18.242 128.161 19.9758C128.203 20.7233 127.896 21.1152 127.241 21.1517L120.226 21.5428C120.262 22.1855 120.528 22.6656 121.023 22.9827C121.534 23.2991 122.281 23.4299 123.264 23.3751C123.874 23.341 124.378 23.2605 124.774 23.1335C125.184 22.9907 125.592 22.7956 125.996 22.5481C126.171 22.4633 126.288 22.4193 126.348 22.416C126.482 22.4085 126.598 22.4921 126.698 22.6663L127.537 24.0589C127.62 24.2044 127.664 24.3143 127.668 24.3891C127.675 24.5236 127.593 24.6557 127.421 24.7851C126.833 25.2228 126.157 25.5529 125.392 25.7754C124.628 25.998 123.746 26.1371 122.749 26.1927ZM124.079 19.1015C124.047 18.5334 123.859 18.1015 123.514 17.806C123.168 17.5103 122.668 17.3808 122.013 17.4173C121.358 17.4539 120.868 17.6461 120.544 17.994C120.219 18.3271 120.071 18.7701 120.102 19.3232L124.079 19.1015Z" fill="white"/>
<path d="M136.147 25.4458C134.896 25.5156 133.705 25.4546 132.574 25.2628C131.442 25.0559 130.52 24.7325 129.808 24.2924C129.546 24.1421 129.41 23.9772 129.4 23.7979C129.393 23.6783 129.43 23.5488 129.512 23.4092L130.509 21.5994C130.619 21.4133 130.733 21.3171 130.852 21.3104C130.926 21.3063 131.056 21.3515 131.24 21.4461C131.809 21.7294 132.448 21.9486 133.159 22.1038C133.87 22.2591 134.568 22.3177 135.253 22.2795C135.953 22.2405 136.461 22.1072 136.777 21.8796C137.108 21.6513 137.261 21.3055 137.235 20.842C137.21 20.3936 137.004 20.0527 136.617 19.8194C136.246 19.5852 135.55 19.3017 134.531 18.9687C132.995 18.4845 131.783 17.9148 130.895 17.2596C130.021 16.5886 129.55 15.6403 129.481 14.4146C129.399 12.9348 129.865 11.7768 130.879 10.9406C131.893 10.1044 133.278 9.63725 135.036 9.53926C136.257 9.47118 137.306 9.52516 138.182 9.70121C139.073 9.86148 139.835 10.1488 140.471 10.5632C140.735 10.7434 140.872 10.9157 140.881 11.0801C140.887 11.1848 140.849 11.3068 140.767 11.4463L139.77 13.2562C139.646 13.4431 139.532 13.5394 139.427 13.5452C139.353 13.5494 139.223 13.5041 139.039 13.4094C138.143 12.8896 137.1 12.6629 135.909 12.7293C135.268 12.765 134.782 12.897 134.451 13.1254C134.121 13.3538 133.969 13.7071 133.995 14.1854C134.014 14.5143 134.118 14.7783 134.308 14.9776C134.499 15.1769 134.747 15.3505 135.054 15.4983C135.376 15.6304 135.863 15.7981 136.517 16.0016L136.95 16.1348C138.076 16.5069 138.963 16.8772 139.611 17.246C140.273 17.5988 140.784 18.0577 141.145 18.6224C141.504 19.172 141.708 19.8804 141.756 20.7474C141.83 22.0778 141.391 23.1669 140.437 24.0146C139.498 24.8617 138.068 25.3387 136.147 25.4458Z" fill="white"/>
<path d="M146.728 24.5186C146.504 24.531 146.331 24.5032 146.208 24.435C146.084 24.367 145.986 24.2224 145.914 24.0015L142.493 14.4763C142.458 14.3883 142.439 14.3219 142.437 14.277C142.425 14.0678 142.568 13.9548 142.866 13.9382L145.814 13.7738C146.009 13.763 146.151 13.7925 146.245 13.8622C146.339 13.917 146.404 14.0183 146.441 14.1662L147.931 19.1886L149.222 15.0008C149.287 14.8172 149.354 14.6935 149.425 14.6296C149.511 14.5498 149.658 14.5041 149.867 14.4925L151.273 14.4141C151.482 14.4025 151.626 14.4319 151.704 14.5025C151.797 14.5573 151.885 14.6724 151.971 14.8475L153.695 18.8672L154.641 13.709C154.676 13.5571 154.73 13.4492 154.802 13.3852C154.872 13.3063 155.004 13.2615 155.197 13.2507L158.169 13.085C158.466 13.0684 158.621 13.1647 158.633 13.374C158.636 13.4189 158.625 13.4869 158.599 13.5783L156.236 23.4261C156.189 23.6536 156.107 23.8082 155.992 23.8895C155.892 23.9701 155.731 24.0166 155.507 24.0291L153.318 24.1511C153.109 24.1628 152.951 24.1341 152.842 24.0651C152.733 23.9813 152.636 23.8368 152.549 23.6316L150.848 19.6556L149.6 23.796C149.552 24.0087 149.471 24.1632 149.357 24.2594C149.257 24.34 149.104 24.3861 148.895 24.3977L146.728 24.5186Z" fill="white"/>
<path d="M164.897 23.8427C163.497 23.9208 162.348 23.535 161.449 22.6856C160.564 21.8202 160.075 20.5656 159.984 18.9212C159.914 17.6657 160.135 16.5512 160.649 15.578C161.177 14.604 161.948 13.8338 162.962 13.2674C163.991 12.6853 165.19 12.356 166.56 12.2797C167.693 12.2165 168.697 12.288 169.575 12.4939C170.467 12.6841 171.291 12.9905 172.046 13.4132L172.546 22.3817C172.562 22.6657 172.521 22.8555 172.421 22.9509C172.322 23.0465 172.117 23.1029 171.804 23.1203L169.525 23.2474C169.361 23.2565 169.234 23.2412 169.141 23.2012C169.048 23.1466 168.969 23.0609 168.903 22.9446L168.576 22.2883C168.169 22.7756 167.666 23.1411 167.067 23.3844C166.484 23.6418 165.761 23.7945 164.897 23.8427ZM166.403 20.7C166.983 20.6676 167.43 20.5002 167.742 20.1981C168.054 19.8958 168.195 19.4831 168.166 18.9598L167.971 15.4622C167.679 15.3435 167.319 15.2961 166.887 15.3202C166.097 15.3643 165.48 15.676 165.034 16.2556C164.604 16.8344 164.415 17.6246 164.471 18.6261C164.552 20.076 165.197 20.7672 166.403 20.7Z" fill="white"/>
<path d="M175.924 27.4337C175.492 27.4578 175.183 27.3851 174.993 27.2157C174.819 27.0455 174.722 26.766 174.7 26.3773L173.984 13.53C174.627 13.0144 175.447 12.5713 176.442 12.201C177.438 11.8306 178.486 11.6147 179.588 11.5533C184.086 11.3025 186.441 13.0904 186.655 16.9169C186.751 18.6509 186.352 20.06 185.457 21.1446C184.56 22.2291 183.242 22.8198 181.5 22.917C181.008 22.9444 180.528 22.9112 180.059 22.8174C179.605 22.7228 179.224 22.5792 178.915 22.3864L179.124 26.1307C179.145 26.5194 179.071 26.8084 178.903 26.9977C178.735 27.1871 178.434 27.2938 178.002 27.3179L175.924 27.4337ZM180.37 19.9437C181.01 19.908 181.474 19.6423 181.759 19.1465C182.059 18.635 182.186 17.9682 182.141 17.1461C182.086 16.1746 181.856 15.5051 181.447 15.1381C181.052 14.7553 180.459 14.5859 179.671 14.6299C179.163 14.6582 178.765 14.7479 178.476 14.899L178.674 18.4639C178.703 18.9722 178.865 19.353 179.163 19.6063C179.462 19.8595 179.864 19.9719 180.37 19.9437Z" fill="white"/>
<path fill-rule="evenodd" clip-rule="evenodd" d="M15.7543 38.4634C11.522 38.6962 8.05602 37.867 5.57197 36.1691C3.05812 34.4508 1.63275 31.8928 1.46688 28.9178C1.30706 26.0512 2.4678 23.9131 3.83366 22.4354C4.90408 21.2773 6.11357 20.5065 6.96049 20.0546C6.73011 19.46 6.44063 18.6809 6.17551 17.8743C5.82078 16.795 5.46103 15.5255 5.4085 14.5834C5.34634 13.4684 5.52612 12.335 6.13072 11.4285C6.76949 10.4707 7.78085 9.92027 9.03055 9.85059C10.0073 9.79614 10.8567 10.1135 11.5409 10.7046C12.1948 11.2696 12.6522 12.0428 12.9837 12.857C13.5661 14.2876 13.8633 16.1092 14.02 17.9348L15.2171 17.8681C15.1699 16.0363 15.2627 14.193 15.6826 12.7065C15.9215 11.8606 16.29 11.0413 16.8772 10.4071C17.4914 9.74362 18.3002 9.33377 19.2769 9.27932C20.5267 9.20964 21.5929 9.64421 22.3343 10.5251C23.0359 11.3588 23.3406 12.4651 23.4027 13.5802C23.4553 14.5222 23.2387 15.8238 23.0062 16.9359C22.8324 17.767 22.6313 18.5734 22.4685 19.19C23.3604 19.5449 24.6481 20.1765 25.8406 21.2084C27.3623 22.5251 28.7534 24.521 28.9132 27.3875C29.0791 30.3626 27.947 33.0631 25.6397 35.0502C23.3598 37.0137 20.0075 38.2231 15.7755 38.4622L15.7543 38.4634Z" fill="#633001"/>
<path d="M9.0896 10.911C7.2592 11.013 6.49382 12.4445 6.60057 14.3592C6.68543 15.8812 7.83436 18.8746 8.3022 20.0388C8.40742 20.3006 8.28177 20.601 8.02863 20.7189C6.59432 21.3872 2.38476 23.7758 2.65895 28.6937C2.94777 33.874 7.56509 37.5348 15.6785 37.0887C15.6818 37.0885 15.685 37.0882 15.6882 37.088C15.6914 37.0878 15.6947 37.0878 15.6979 37.0876C23.8106 36.629 27.9923 32.4777 27.7035 27.2974C27.4293 22.3795 22.9804 20.4736 21.4807 19.9689C21.216 19.8798 21.0578 19.5953 21.1332 19.3234C21.4688 18.1145 22.2778 15.0118 22.193 13.4899C22.0862 11.5752 21.1664 10.2376 19.336 10.3397C16.7012 10.4866 16.2554 14.3073 16.435 18.3712C16.447 18.6425 16.243 18.8745 15.9757 18.8894L13.3796 19.0342C13.1121 19.0491 12.8837 18.8412 12.8655 18.5702C12.5922 14.5116 11.7244 10.7641 9.0896 10.911Z" fill="#D1884F"/>
<path d="M15.6054 35.4282C9.64429 35.7605 2.90332 32.891 2.65954 28.7036C2.65989 28.71 2.66024 28.7166 2.6606 28.7231C2.94966 33.9077 7.57409 37.57 15.6995 37.117C23.825 36.664 28.0136 32.5102 27.7246 27.3257C27.7242 27.3191 27.7238 27.3126 27.7235 27.3062C27.9467 31.4948 21.5664 35.0958 15.6054 35.4282Z" fill="#FEDC90"/>
<path d="M11.8077 26.9032C11.8865 28.3172 11.2685 29.0904 10.4555 29.1357C9.64247 29.181 8.94235 28.4814 8.86351 27.0674C8.78468 25.6534 9.40269 24.8802 10.2157 24.8349C11.0287 24.7896 11.7288 25.4892 11.8077 26.9032Z" fill="#633001"/>
<path d="M21.3761 26.3698C21.455 27.7838 20.837 28.5569 20.024 28.6022C19.2109 28.6476 18.5108 27.9479 18.432 26.5339C18.3532 25.1199 18.9712 24.3468 19.7842 24.3015C20.5972 24.2561 21.2973 24.9558 21.3761 26.3698Z" fill="#633001"/>
</g>
<defs>
<clipPath id="clip0_25_2713">
<rect width="186" height="29" fill="white" transform="translate(0 10.354) rotate(-3.19116)"/>
</clipPath>
</defs>
</svg>
