<svg width="178" height="39" viewBox="0 0 178 39" fill="none" xmlns="http://www.w3.org/2000/svg">
<path d="M26.8685 25.3757C26.3547 25.7246 25.74 25.8131 25.2567 25.571C24.6516 25.2464 24.2606 24.4694 24.2083 23.3813L24.0486 20.0582C23.9723 18.4701 23.2996 17.3529 22.2268 17.1097C20.4075 16.6666 19.1607 18.9372 18.7003 19.7846L15.7687 25.0248L15.4677 18.7609C15.3691 17.3213 14.8576 16.4911 13.9626 16.2688C13.366 16.1207 12.488 16.2513 11.6973 17.5862L5.1555 29.2782C4.12824 27.5296 3.53222 25.5538 3.43471 23.5247C3.10545 16.6727 8.33764 10.8503 15.0721 10.5267C21.8065 10.2031 27.5728 15.4969 27.9021 22.349L27.9035 22.3784L27.9049 22.4078C28.0273 23.7283 27.6665 24.8068 26.8685 25.3757ZM30.6076 22.219L30.6062 22.1895L30.6048 22.1601C30.1755 13.8391 23.144 7.36808 14.9392 7.76235C6.705 8.15803 0.326436 15.2735 0.729182 23.6547C1.13051 32.0066 8.16337 38.507 16.3976 38.1113C20.1912 37.929 23.7097 36.3156 26.3483 33.5655C26.8816 33.0093 26.87 32.1551 26.3138 31.6217C25.7871 31.087 24.9328 31.0986 24.3981 31.6254C24.3981 31.6254 24.3981 31.6254 24.3701 31.6562C22.2368 33.881 19.2952 35.2308 16.2073 35.3792C12.5902 35.553 9.27899 34.1204 6.92246 31.6988L12.8122 21.1582L13.0397 25.8928C13.1485 28.1572 14.0661 28.85 14.8112 29.0206C15.5563 29.1911 16.6667 28.9904 17.7806 27.0209L21.0074 21.177C21.1165 20.9949 21.1963 20.8142 21.3083 20.6909L21.4468 23.5729C21.5485 25.6903 22.4833 27.355 23.9932 28.1077C25.3533 28.8087 27.0254 28.64 28.3666 27.7207C30.0185 26.5213 30.8369 24.5365 30.6076 22.219ZM51.1797 16.0427C51.5425 16.2316 51.89 16.7159 51.9112 17.1571C51.9451 17.8628 51.3852 18.4793 50.7088 18.5118C50.5324 18.5203 50.3825 18.4685 50.2341 18.4462C49.4118 17.8962 48.3936 17.5619 47.3349 17.6128C44.8352 17.7329 43.227 19.844 43.3486 22.3731C43.4701 24.9022 45.3013 26.8185 47.7715 26.6998C49.0067 26.6405 50.1001 26.0868 50.8854 25.2533C51.0842 25.0963 51.3446 24.9954 51.6093 24.9827C52.2857 24.9502 52.8405 25.4541 52.873 26.1304C52.8942 26.5716 52.6479 26.9666 52.3343 27.188C51.178 28.2752 49.5931 29.0293 47.9168 29.1099C44.0938 29.2936 40.8253 26.2967 40.6388 22.4149C40.4523 18.533 43.4183 15.2366 47.2413 15.0529C48.6515 14.9556 50.0255 15.3317 51.1797 16.0427ZM58.3201 18.6471C60.9374 18.5213 63.2196 20.6224 63.351 23.3573C63.481 26.0628 61.3871 28.492 58.7992 28.6164C56.0642 28.7478 53.6896 26.5628 53.5582 23.8279C53.4267 21.093 55.5852 18.7785 58.3201 18.6471ZM58.6525 26.177C59.7994 26.1218 60.7175 24.9871 60.6469 23.5167C60.5762 22.0463 59.5605 21.1519 58.4136 21.207C57.1785 21.2664 56.193 22.2275 56.2651 23.7273C56.3343 25.1683 57.4173 26.2363 58.6525 26.177ZM65.166 26.7777L64.8325 19.8374C64.7958 19.0728 65.3542 18.427 66.1188 18.3903C66.854 18.3549 67.5013 18.9428 67.538 19.7074L67.8715 26.6477C67.9083 27.4123 67.3204 28.0595 66.5852 28.0949C65.85 28.1302 65.2013 27.5129 65.166 26.7777ZM64.4345 15.8479C64.3907 14.9362 65.0625 14.1965 65.9154 14.1555C66.7976 14.1131 67.5387 14.8144 67.5811 15.6967C67.6235 16.5789 66.9516 17.3186 66.0694 17.361C65.1857 17.374 64.4754 16.7007 64.4345 15.8479ZM72.8664 22.6348L73.0473 26.399C73.0841 27.1636 72.4962 27.8108 71.761 27.8462C71.0258 27.8815 70.3785 27.2936 70.3418 26.529L69.9928 19.2652C69.9645 18.6771 70.4124 18.1839 71.0006 18.1557C71.5887 18.1274 72.0539 18.6062 72.0807 19.1649C73.1193 18.0833 74.0827 17.8897 74.9944 17.8459C77.6999 17.7159 79.0031 19.6871 79.1148 22.0103L79.3112 26.098C79.3479 26.8626 78.7601 27.5098 78.0249 27.5452C77.2897 27.5805 76.6424 26.9926 76.6057 26.228L76.4248 22.4638C76.3683 21.2875 76.1732 20.2947 74.4675 20.3766C73.2618 20.4346 72.8099 21.4585 72.8664 22.6348ZM87.9631 23.3537C87.6396 23.3692 87.4267 23.232 87.2404 23.0347L83.9298 19.7746L84.2223 25.862C84.2591 26.6266 83.6712 27.2738 82.936 27.3092C82.2008 27.3445 81.5535 26.7566 81.5168 25.992L80.9374 13.9348C81.0157 13.7247 81.2145 13.5677 81.4204 13.5578C81.6557 13.5465 81.8714 13.7425 82.0255 13.8825L87.3256 19.2871C87.4811 19.4565 87.6618 19.5363 87.7794 19.5306C87.8676 19.5264 88.0693 19.4283 88.2078 19.2447L92.9652 13.3568C93.1052 13.2027 93.2718 12.9883 93.5364 12.9756C93.7717 12.9643 93.9846 13.1015 94.0533 13.3045L94.6327 25.3617C94.6695 26.1263 94.111 26.7722 93.3464 26.8089C92.6112 26.8442 91.9639 26.2564 91.9272 25.4918L91.6347 19.4043L88.652 22.9668C88.4266 23.184 88.2278 23.3409 87.9631 23.3537ZM101.029 24.1406C102.235 24.0827 103.212 22.9451 103.141 21.4747C103.071 20.0043 101.965 19.0847 100.789 19.1413C99.6127 19.1978 98.6903 20.2443 98.7595 21.6853C98.8274 23.0969 99.8235 24.1986 101.029 24.1406ZM103.971 25.2373L103.896 24.9166C103.416 25.9713 101.763 26.5224 100.704 26.5733C98.1749 26.6948 96.1826 24.4914 96.0512 21.7565C95.9212 19.051 97.7253 16.7241 100.372 16.5969C100.813 16.5757 102.348 16.6199 103.591 17.9455L103.634 17.6192C103.606 17.031 104.024 16.5393 104.612 16.5111C105.201 16.4828 105.695 16.9601 105.722 17.5189L106.087 25.1061C106.115 25.6943 105.667 26.1874 105.079 26.2157C104.463 26.2748 103.997 25.796 103.971 25.2373ZM113.227 18.5141L112.933 18.5282C111.232 18.6984 110.955 19.6844 111.008 20.8019L111.189 24.5661C111.226 25.3307 110.638 25.978 109.903 26.0133C109.168 26.0486 108.521 25.4608 108.484 24.6962L108.135 17.4324C108.107 16.8442 108.554 16.3511 109.143 16.3228C109.731 16.2946 110.196 16.7733 110.223 17.3321C111.177 16.343 111.991 16.0975 112.813 16.0286L113.078 16.0158C113.725 15.9848 114.34 16.5152 114.374 17.221C114.434 17.8666 113.874 18.483 113.227 18.5141ZM123.921 23.3059C124.049 23.5061 124.147 23.7077 124.158 23.9429C124.192 24.6487 123.576 25.3268 122.871 25.3607C122.4 25.3833 121.971 25.0502 121.628 24.654L118.337 21.1867L118.481 24.1863C118.518 24.9509 117.93 25.5981 117.195 25.6335C116.46 25.6688 115.812 25.0809 115.776 24.3163L115.246 13.2883C115.209 12.5237 115.767 11.8779 116.532 11.8411C117.297 11.8044 117.914 12.3937 117.951 13.1583L118.282 20.0398L121.234 16.4492C121.54 16.0808 121.904 15.6801 122.375 15.6575C123.051 15.625 123.698 16.2129 123.732 16.9187C123.742 17.1246 123.695 17.3626 123.586 17.5447L121.245 20.369L123.921 23.3059ZM128.962 17.7875C128.227 17.8228 127.039 18.2631 127.094 19.41L131.006 19.222C130.921 18.0765 129.668 17.7536 128.962 17.7875ZM132.648 20.8822L127.178 21.145C127.255 22.7625 128.827 22.9522 129.503 22.9197C130.003 22.8957 130.705 22.7736 131.251 22.482C131.421 22.3559 131.682 22.255 131.947 22.2423C132.535 22.214 133.059 22.6899 133.088 23.3075C133.108 23.7192 132.86 24.0848 132.547 24.3062C131.753 24.9634 130.672 25.1627 129.643 25.2121C126.908 25.3436 124.573 23.982 124.407 20.5413C124.277 17.8357 125.547 15.4167 128.781 15.2612C131.399 15.1355 133.451 16.7464 133.655 19.7726C133.682 20.3314 133.236 20.8539 132.648 20.8822ZM140.375 24.6669L139.64 24.7023C137.582 24.8012 136.332 23.9475 136.178 20.742L136.018 17.4189L135.312 17.4528C134.666 17.4839 134.079 16.9226 134.047 16.2756C134.013 15.5699 134.575 14.9828 135.192 14.9532L135.898 14.9192L135.775 12.3608C135.738 11.5962 136.297 10.9503 137.062 10.9136C137.797 10.8783 138.444 11.4662 138.481 12.2308L138.604 14.7892L139.721 14.7355C140.368 14.7044 140.954 15.2364 140.988 15.9421C141.019 16.5891 140.459 17.2055 139.841 17.2352L138.724 17.2889L138.858 20.0827C138.947 21.9354 139.054 22.3134 139.877 22.2739L140.259 22.2555C140.906 22.2244 141.491 22.7269 141.523 23.4033C141.554 24.0502 141.022 24.6358 140.375 24.6669ZM152.843 11.1574C153.206 11.3463 153.553 11.8307 153.574 12.2718C153.608 12.9776 153.048 13.594 152.372 13.6265C152.196 13.635 152.046 13.5833 151.897 13.5609C151.075 13.0109 150.057 12.6767 148.998 12.7275C146.498 12.8477 144.89 14.9588 145.012 17.4878C145.133 20.0169 146.964 21.9333 149.435 21.8146C150.67 21.7552 151.763 21.2016 152.549 20.368C152.747 20.2111 153.008 20.1101 153.272 20.0974C153.949 20.0649 154.504 20.5688 154.536 21.2452C154.557 21.6863 154.311 22.0813 153.997 22.3027C152.841 23.39 151.256 24.1441 149.58 24.2246C145.757 24.4083 142.488 21.4115 142.302 17.5296C142.115 13.6478 145.081 10.3513 148.904 10.1676C150.315 10.0704 151.718 10.4451 152.843 11.1574ZM160.198 21.2974C161.404 21.2394 162.381 20.1019 162.31 18.6315C162.239 17.1611 161.134 16.2415 159.958 16.298C158.752 16.356 157.859 17.4011 157.928 18.842C157.996 20.2536 159.022 21.3539 160.198 21.2974ZM163.139 22.394L163.065 22.0734C162.585 23.1281 160.931 23.6792 159.873 23.73C157.344 23.8516 155.351 21.6482 155.22 18.9132C155.09 16.2077 156.894 13.8809 159.541 13.7537C159.982 13.7325 161.517 13.7766 162.759 15.1023L162.803 14.776C162.774 14.1878 163.193 13.6961 163.781 13.6678C164.369 13.6396 164.864 14.1169 164.891 14.6756L165.255 22.2629C165.284 22.851 164.836 23.3442 164.247 23.3724C163.631 23.4315 163.166 22.9528 163.139 22.394ZM172.579 20.7024C173.784 20.6445 174.67 19.4524 174.603 18.0408C174.532 16.5704 173.515 15.6466 172.338 15.7031C171.133 15.761 170.15 16.781 170.221 18.2514C170.291 19.7217 171.373 20.7604 172.579 20.7024ZM170.421 22.4273L170.587 25.868C170.623 26.6326 170.036 27.2798 169.3 27.3152C168.565 27.3505 167.918 26.7626 167.881 25.998L167.333 14.5877C167.305 13.9996 167.753 13.5064 168.341 13.4782C168.929 13.4499 169.394 13.9287 169.427 14.605C170.377 13.5277 171.599 13.2037 172.54 13.1585C175.158 13.0327 177.205 15.145 177.336 17.88C177.466 20.5855 175.725 22.9977 173.166 23.1207C172.371 23.1294 171.183 22.9507 170.421 22.4273Z" fill="white"/>
</svg>
