<svg width="122" height="38" viewBox="0 0 122 38" fill="none" xmlns="http://www.w3.org/2000/svg">
<g clip-path="url(#clip0_25_2730)">
<path d="M50.1764 15.8676C49.7682 14.6432 48.9151 13.778 47.3218 13.8621C44.9508 13.9872 44.0684 16.0825 44.1778 18.1557C44.2873 20.2289 45.3855 22.223 47.7565 22.0979C49.4697 22.0074 50.3559 20.7012 50.427 19.1189L52.3184 19.0191C52.3008 21.6162 50.5208 23.5003 47.8448 23.6415C44.5281 23.8165 42.4118 21.3455 42.2488 18.2575C42.0858 15.1695 43.9159 12.4768 47.2223 12.3023C49.7167 12.1706 51.7485 13.4303 52.1109 15.7387L50.1764 15.8676Z" fill="white"/>
<path d="M53.4557 19.1506C53.3295 16.7593 54.7084 14.9568 57.2816 14.821C59.8548 14.6852 61.4157 16.3325 61.5419 18.7239C61.6681 21.1152 60.2901 22.9344 57.7169 23.0702C55.1437 23.206 53.5828 21.5587 53.4557 19.1506ZM59.7739 18.8172C59.7032 17.4775 58.9432 16.0969 57.3533 16.1808C55.7635 16.2647 55.1525 17.7076 55.2237 19.0573C55.2949 20.4071 56.0553 21.7943 57.6452 21.7104C59.235 21.6265 59.8458 20.1803 59.7739 18.8172Z" fill="white"/>
<path d="M62.6962 11.7544L64.4607 11.6613L64.547 13.2957L62.7824 13.3888L62.6962 11.7544ZM62.8537 14.7386L64.6182 14.6454L65.0313 22.4726L63.2668 22.5657L62.8537 14.7386Z" fill="white"/>
<path d="M66.5404 14.5438L68.2125 14.4556L68.2733 15.6077L68.3057 15.6362C68.5369 15.1967 68.8825 14.8243 69.3075 14.5565C69.7326 14.2888 70.222 14.1352 70.7266 14.1113C72.4603 14.0198 73.6081 14.8694 73.7016 16.6411L73.9853 22.0166L72.2207 22.1098L71.9602 17.173C71.8646 15.9488 71.3399 15.4459 70.3051 15.5005C69.1265 15.5627 68.4171 16.5103 68.4779 17.6624L68.7217 22.281L66.9571 22.3741L66.5404 14.5438Z" fill="white"/>
<path d="M85.7436 21.3793L84.5033 21.4448L84.1415 20.1876C83.1744 21.394 82.2382 21.8196 80.8951 21.8905C77.5818 22.0653 75.4584 19.5913 75.2956 16.5067C75.1328 13.422 76.9836 10.7315 80.2969 10.5567C82.6954 10.4301 84.8175 11.5776 85.23 13.9907L83.3386 14.0906C83.0785 12.6769 81.769 12.0172 80.3744 12.0908C78.0034 12.2159 77.121 14.3112 77.2304 16.3844C77.3398 18.4576 78.4381 20.4517 80.8091 20.3266C82.7911 20.2522 83.8158 19.0293 83.7362 17.1964L80.793 17.3517L80.7171 15.9149L85.4215 15.6666L85.7436 21.3793Z" fill="white"/>
<path d="M88.7986 17.7421C88.8633 18.9679 89.6062 20.0236 91.0727 19.9462C92.1006 19.892 92.6907 19.4208 92.9535 18.5405L94.629 18.452C94.3321 20.1839 92.8962 21.2303 91.1453 21.3227C88.6372 21.4551 87.1352 19.8182 87.0081 17.4101C86.8906 15.1828 88.2805 13.1984 90.6618 13.0728C93.187 12.9395 94.8531 15.0817 94.6721 17.4456L88.7986 17.7421ZM92.8503 16.3897C92.731 15.3011 91.9186 14.3599 90.7262 14.4229C90.4477 14.4357 90.1745 14.5028 89.9226 14.6201C89.6707 14.7374 89.4451 14.9026 89.2591 15.106C89.073 15.3094 88.9303 15.547 88.8392 15.8047C88.748 16.0625 88.7104 16.3353 88.7284 16.6072L92.8503 16.3897Z" fill="white"/>
<path d="M101.346 15.3335C101.156 14.3863 100.416 13.9115 99.4394 13.9631C98.5211 14.0115 97.2644 14.548 97.3899 16.926C97.4587 18.2288 98.1207 19.5743 99.6522 19.4934C100.68 19.4392 101.351 18.7321 101.463 17.6044L103.227 17.5113C102.992 19.559 101.787 20.7444 99.7206 20.8534C97.2125 20.9858 95.7398 19.3171 95.6183 17.0161C95.4937 14.6549 96.7119 12.7367 99.3467 12.5977C101.207 12.4995 102.821 13.3245 103.107 15.2372L101.346 15.3335Z" fill="white"/>
<path d="M104.309 9.55824L106.074 9.46511L106.398 15.6143L109.421 12.2809L111.587 12.1666L108.655 15.2064L112.277 19.9825L110.119 20.0964L107.472 16.4242L106.473 17.4844L106.621 20.2877L104.86 20.3807L104.309 9.55824Z" fill="white"/>
<path d="M112.571 16.0308C112.444 13.6394 113.823 11.837 116.396 11.7012C118.97 11.5654 120.531 13.2126 120.657 15.604C120.783 17.9953 119.402 19.8147 116.832 19.9503C114.262 20.086 112.698 18.4389 112.571 16.0308ZM118.892 15.6971C118.821 14.3574 118.061 12.9769 116.468 13.061C114.875 13.1451 114.267 14.5877 114.339 15.9374C114.41 17.2872 115.17 18.6745 116.76 18.5905C118.35 18.5066 118.961 17.0604 118.889 15.6973L118.892 15.6971Z" fill="white"/>
<path d="M32.4866 20.0658C32.6631 23.127 31.9069 26.1727 30.3136 28.8178C28.7204 31.4629 26.3616 33.5885 23.5358 34.9258C20.7099 36.2631 17.5438 36.7521 14.4379 36.3308C11.3321 35.9096 8.42602 34.597 6.08724 32.5592C3.74847 30.5214 2.08208 27.8498 1.29882 24.8824C0.515557 21.9149 0.650621 18.785 1.68693 15.8883C2.72323 12.9917 4.61422 10.4585 7.12074 8.60916C9.62725 6.75982 12.6367 5.67739 15.7684 5.49879C19.9664 5.25938 24.0859 6.65943 27.2209 9.39111C30.356 12.1228 32.2501 15.9624 32.4866 20.0658Z" fill="#8DC63F"/>
<path d="M31.2979 20.1319C31.4601 22.9622 30.7602 25.778 29.2865 28.2232C27.8128 30.6685 25.6316 32.6334 23.0187 33.8695C20.4058 35.1055 17.4785 35.5573 14.6069 35.1676C11.7353 34.778 9.04849 33.5644 6.88609 31.6803C4.72368 29.7962 3.18283 27.3262 2.45837 24.5826C1.7339 21.8391 1.85836 18.9452 2.816 16.2669C3.77363 13.5886 5.52145 11.2461 7.83844 9.53561C10.1554 7.82515 12.9376 6.82354 15.833 6.65741C19.7163 6.4355 23.5271 7.73038 26.4273 10.2573C29.3274 12.7841 31.0794 16.3361 31.2979 20.1319Z" fill="#F9E988"/>
<path d="M16.2172 7.55734C17.1402 7.34644 18.0936 7.29612 19.0337 7.4087C19.9818 7.50453 20.9065 7.75425 21.7699 8.1476C22.6019 8.57944 23.3921 9.08404 24.1309 9.65525C24.8805 10.1866 25.6241 10.7352 26.3397 11.3389C27.0673 11.9313 27.7111 12.6156 28.2543 13.3739C28.8116 14.1251 29.2787 14.9366 29.6464 15.7924C30.3708 17.5172 30.6479 19.3911 30.4531 21.2478L30.364 21.2525C30.0005 19.5186 29.4506 17.8274 28.7234 16.2072C28.373 15.4063 27.9692 14.6289 27.5148 13.8797C27.0423 13.1323 26.5271 12.4116 25.9716 11.721C25.4073 11.0221 24.7289 10.4191 23.9636 9.93612C23.1811 9.49029 22.3457 9.13963 21.4759 8.89192C20.6324 8.60057 19.7935 8.32915 18.9173 8.13358C18.0412 7.938 17.1543 7.80009 16.2303 7.67421L16.2172 7.55734Z" fill="white"/>
<path d="M23.8017 15.4629C22.7236 15.2175 21.5979 14.8504 20.4615 14.4771C20.2819 14.0692 19.9798 13.7245 19.5951 13.4884C18.8325 12.9073 17.4663 12.9962 16.2984 13.3266C15.0297 13.0596 13.7137 13.091 12.4584 13.4184C2.47402 16.6792 8.56764 23.0277 5.20356 29.9223C5.7892 30.993 11.8319 37.0923 19.9918 34.9387C19.9918 34.9387 16.8187 28.4596 23.0204 24.9417C28.0538 22.0732 31.5323 17.0869 23.8017 15.4629Z" fill="#8BC53F"/>
<path d="M25.2922 19.747C25.2992 19.8655 25.27 19.9835 25.2084 20.086C25.1468 20.1885 25.0555 20.2709 24.9461 20.3228C24.8367 20.3746 24.7142 20.3937 24.5939 20.3775C24.4736 20.3613 24.361 20.3106 24.2703 20.2318C24.1797 20.1529 24.1151 20.0496 24.0846 19.9347C24.0541 19.8198 24.0592 19.6986 24.0992 19.5864C24.1392 19.4742 24.2123 19.376 24.3093 19.3042C24.4063 19.2325 24.5228 19.1905 24.644 19.1834C24.7245 19.1787 24.8052 19.1896 24.8813 19.2153C24.9575 19.2411 25.0277 19.2813 25.0878 19.3337C25.148 19.386 25.1971 19.4495 25.2321 19.5204C25.2672 19.5913 25.2876 19.6683 25.2922 19.747Z" fill="white"/>
<path d="M16.3054 13.3294C17.0447 13.3408 19.7586 14.0472 20.4716 14.4731C19.8135 12.8756 17.8698 12.7632 16.3054 13.3294Z" fill="#009345"/>
<path d="M17.2249 17.4051C17.2545 17.953 17.1171 18.4976 16.8302 18.97C16.5434 19.4423 16.1198 19.8212 15.6132 20.0587C15.1066 20.2961 14.5396 20.3816 13.9841 20.3041C13.4286 20.2266 12.9095 19.9897 12.4924 19.6234C12.0754 19.2571 11.7791 18.7779 11.6411 18.2463C11.5032 17.7147 11.5297 17.1546 11.7173 16.637C11.905 16.1194 12.2453 15.6674 12.6953 15.3383C13.1453 15.0092 13.6847 14.8178 14.2453 14.7882C14.6172 14.7681 14.9893 14.8199 15.3404 14.9406C15.6915 15.0613 16.0147 15.2485 16.2914 15.4916C16.5681 15.7346 16.793 16.0287 16.9532 16.357C17.1134 16.6854 17.2057 17.0415 17.2249 17.4051Z" fill="white"/>
<path d="M16.3866 17.4728C16.4069 17.8577 16.31 18.2401 16.1082 18.5716C15.9063 18.9032 15.6086 19.169 15.2526 19.3355C14.8966 19.502 14.4984 19.5616 14.1083 19.5069C13.7182 19.4522 13.3537 19.2856 13.0609 19.0282C12.7681 18.7707 12.5602 18.434 12.4635 18.0606C12.3668 17.6872 12.3855 17.2938 12.5174 16.9303C12.6494 16.5668 12.8885 16.2494 13.2046 16.0183C13.5206 15.7872 13.8995 15.6528 14.2932 15.632C14.8212 15.6041 15.3384 15.7824 15.731 16.1277C16.1235 16.4729 16.3594 16.9568 16.3866 17.4728Z" fill="#58595B"/>
<path d="M27.6524 20.8483C25.4402 22.5503 22.896 23.8869 19.1921 24.0824C17.4584 24.1739 17.0141 22.3972 15.9161 23.3351C15.3508 23.8217 13.3178 24.9499 11.6623 24.9601C10.0067 24.9702 7.27386 24.164 6.34485 20.7537C6.23225 24.2189 6.21222 26.7691 5.04343 29.7528C7.89966 33.7431 14.3622 36.5994 20.0014 34.9248C19.167 30.7673 22.6954 26.4668 24.6958 24.2655C25.4556 23.4294 26.9152 22.0493 27.6564 20.8582L27.6524 20.8483Z" fill="#8BC53F"/>
<path d="M27.5652 20.9537C26.8672 21.6076 26.0787 22.1625 25.223 22.6021C24.3706 23.0535 23.4769 23.4256 22.5536 23.7136C21.6275 24.037 20.6518 24.2021 19.6691 24.2016C18.6662 24.2147 17.6962 23.8569 16.9534 23.1997L16.9825 23.1646C17.8071 23.595 18.738 23.7934 19.6721 23.738C20.609 23.7165 21.5406 23.5918 22.4494 23.3664C23.3669 23.1283 24.2598 22.8068 25.1165 22.4062C25.9888 22.0296 26.8024 21.5344 27.5333 20.9352L27.5652 20.9537Z" fill="#58595B"/>
</g>
<defs>
<clipPath id="clip0_25_2730">
<rect width="120" height="31" fill="white" transform="translate(0 6.32422) rotate(-3.02105)"/>
</clipPath>
</defs>
</svg>
