<svg width="835" height="509" viewBox="0 0 835 509" fill="none" xmlns="http://www.w3.org/2000/svg">
<path d="M493.952 257.886L625.869 376.647C560.299 449.48 448.084 455.351 375.228 389.761C302.372 324.171 296.466 211.958 362.035 139.125C400.039 96.9107 455.962 75.4474 512.463 81.3902L493.952 257.886Z" fill="url(#paint0_linear_2938_404)" stroke="url(#paint1_linear_2938_404)"/>
<path d="M510.893 248.17L528.552 81.2018C620.737 90.8165 687.561 173.365 677.808 265.579C674.834 293.703 664.806 320.631 648.655 343.863L510.893 248.17Z" fill="url(#paint2_linear_2938_404)" stroke="url(#paint3_linear_2938_404)"/>
<path d="M504.829 258.377L644.909 352.724C641.499 358.097 637.724 363.217 633.605 368.053L504.829 258.377Z" fill="url(#paint4_linear_2938_404)" stroke="url(#paint5_linear_2938_404)"/>
<path d="M651.5 157L684.5 121H834.5" stroke="white"/>
<path d="M322 211L298.909 175H81.6446H1.00136e-05" stroke="white"/>
<path d="M642 359L674.952 394H788" stroke="white"/>
<path d="M387.6 246.44L379.88 258.04C377.72 261.24 376.96 263.44 376.96 266.32C376.96 272.2 381.36 276.52 387.32 276.52C393.24 276.52 397.44 272.12 397.44 265.92C397.44 260.48 394 256.56 389.28 256.56C388.32 256.56 387.8 256.64 386.88 256.96L393.96 246.44H387.6ZM387.08 261.2C390.08 261.2 392.12 263.36 392.12 266.44C392.12 269.52 390.16 271.64 387.36 271.64C384.36 271.64 382.28 269.48 382.28 266.44C382.28 263.4 384.28 261.2 387.08 261.2ZM400.583 261.88L405.303 263.16C406.623 261.52 407.743 260.92 409.423 260.92C412.183 260.92 414.223 263.2 414.223 266.2C414.223 269.4 412.223 271.64 409.343 271.64C406.783 271.64 405.103 270.04 404.543 267.16H399.223C399.503 272.48 403.983 276.52 409.503 276.52C415.263 276.52 419.543 272.08 419.543 266.12C419.543 260.32 415.583 256.04 410.183 256.04C408.823 256.04 407.903 256.24 406.383 256.88L407.343 251.44H416.703V246.44H403.343L400.583 261.88ZM441.966 246.44L429.766 276H433.846L446.086 246.44H441.966ZM447.046 262.08C442.966 262.08 439.766 265.24 439.766 269.32C439.766 273.28 443.006 276.52 447.006 276.52C451.006 276.52 454.246 273.28 454.246 269.28C454.246 265.36 450.966 262.08 447.046 262.08ZM446.966 266.32C448.646 266.32 449.966 267.64 449.966 269.28C449.966 270.92 448.646 272.24 447.006 272.24C445.406 272.24 444.086 270.92 444.086 269.28C444.086 267.64 445.366 266.32 446.966 266.32ZM428.966 245.92C424.886 245.92 421.686 249.08 421.686 253.16C421.686 257.12 424.926 260.36 428.926 260.36C432.926 260.36 436.166 257.12 436.166 253.12C436.166 249.2 432.886 245.92 428.966 245.92ZM428.886 250.16C430.566 250.16 431.886 251.48 431.886 253.12C431.886 254.76 430.566 256.08 428.926 256.08C427.326 256.08 426.006 254.76 426.006 253.12C426.006 251.48 427.286 250.16 428.886 250.16Z" fill="white"/>
<path d="M561 193.76H561.88C565.44 193.76 567.68 195.72 567.68 198.72C567.68 201.56 565.72 203.64 563.04 203.64C560.44 203.64 558.6 201.84 558.24 199.04H552.88C553.2 204.6 557.4 208.52 563.08 208.52C568.8 208.52 573 204.32 573 198.6C573 194.88 571.48 192.36 568.4 190.96C570.12 189.72 570.88 188.16 570.88 185.88C570.88 181.32 567.48 177.92 562.92 177.92C560.68 177.92 558.6 178.76 557.12 180.32C555.8 181.68 555.28 183 555.08 185.48H560.48C560.72 183.64 561.48 182.8 562.96 182.8C564.48 182.8 565.56 183.96 565.56 185.6C565.56 186.84 565 187.72 563.92 188.2C563.24 188.48 562.52 188.6 561 188.64V193.76ZM583.383 193.76H584.263C587.823 193.76 590.063 195.72 590.063 198.72C590.063 201.56 588.103 203.64 585.423 203.64C582.823 203.64 580.983 201.84 580.623 199.04H575.263C575.583 204.6 579.783 208.52 585.463 208.52C591.183 208.52 595.383 204.32 595.383 198.6C595.383 194.88 593.863 192.36 590.783 190.96C592.503 189.72 593.263 188.16 593.263 185.88C593.263 181.32 589.863 177.92 585.303 177.92C583.063 177.92 580.983 178.76 579.503 180.32C578.183 181.68 577.663 183 577.463 185.48H582.863C583.103 183.64 583.863 182.8 585.343 182.8C586.863 182.8 587.943 183.96 587.943 185.6C587.943 186.84 587.383 187.72 586.303 188.2C585.623 188.48 584.903 188.6 583.383 188.64V193.76ZM617.966 178.44L605.766 208H609.846L622.086 178.44H617.966ZM623.046 194.08C618.966 194.08 615.766 197.24 615.766 201.32C615.766 205.28 619.006 208.52 623.006 208.52C627.006 208.52 630.246 205.28 630.246 201.28C630.246 197.36 626.966 194.08 623.046 194.08ZM622.966 198.32C624.646 198.32 625.966 199.64 625.966 201.28C625.966 202.92 624.646 204.24 623.006 204.24C621.406 204.24 620.086 202.92 620.086 201.28C620.086 199.64 621.366 198.32 622.966 198.32ZM604.966 177.92C600.886 177.92 597.686 181.08 597.686 185.16C597.686 189.12 600.926 192.36 604.926 192.36C608.926 192.36 612.166 189.12 612.166 185.12C612.166 181.2 608.886 177.92 604.966 177.92ZM604.886 182.16C606.566 182.16 607.886 183.48 607.886 185.12C607.886 186.76 606.566 188.08 604.926 188.08C603.326 188.08 602.006 186.76 602.006 185.12C602.006 183.48 603.286 182.16 604.886 182.16Z" fill="white"/>
<path d="M625.23 409H639.57V405.25H630.84L635.37 401.14C638.61 398.2 639.66 396.37 639.66 393.64C639.66 389.53 636.57 386.44 632.43 386.44C629.91 386.44 627.63 387.61 626.34 389.53C625.44 390.88 625.08 392.26 625.08 394.48H629.01C629.01 391.84 630.39 390.1 632.46 390.1C634.29 390.1 635.67 391.6 635.67 393.58C635.67 395.02 634.95 396.31 633.12 398.02L625.23 405.49V409ZM656.687 386.83L647.537 409H650.597L659.777 386.83H656.687ZM660.497 398.56C657.437 398.56 655.037 400.93 655.037 403.99C655.037 406.96 657.467 409.39 660.467 409.39C663.467 409.39 665.897 406.96 665.897 403.96C665.897 401.02 663.437 398.56 660.497 398.56ZM660.437 401.74C661.697 401.74 662.687 402.73 662.687 403.96C662.687 405.19 661.697 406.18 660.467 406.18C659.267 406.18 658.277 405.19 658.277 403.96C658.277 402.73 659.237 401.74 660.437 401.74ZM646.937 386.44C643.877 386.44 641.477 388.81 641.477 391.87C641.477 394.84 643.907 397.27 646.907 397.27C649.907 397.27 652.337 394.84 652.337 391.84C652.337 388.9 649.877 386.44 646.937 386.44ZM646.877 389.62C648.137 389.62 649.127 390.61 649.127 391.84C649.127 393.07 648.137 394.06 646.907 394.06C645.707 394.06 644.717 393.07 644.717 391.84C644.717 390.61 645.677 389.62 646.877 389.62Z" fill="white"/>
<path d="M1.746 157V144.148H11.394V157H9.792V145.57H3.366V157H1.746ZM13.184 147.352H14.876L16.964 152.842C17.084 153.166 17.192 153.478 17.288 153.778C17.396 154.078 17.492 154.372 17.576 154.66C17.66 154.936 17.726 155.206 17.774 155.47H17.846C17.918 155.17 18.032 154.78 18.188 154.3C18.344 153.808 18.506 153.316 18.674 152.824L20.636 147.352H22.346L18.188 158.332C17.96 158.932 17.69 159.454 17.378 159.898C17.078 160.354 16.706 160.702 16.262 160.942C15.83 161.194 15.302 161.32 14.678 161.32C14.39 161.32 14.138 161.302 13.922 161.266C13.706 161.242 13.52 161.212 13.364 161.176V159.916C13.496 159.94 13.652 159.964 13.832 159.988C14.024 160.012 14.222 160.024 14.426 160.024C14.798 160.024 15.116 159.952 15.38 159.808C15.656 159.676 15.89 159.478 16.082 159.214C16.274 158.962 16.436 158.662 16.568 158.314L17.072 157.036L13.184 147.352ZM30.8642 157H29.2622V148.666H26.4182C26.2982 150.19 26.1482 151.492 25.9682 152.572C25.7882 153.64 25.5602 154.51 25.2842 155.182C25.0082 155.854 24.6782 156.346 24.2942 156.658C23.9102 156.97 23.4602 157.126 22.9442 157.126C22.7882 157.126 22.6322 157.114 22.4762 157.09C22.3322 157.078 22.2122 157.048 22.1162 157V155.812C22.1882 155.836 22.2662 155.854 22.3502 155.866C22.4342 155.878 22.5182 155.884 22.6022 155.884C22.8662 155.884 23.1062 155.776 23.3222 155.56C23.5382 155.344 23.7302 155.014 23.8982 154.57C24.0782 154.126 24.2402 153.568 24.3842 152.896C24.5282 152.212 24.6542 151.408 24.7622 150.484C24.8702 149.56 24.9662 148.516 25.0502 147.352H30.8642V157ZM46.0693 157H44.4673V148.666H41.6233C41.5033 150.19 41.3533 151.492 41.1733 152.572C40.9933 153.64 40.7653 154.51 40.4893 155.182C40.2133 155.854 39.8833 156.346 39.4993 156.658C39.1153 156.97 38.6653 157.126 38.1493 157.126C37.9933 157.126 37.8373 157.114 37.6813 157.09C37.5373 157.078 37.4173 157.048 37.3213 157V155.812C37.3933 155.836 37.4713 155.854 37.5553 155.866C37.6393 155.878 37.7233 155.884 37.8073 155.884C38.0713 155.884 38.3113 155.776 38.5273 155.56C38.7433 155.344 38.9353 155.014 39.1033 154.57C39.2833 154.126 39.4453 153.568 39.5893 152.896C39.7333 152.212 39.8593 151.408 39.9673 150.484C40.0753 149.56 40.1713 148.516 40.2553 147.352H46.0693V157ZM50.6256 153.238C50.6256 153.346 50.6196 153.502 50.6076 153.706C50.6076 153.898 50.6016 154.108 50.5896 154.336C50.5776 154.552 50.5656 154.762 50.5536 154.966C50.5416 155.158 50.5296 155.314 50.5176 155.434L55.6836 147.352H57.6276V157H56.1516V151.312C56.1516 151.12 56.1516 150.868 56.1516 150.556C56.1636 150.244 56.1756 149.938 56.1876 149.638C56.1996 149.326 56.2116 149.092 56.2236 148.936L51.0936 157H49.1316V147.352H50.6256V153.238ZM66.404 147.352H68.132L64.01 151.996L68.474 157H66.638L62.282 152.104V157H60.698V147.352H62.282V152.032L66.404 147.352ZM77.9833 149.782C77.9833 150.382 77.8033 150.85 77.4433 151.186C77.0833 151.522 76.6213 151.75 76.0573 151.87V151.942C76.6573 152.026 77.1793 152.242 77.6233 152.59C78.0673 152.926 78.2893 153.454 78.2893 154.174C78.2893 154.582 78.2113 154.96 78.0553 155.308C77.9113 155.656 77.6833 155.956 77.3713 156.208C77.0593 156.46 76.6573 156.658 76.1653 156.802C75.6733 156.934 75.0793 157 74.3833 157H70.2253V147.352H74.3653C75.0493 147.352 75.6613 147.43 76.2013 147.586C76.7533 147.73 77.1853 147.982 77.4973 148.342C77.8213 148.69 77.9833 149.17 77.9833 149.782ZM76.6513 154.174C76.6513 153.622 76.4413 153.226 76.0213 152.986C75.6013 152.746 74.9833 152.626 74.1673 152.626H71.8093V155.722H74.2033C74.9953 155.722 75.6013 155.608 76.0213 155.38C76.4413 155.14 76.6513 154.738 76.6513 154.174ZM76.3813 149.98C76.3813 149.524 76.2133 149.194 75.8773 148.99C75.5533 148.774 75.0193 148.666 74.2753 148.666H71.8093V151.312H73.9873C74.7673 151.312 75.3613 151.204 75.7693 150.988C76.1773 150.772 76.3813 150.436 76.3813 149.98ZM82.0904 153.238C82.0904 153.346 82.0844 153.502 82.0724 153.706C82.0724 153.898 82.0664 154.108 82.0544 154.336C82.0424 154.552 82.0304 154.762 82.0184 154.966C82.0064 155.158 81.9944 155.314 81.9824 155.434L87.1484 147.352H89.0924V157H87.6164V151.312C87.6164 151.12 87.6164 150.868 87.6164 150.556C87.6284 150.244 87.6404 149.938 87.6524 149.638C87.6644 149.326 87.6764 149.092 87.6884 148.936L82.5584 157H80.5964V147.352H82.0904V153.238ZM99.3268 147.352V155.668H100.731V160.348H99.2008V157H92.4868V160.348H90.9748V155.668H91.7488C92.3008 154.9 92.7568 154.066 93.1168 153.166C93.4888 152.254 93.7648 151.306 93.9448 150.322C94.1368 149.326 94.2388 148.336 94.2508 147.352H99.3268ZM95.6548 148.594C95.6068 149.41 95.4808 150.256 95.2768 151.132C95.0728 151.996 94.8088 152.824 94.4848 153.616C94.1728 154.408 93.8068 155.092 93.3868 155.668H97.7968V148.594H95.6548ZM104.206 147.352V151.366H109.444V147.352H111.028V157H109.444V152.698H104.206V157H102.622V147.352H104.206ZM122.471 152.158C122.471 152.962 122.363 153.676 122.147 154.3C121.943 154.912 121.643 155.434 121.247 155.866C120.863 156.298 120.389 156.628 119.825 156.856C119.273 157.072 118.655 157.18 117.971 157.18C117.335 157.18 116.747 157.072 116.207 156.856C115.667 156.628 115.199 156.298 114.803 155.866C114.407 155.434 114.095 154.912 113.867 154.3C113.651 153.676 113.543 152.962 113.543 152.158C113.543 151.09 113.723 150.19 114.083 149.458C114.443 148.714 114.959 148.15 115.631 147.766C116.303 147.37 117.101 147.172 118.025 147.172C118.901 147.172 119.669 147.37 120.329 147.766C121.001 148.15 121.523 148.714 121.895 149.458C122.279 150.19 122.471 151.09 122.471 152.158ZM115.181 152.158C115.181 152.914 115.277 153.574 115.469 154.138C115.673 154.69 115.985 155.116 116.405 155.416C116.825 155.716 117.359 155.866 118.007 155.866C118.655 155.866 119.189 155.716 119.609 155.416C120.029 155.116 120.335 154.69 120.527 154.138C120.731 153.574 120.833 152.914 120.833 152.158C120.833 151.39 120.731 150.736 120.527 150.196C120.323 149.656 120.011 149.242 119.591 148.954C119.183 148.654 118.649 148.504 117.989 148.504C117.005 148.504 116.291 148.828 115.847 149.476C115.403 150.124 115.181 151.018 115.181 152.158ZM128.851 157.18C127.999 157.18 127.237 157.006 126.565 156.658C125.905 156.31 125.383 155.77 124.999 155.038C124.627 154.306 124.441 153.37 124.441 152.23C124.441 151.042 124.639 150.076 125.035 149.332C125.431 148.588 125.965 148.042 126.637 147.694C127.321 147.346 128.095 147.172 128.959 147.172C129.451 147.172 129.925 147.226 130.381 147.334C130.837 147.43 131.209 147.55 131.497 147.694L131.011 149.008C130.723 148.9 130.387 148.798 130.003 148.702C129.619 148.606 129.259 148.558 128.923 148.558C128.275 148.558 127.741 148.696 127.321 148.972C126.901 149.248 126.589 149.656 126.385 150.196C126.181 150.736 126.079 151.408 126.079 152.212C126.079 152.98 126.181 153.634 126.385 154.174C126.589 154.714 126.895 155.122 127.303 155.398C127.711 155.674 128.221 155.812 128.833 155.812C129.361 155.812 129.823 155.758 130.219 155.65C130.627 155.542 130.999 155.41 131.335 155.254V156.658C131.011 156.826 130.651 156.952 130.255 157.036C129.871 157.132 129.403 157.18 128.851 157.18ZM140.29 148.684H137.14V157H135.574V148.684H132.46V147.352H140.29V148.684ZM143.684 153.238C143.684 153.346 143.678 153.502 143.666 153.706C143.666 153.898 143.66 154.108 143.648 154.336C143.636 154.552 143.624 154.762 143.612 154.966C143.6 155.158 143.588 155.314 143.576 155.434L148.742 147.352H150.686V157H149.21V151.312C149.21 151.12 149.21 150.868 149.21 150.556C149.222 150.244 149.234 149.938 149.246 149.638C149.258 149.326 149.27 149.092 149.282 148.936L144.152 157H142.19V147.352H143.684V153.238ZM166.799 148.126C166.799 149.17 166.439 150.04 165.719 150.736C165.011 151.42 163.925 151.762 162.461 151.762H160.049V157H158.411V144.454H162.461C163.877 144.454 164.951 144.796 165.683 145.48C166.427 146.164 166.799 147.046 166.799 148.126ZM162.461 150.412C163.373 150.412 164.045 150.214 164.477 149.818C164.909 149.422 165.125 148.858 165.125 148.126C165.125 146.578 164.237 145.804 162.461 145.804H160.049V150.412H162.461ZM168.223 152.032C168.223 151.024 168.427 150.142 168.835 149.386C169.243 148.618 169.801 148.024 170.509 147.604C171.229 147.184 172.027 146.974 172.903 146.974C173.767 146.974 174.517 147.16 175.153 147.532C175.789 147.904 176.263 148.372 176.575 148.936V147.136H178.231V157H176.575V155.164C176.251 155.74 175.765 156.22 175.117 156.604C174.481 156.976 173.737 157.162 172.885 157.162C172.009 157.162 171.217 156.946 170.509 156.514C169.801 156.082 169.243 155.476 168.835 154.696C168.427 153.916 168.223 153.028 168.223 152.032ZM176.575 152.05C176.575 151.306 176.425 150.658 176.125 150.106C175.825 149.554 175.417 149.134 174.901 148.846C174.397 148.546 173.839 148.396 173.227 148.396C172.615 148.396 172.057 148.54 171.553 148.828C171.049 149.116 170.647 149.536 170.347 150.088C170.047 150.64 169.897 151.288 169.897 152.032C169.897 152.788 170.047 153.448 170.347 154.012C170.647 154.564 171.049 154.99 171.553 155.29C172.057 155.578 172.615 155.722 173.227 155.722C173.839 155.722 174.397 155.578 174.901 155.29C175.417 154.99 175.825 154.564 176.125 154.012C176.425 153.448 176.575 152.794 176.575 152.05ZM185.805 146.956C187.005 146.956 187.977 147.322 188.721 148.054C189.465 148.774 189.837 149.818 189.837 151.186V157H188.217V151.42C188.217 150.436 187.971 149.686 187.479 149.17C186.987 148.642 186.315 148.378 185.463 148.378C184.599 148.378 183.909 148.648 183.393 149.188C182.889 149.728 182.637 150.514 182.637 151.546V157H180.999V147.136H182.637V148.54C182.961 148.036 183.399 147.646 183.951 147.37C184.515 147.094 185.133 146.956 185.805 146.956ZM191.901 152.05C191.901 151.03 192.105 150.142 192.513 149.386C192.921 148.618 193.485 148.024 194.205 147.604C194.937 147.184 195.771 146.974 196.707 146.974C197.919 146.974 198.915 147.268 199.695 147.856C200.487 148.444 201.009 149.26 201.261 150.304H199.497C199.329 149.704 198.999 149.23 198.507 148.882C198.027 148.534 197.427 148.36 196.707 148.36C195.771 148.36 195.015 148.684 194.439 149.332C193.863 149.968 193.575 150.874 193.575 152.05C193.575 153.238 193.863 154.156 194.439 154.804C195.015 155.452 195.771 155.776 196.707 155.776C197.427 155.776 198.027 155.608 198.507 155.272C198.987 154.936 199.317 154.456 199.497 153.832H201.261C200.997 154.84 200.469 155.65 199.677 156.262C198.885 156.862 197.895 157.162 196.707 157.162C195.771 157.162 194.937 156.952 194.205 156.532C193.485 156.112 192.921 155.518 192.513 154.75C192.105 153.982 191.901 153.082 191.901 152.05ZM202.835 152.032C202.835 151.024 203.039 150.142 203.447 149.386C203.855 148.618 204.413 148.024 205.121 147.604C205.841 147.184 206.639 146.974 207.515 146.974C208.379 146.974 209.129 147.16 209.765 147.532C210.401 147.904 210.875 148.372 211.187 148.936V147.136H212.843V157H211.187V155.164C210.863 155.74 210.377 156.22 209.729 156.604C209.093 156.976 208.349 157.162 207.497 157.162C206.621 157.162 205.829 156.946 205.121 156.514C204.413 156.082 203.855 155.476 203.447 154.696C203.039 153.916 202.835 153.028 202.835 152.032ZM211.187 152.05C211.187 151.306 211.037 150.658 210.737 150.106C210.437 149.554 210.029 149.134 209.513 148.846C209.009 148.546 208.451 148.396 207.839 148.396C207.227 148.396 206.669 148.54 206.165 148.828C205.661 149.116 205.259 149.536 204.959 150.088C204.659 150.64 204.509 151.288 204.509 152.032C204.509 152.788 204.659 153.448 204.959 154.012C205.259 154.564 205.661 154.99 206.165 155.29C206.669 155.578 207.227 155.722 207.839 155.722C208.451 155.722 209.009 155.578 209.513 155.29C210.029 154.99 210.437 154.564 210.737 154.012C211.037 153.448 211.187 152.794 211.187 152.05ZM221.119 157L217.249 152.644V157H215.611V143.68H217.249V151.51L221.047 147.136H223.333L218.689 152.05L223.351 157H221.119ZM233.874 151.69C233.874 152.002 233.856 152.332 233.82 152.68H225.936C225.996 153.652 226.326 154.414 226.926 154.966C227.538 155.506 228.276 155.776 229.14 155.776C229.848 155.776 230.436 155.614 230.904 155.29C231.384 154.954 231.72 154.51 231.912 153.958H233.676C233.412 154.906 232.884 155.68 232.092 156.28C231.3 156.868 230.316 157.162 229.14 157.162C228.204 157.162 227.364 156.952 226.62 156.532C225.888 156.112 225.312 155.518 224.892 154.75C224.472 153.97 224.262 153.07 224.262 152.05C224.262 151.03 224.466 150.136 224.874 149.368C225.282 148.6 225.852 148.012 226.584 147.604C227.328 147.184 228.18 146.974 229.14 146.974C230.076 146.974 230.904 147.178 231.624 147.586C232.344 147.994 232.896 148.558 233.28 149.278C233.676 149.986 233.874 150.79 233.874 151.69ZM232.182 151.348C232.182 150.724 232.044 150.19 231.768 149.746C231.492 149.29 231.114 148.948 230.634 148.72C230.166 148.48 229.644 148.36 229.068 148.36C228.24 148.36 227.532 148.624 226.944 149.152C226.368 149.68 226.038 150.412 225.954 151.348H232.182ZM240.014 157.126C239.186 157.126 238.442 156.982 237.782 156.694C237.134 156.394 236.624 155.986 236.252 155.47C235.88 154.942 235.688 154.336 235.676 153.652H237.422C237.482 154.24 237.722 154.738 238.142 155.146C238.574 155.542 239.198 155.74 240.014 155.74C240.794 155.74 241.406 155.548 241.85 155.164C242.306 154.768 242.534 154.264 242.534 153.652C242.534 153.172 242.402 152.782 242.138 152.482C241.874 152.182 241.544 151.954 241.148 151.798C240.752 151.642 240.218 151.474 239.546 151.294C238.718 151.078 238.052 150.862 237.548 150.646C237.056 150.43 236.63 150.094 236.27 149.638C235.922 149.17 235.748 148.546 235.748 147.766C235.748 147.082 235.922 146.476 236.27 145.948C236.618 145.42 237.104 145.012 237.728 144.724C238.364 144.436 239.09 144.292 239.906 144.292C241.082 144.292 242.042 144.586 242.786 145.174C243.542 145.762 243.968 146.542 244.064 147.514H242.264C242.204 147.034 241.952 146.614 241.508 146.254C241.064 145.882 240.476 145.696 239.744 145.696C239.06 145.696 238.502 145.876 238.07 146.236C237.638 146.584 237.422 147.076 237.422 147.712C237.422 148.168 237.548 148.54 237.8 148.828C238.064 149.116 238.382 149.338 238.754 149.494C239.138 149.638 239.672 149.806 240.356 149.998C241.184 150.226 241.85 150.454 242.354 150.682C242.858 150.898 243.29 151.24 243.65 151.708C244.01 152.164 244.19 152.788 244.19 153.58C244.19 154.192 244.028 154.768 243.704 155.308C243.38 155.848 242.9 156.286 242.264 156.622C241.628 156.958 240.878 157.126 240.014 157.126ZM259.741 147.136L256.663 157H254.971L252.595 149.17L250.219 157H248.527L245.431 147.136H247.105L249.373 155.416L251.821 147.136H253.495L255.889 155.434L258.121 147.136H259.741ZM260.754 152.032C260.754 151.024 260.958 150.142 261.366 149.386C261.774 148.618 262.332 148.024 263.04 147.604C263.76 147.184 264.558 146.974 265.434 146.974C266.298 146.974 267.048 147.16 267.684 147.532C268.32 147.904 268.794 148.372 269.106 148.936V147.136H270.762V157H269.106V155.164C268.782 155.74 268.296 156.22 267.648 156.604C267.012 156.976 266.268 157.162 265.416 157.162C264.54 157.162 263.748 156.946 263.04 156.514C262.332 156.082 261.774 155.476 261.366 154.696C260.958 153.916 260.754 153.028 260.754 152.032ZM269.106 152.05C269.106 151.306 268.956 150.658 268.656 150.106C268.356 149.554 267.948 149.134 267.432 148.846C266.928 148.546 266.37 148.396 265.758 148.396C265.146 148.396 264.588 148.54 264.084 148.828C263.58 149.116 263.178 149.536 262.878 150.088C262.578 150.64 262.428 151.288 262.428 152.032C262.428 152.788 262.578 153.448 262.878 154.012C263.178 154.564 263.58 154.99 264.084 155.29C264.588 155.578 265.146 155.722 265.758 155.722C266.37 155.722 266.928 155.578 267.432 155.29C267.948 154.99 268.356 154.564 268.656 154.012C268.956 153.448 269.106 152.794 269.106 152.05ZM275.169 148.954C275.493 148.39 275.973 147.922 276.609 147.55C277.257 147.166 278.007 146.974 278.859 146.974C279.735 146.974 280.527 147.184 281.235 147.604C281.955 148.024 282.519 148.618 282.927 149.386C283.335 150.142 283.539 151.024 283.539 152.032C283.539 153.028 283.335 153.916 282.927 154.696C282.519 155.476 281.955 156.082 281.235 156.514C280.527 156.946 279.735 157.162 278.859 157.162C278.019 157.162 277.275 156.976 276.627 156.604C275.991 156.22 275.505 155.746 275.169 155.182V161.68H273.531V147.136H275.169V148.954ZM281.865 152.032C281.865 151.288 281.715 150.64 281.415 150.088C281.115 149.536 280.707 149.116 280.191 148.828C279.687 148.54 279.129 148.396 278.517 148.396C277.917 148.396 277.359 148.546 276.843 148.846C276.339 149.134 275.931 149.56 275.619 150.124C275.319 150.676 275.169 151.318 275.169 152.05C275.169 152.794 275.319 153.448 275.619 154.012C275.931 154.564 276.339 154.99 276.843 155.29C277.359 155.578 277.917 155.722 278.517 155.722C279.129 155.722 279.687 155.578 280.191 155.29C280.707 154.99 281.115 154.564 281.415 154.012C281.715 153.448 281.865 152.788 281.865 152.032Z" fill="white"/>
<path d="M699.028 92.968V94.552C700.42 94.576 701.518 94.804 702.322 95.236C703.126 95.668 703.696 96.244 704.032 96.964C704.368 97.672 704.536 98.464 704.536 99.34C704.536 99.916 704.446 100.492 704.266 101.068C704.098 101.632 703.804 102.148 703.384 102.616C702.964 103.072 702.4 103.444 701.692 103.732C700.984 104.02 700.096 104.176 699.028 104.2V106.18H697.426V104.2C696.334 104.176 695.428 104.02 694.708 103.732C694 103.432 693.442 103.048 693.034 102.58C692.626 102.1 692.338 101.578 692.17 101.014C692.002 100.45 691.918 99.892 691.918 99.34C691.918 98.704 692.008 98.104 692.188 97.54C692.38 96.964 692.686 96.46 693.106 96.028C693.538 95.584 694.108 95.23 694.816 94.966C695.524 94.702 696.394 94.564 697.426 94.552V92.968H699.028ZM697.426 95.92C696.466 95.944 695.698 96.1 695.122 96.388C694.558 96.676 694.156 97.072 693.916 97.576C693.676 98.068 693.556 98.65 693.556 99.322C693.556 100.03 693.688 100.648 693.952 101.176C694.228 101.692 694.648 102.094 695.212 102.382C695.788 102.67 696.526 102.832 697.426 102.868V95.92ZM699.028 102.868C699.952 102.832 700.696 102.664 701.26 102.364C701.836 102.064 702.25 101.656 702.502 101.14C702.766 100.612 702.898 100.006 702.898 99.322C702.898 98.638 702.778 98.05 702.538 97.558C702.298 97.054 701.896 96.664 701.332 96.388C700.768 96.1 700 95.944 699.028 95.92V102.868ZM715.385 101.158C715.385 101.962 715.277 102.676 715.061 103.3C714.857 103.912 714.557 104.434 714.161 104.866C713.777 105.298 713.303 105.628 712.739 105.856C712.187 106.072 711.569 106.18 710.885 106.18C710.249 106.18 709.661 106.072 709.121 105.856C708.581 105.628 708.113 105.298 707.717 104.866C707.321 104.434 707.009 103.912 706.781 103.3C706.565 102.676 706.457 101.962 706.457 101.158C706.457 100.09 706.637 99.19 706.997 98.458C707.357 97.714 707.873 97.15 708.545 96.766C709.217 96.37 710.015 96.172 710.939 96.172C711.815 96.172 712.583 96.37 713.243 96.766C713.915 97.15 714.437 97.714 714.809 98.458C715.193 99.19 715.385 100.09 715.385 101.158ZM708.095 101.158C708.095 101.914 708.191 102.574 708.383 103.138C708.587 103.69 708.899 104.116 709.319 104.416C709.739 104.716 710.273 104.866 710.921 104.866C711.569 104.866 712.103 104.716 712.523 104.416C712.943 104.116 713.249 103.69 713.441 103.138C713.645 102.574 713.747 101.914 713.747 101.158C713.747 100.39 713.645 99.736 713.441 99.196C713.237 98.656 712.925 98.242 712.505 97.954C712.097 97.654 711.563 97.504 710.903 97.504C709.919 97.504 709.205 97.828 708.761 98.476C708.317 99.124 708.095 100.018 708.095 101.158ZM719.479 96.352V100.366H724.717V96.352H726.301V106H724.717V101.698H719.479V106H717.895V96.352H719.479ZM736.52 96.352V104.668H737.924V109.348H736.394V106H729.68V109.348H728.168V104.668H728.942C729.494 103.9 729.95 103.066 730.31 102.166C730.682 101.254 730.958 100.306 731.138 99.322C731.33 98.326 731.432 97.336 731.444 96.352H736.52ZM732.848 97.594C732.8 98.41 732.674 99.256 732.47 100.132C732.266 100.996 732.002 101.824 731.678 102.616C731.366 103.408 731 104.092 730.58 104.668H734.99V97.594H732.848ZM753.488 93.148V104.56H755.126V109.384H753.578V106H744.74V109.384H743.192V104.56H744.182C744.614 103.816 745.022 102.982 745.406 102.058C745.802 101.134 746.15 100.168 746.45 99.16C746.75 98.14 746.996 97.12 747.188 96.1C747.38 95.08 747.5 94.096 747.548 93.148H753.488ZM748.97 94.606C748.922 95.302 748.802 96.088 748.61 96.964C748.43 97.84 748.196 98.74 747.908 99.664C747.632 100.576 747.32 101.458 746.972 102.31C746.636 103.162 746.276 103.912 745.892 104.56H751.886V94.606H748.97ZM768.633 96.352L764.655 101.032L768.975 106H767.175L762.999 101.104V106H761.523V101.104L757.347 106H755.547L759.867 101.032L755.889 96.352H757.617L761.523 101.032V96.352H762.999V101.032L766.923 96.352H768.633ZM773.934 96.172C774.762 96.172 775.47 96.352 776.058 96.712C776.658 97.072 777.114 97.582 777.426 98.242C777.75 98.89 777.912 99.652 777.912 100.528V101.482H771.306C771.33 102.574 771.606 103.408 772.134 103.984C772.674 104.548 773.424 104.83 774.384 104.83C774.996 104.83 775.536 104.776 776.004 104.668C776.484 104.548 776.976 104.38 777.48 104.164V105.55C776.988 105.766 776.502 105.922 776.022 106.018C775.542 106.126 774.972 106.18 774.312 106.18C773.4 106.18 772.59 105.994 771.882 105.622C771.186 105.25 770.64 104.698 770.244 103.966C769.86 103.222 769.668 102.316 769.668 101.248C769.668 100.192 769.842 99.286 770.19 98.53C770.55 97.774 771.048 97.192 771.684 96.784C772.332 96.376 773.082 96.172 773.934 96.172ZM773.916 97.468C773.16 97.468 772.56 97.714 772.116 98.206C771.684 98.686 771.426 99.358 771.342 100.222H776.256C776.256 99.67 776.172 99.19 776.004 98.782C775.836 98.374 775.578 98.056 775.23 97.828C774.894 97.588 774.456 97.468 773.916 97.468ZM786.074 96.352H787.802L783.68 100.996L788.144 106H786.308L781.952 101.104V106H780.368V96.352H781.952V101.032L786.074 96.352ZM798.049 96.352V106H796.465V97.702H791.479V106H789.895V96.352H798.049ZM809.516 101.158C809.516 101.962 809.408 102.676 809.192 103.3C808.988 103.912 808.688 104.434 808.292 104.866C807.908 105.298 807.434 105.628 806.87 105.856C806.318 106.072 805.7 106.18 805.016 106.18C804.38 106.18 803.792 106.072 803.252 105.856C802.712 105.628 802.244 105.298 801.848 104.866C801.452 104.434 801.14 103.912 800.912 103.3C800.696 102.676 800.588 101.962 800.588 101.158C800.588 100.09 800.768 99.19 801.128 98.458C801.488 97.714 802.004 97.15 802.676 96.766C803.348 96.37 804.146 96.172 805.07 96.172C805.946 96.172 806.714 96.37 807.374 96.766C808.046 97.15 808.568 97.714 808.94 98.458C809.324 99.19 809.516 100.09 809.516 101.158ZM802.226 101.158C802.226 101.914 802.322 102.574 802.514 103.138C802.718 103.69 803.03 104.116 803.45 104.416C803.87 104.716 804.404 104.866 805.052 104.866C805.7 104.866 806.234 104.716 806.654 104.416C807.074 104.116 807.38 103.69 807.572 103.138C807.776 102.574 807.878 101.914 807.878 101.158C807.878 100.39 807.776 99.736 807.572 99.196C807.368 98.656 807.056 98.242 806.636 97.954C806.228 97.654 805.694 97.504 805.034 97.504C804.05 97.504 803.336 97.828 802.892 98.476C802.448 99.124 802.226 100.018 802.226 101.158ZM818.51 97.684H815.36V106H813.794V97.684H810.68V96.352H818.51V97.684ZM824.065 96.19C825.241 96.19 826.111 96.448 826.675 96.964C827.239 97.48 827.521 98.302 827.521 99.43V106H826.369L826.063 104.632H825.991C825.715 104.98 825.427 105.274 825.127 105.514C824.839 105.742 824.503 105.91 824.119 106.018C823.747 106.126 823.291 106.18 822.751 106.18C822.175 106.18 821.653 106.078 821.185 105.874C820.729 105.67 820.369 105.358 820.105 104.938C819.841 104.506 819.709 103.966 819.709 103.318C819.709 102.358 820.087 101.62 820.843 101.104C821.599 100.576 822.763 100.288 824.335 100.24L825.973 100.186V99.61C825.973 98.806 825.799 98.248 825.451 97.936C825.103 97.624 824.611 97.468 823.975 97.468C823.471 97.468 822.991 97.546 822.535 97.702C822.079 97.846 821.653 98.014 821.257 98.206L820.771 97.018C821.191 96.79 821.689 96.598 822.265 96.442C822.841 96.274 823.441 96.19 824.065 96.19ZM824.533 101.338C823.333 101.386 822.499 101.578 822.031 101.914C821.575 102.25 821.347 102.724 821.347 103.336C821.347 103.876 821.509 104.272 821.833 104.524C822.169 104.776 822.595 104.902 823.111 104.902C823.927 104.902 824.605 104.68 825.145 104.236C825.685 103.78 825.955 103.084 825.955 102.148V101.284L824.533 101.338Z" fill="white"/>
<path d="M693.416 379L689.186 367.732H689.114C689.138 367.972 689.156 368.278 689.168 368.65C689.192 369.022 689.21 369.43 689.222 369.874C689.234 370.306 689.24 370.75 689.24 371.206V379H687.746V366.148H690.14L694.1 376.678H694.172L698.204 366.148H700.58V379H698.978V371.098C698.978 370.678 698.984 370.264 698.996 369.856C699.008 369.436 699.026 369.046 699.05 368.686C699.074 368.314 699.092 368.002 699.104 367.75H699.032L694.748 379H693.416ZM707.514 369.19C708.69 369.19 709.56 369.448 710.124 369.964C710.688 370.48 710.97 371.302 710.97 372.43V379H709.818L709.512 377.632H709.44C709.164 377.98 708.876 378.274 708.576 378.514C708.288 378.742 707.952 378.91 707.568 379.018C707.196 379.126 706.74 379.18 706.2 379.18C705.624 379.18 705.102 379.078 704.634 378.874C704.178 378.67 703.818 378.358 703.554 377.938C703.29 377.506 703.158 376.966 703.158 376.318C703.158 375.358 703.536 374.62 704.292 374.104C705.048 373.576 706.212 373.288 707.784 373.24L709.422 373.186V372.61C709.422 371.806 709.248 371.248 708.9 370.936C708.552 370.624 708.06 370.468 707.424 370.468C706.92 370.468 706.44 370.546 705.984 370.702C705.528 370.846 705.102 371.014 704.706 371.206L704.22 370.018C704.64 369.79 705.138 369.598 705.714 369.442C706.29 369.274 706.89 369.19 707.514 369.19ZM707.982 374.338C706.782 374.386 705.948 374.578 705.48 374.914C705.024 375.25 704.796 375.724 704.796 376.336C704.796 376.876 704.958 377.272 705.282 377.524C705.618 377.776 706.044 377.902 706.56 377.902C707.376 377.902 708.054 377.68 708.594 377.236C709.134 376.78 709.404 376.084 709.404 375.148V374.284L707.982 374.338ZM718.54 369.172C719.728 369.172 720.682 369.586 721.402 370.414C722.134 371.242 722.5 372.49 722.5 374.158C722.5 375.25 722.332 376.174 721.996 376.93C721.672 377.674 721.21 378.238 720.61 378.622C720.022 378.994 719.326 379.18 718.522 379.18C718.03 379.18 717.592 379.114 717.208 378.982C716.824 378.85 716.494 378.682 716.218 378.478C715.954 378.262 715.726 378.028 715.534 377.776H715.426C715.45 377.98 715.474 378.238 715.498 378.55C715.522 378.862 715.534 379.132 715.534 379.36V383.32H713.95V369.352H715.246L715.462 370.666H715.534C715.726 370.39 715.954 370.138 716.218 369.91C716.494 369.682 716.818 369.502 717.19 369.37C717.574 369.238 718.024 369.172 718.54 369.172ZM718.252 370.504C717.604 370.504 717.082 370.63 716.686 370.882C716.29 371.122 716.002 371.488 715.822 371.98C715.642 372.472 715.546 373.096 715.534 373.852V374.158C715.534 374.95 715.618 375.622 715.786 376.174C715.954 376.726 716.236 377.146 716.632 377.434C717.04 377.722 717.592 377.866 718.288 377.866C718.876 377.866 719.356 377.704 719.728 377.38C720.112 377.056 720.394 376.618 720.574 376.066C720.766 375.502 720.862 374.86 720.862 374.14C720.862 373.036 720.646 372.154 720.214 371.494C719.794 370.834 719.14 370.504 718.252 370.504ZM730.73 369.352H732.458L728.336 373.996L732.8 379H730.964L726.608 374.104V379H725.024V369.352H726.608V374.032L730.73 369.352ZM737.926 369.172C738.754 369.172 739.462 369.352 740.05 369.712C740.65 370.072 741.106 370.582 741.418 371.242C741.742 371.89 741.904 372.652 741.904 373.528V374.482H735.298C735.322 375.574 735.598 376.408 736.126 376.984C736.666 377.548 737.416 377.83 738.376 377.83C738.988 377.83 739.528 377.776 739.996 377.668C740.476 377.548 740.968 377.38 741.472 377.164V378.55C740.98 378.766 740.494 378.922 740.014 379.018C739.534 379.126 738.964 379.18 738.304 379.18C737.392 379.18 736.582 378.994 735.874 378.622C735.178 378.25 734.632 377.698 734.236 376.966C733.852 376.222 733.66 375.316 733.66 374.248C733.66 373.192 733.834 372.286 734.182 371.53C734.542 370.774 735.04 370.192 735.676 369.784C736.324 369.376 737.074 369.172 737.926 369.172ZM737.908 370.468C737.152 370.468 736.552 370.714 736.108 371.206C735.676 371.686 735.418 372.358 735.334 373.222H740.248C740.248 372.67 740.164 372.19 739.996 371.782C739.828 371.374 739.57 371.056 739.222 370.828C738.886 370.588 738.448 370.468 737.908 370.468ZM751.02 370.684H747.87V379H746.304V370.684H743.19V369.352H751.02V370.684ZM754.415 375.238C754.415 375.346 754.409 375.502 754.397 375.706C754.397 375.898 754.391 376.108 754.379 376.336C754.367 376.552 754.355 376.762 754.343 376.966C754.331 377.158 754.319 377.314 754.307 377.434L759.473 369.352H761.417V379H759.941V373.312C759.941 373.12 759.941 372.868 759.941 372.556C759.953 372.244 759.965 371.938 759.977 371.638C759.989 371.326 760.001 371.092 760.013 370.936L754.883 379H752.921V369.352H754.415V375.238ZM766.071 369.352V373.366H771.309V369.352H772.893V379H771.309V374.698H766.071V379H764.487V369.352H766.071ZM781.834 369.352V370.684H777.532V379H775.948V369.352H781.834Z" fill="white"/>
<defs>
<linearGradient id="paint0_linear_2938_404" x1="542.019" y1="426.28" x2="350.736" y2="151.691" gradientUnits="userSpaceOnUse">
<stop stop-color="#FF1791"/>
<stop offset="1" stop-color="#F77FBD"/>
</linearGradient>
<linearGradient id="paint1_linear_2938_404" x1="566.409" y1="467.431" x2="421.698" y2="72.9283" gradientUnits="userSpaceOnUse">
<stop stop-color="#FF72BC" stop-opacity="0.5"/>
<stop offset="1" stop-color="#FF81C3" stop-opacity="0.51"/>
</linearGradient>
<linearGradient id="paint2_linear_2938_404" x1="512.544" y1="250.367" x2="660.936" y2="125.961" gradientUnits="userSpaceOnUse">
<stop stop-color="#2C27FF"/>
<stop offset="1" stop-color="#8E58FF"/>
</linearGradient>
<linearGradient id="paint3_linear_2938_404" x1="690.77" y1="297.083" x2="525.259" y2="84.6624" gradientUnits="userSpaceOnUse">
<stop stop-color="#FF81BD"/>
<stop offset="1" stop-color="#FF9FCD" stop-opacity="0"/>
</linearGradient>
<linearGradient id="paint4_linear_2938_404" x1="639.765" y1="360.821" x2="510.988" y2="251.145" gradientUnits="userSpaceOnUse">
<stop stop-color="#8BFF55"/>
<stop offset="1" stop-color="#449B00" stop-opacity="0"/>
</linearGradient>
<linearGradient id="paint5_linear_2938_404" x1="639.765" y1="360.821" x2="510.988" y2="251.145" gradientUnits="userSpaceOnUse">
<stop stop-color="#FF6CBF"/>
<stop offset="1" stop-color="#A7206C" stop-opacity="0.19"/>
</linearGradient>
</defs>
</svg>
