<svg width="328" height="440" viewBox="0 0 328 440" fill="none" xmlns="http://www.w3.org/2000/svg">
<path d="M147.178 151.152L224.641 220.889C186.138 263.657 120.244 267.105 77.4625 228.59C34.6812 190.075 31.2127 124.182 69.7156 81.4144C92.0319 56.6261 124.87 44.0227 158.048 47.5123L147.178 151.152Z" fill="url(#paint0_linear_604_696)" stroke="url(#paint1_linear_604_696)"/>
<path d="M157.126 145.447L167.496 47.4017C221.627 53.0475 260.867 101.521 255.14 155.669C253.393 172.184 247.505 187.996 238.021 201.639L157.126 145.447Z" fill="url(#paint2_linear_604_696)" stroke="url(#paint3_linear_604_696)"/>
<path d="M153.565 151.44L235.821 206.841C233.819 209.997 231.602 213.003 229.183 215.843L153.565 151.44Z" fill="url(#paint4_linear_604_696)" stroke="url(#paint5_linear_604_696)"/>
<path d="M70.8 158.22L66.94 164.02C65.86 165.62 65.48 166.72 65.48 168.16C65.48 171.1 67.68 173.26 70.66 173.26C73.62 173.26 75.72 171.06 75.72 167.96C75.72 165.24 74 163.28 71.64 163.28C71.16 163.28 70.9 163.32 70.44 163.48L73.98 158.22H70.8ZM70.54 165.6C72.04 165.6 73.06 166.68 73.06 168.22C73.06 169.76 72.08 170.82 70.68 170.82C69.18 170.82 68.14 169.74 68.14 168.22C68.14 166.7 69.14 165.6 70.54 165.6ZM77.2914 165.94L79.6514 166.58C80.3114 165.76 80.8714 165.46 81.7114 165.46C83.0914 165.46 84.1114 166.6 84.1114 168.1C84.1114 169.7 83.1114 170.82 81.6714 170.82C80.3914 170.82 79.5514 170.02 79.2714 168.58H76.6114C76.7514 171.24 78.9914 173.26 81.7514 173.26C84.6314 173.26 86.7714 171.04 86.7714 168.06C86.7714 165.16 84.7914 163.02 82.0914 163.02C81.4114 163.02 80.9514 163.12 80.1914 163.44L80.6714 160.72H85.3514V158.22H78.6714L77.2914 165.94ZM97.9828 158.22L91.8828 173H93.9228L100.043 158.22H97.9828ZM100.523 166.04C98.4828 166.04 96.8828 167.62 96.8828 169.66C96.8828 171.64 98.5028 173.26 100.503 173.26C102.503 173.26 104.123 171.64 104.123 169.64C104.123 167.68 102.483 166.04 100.523 166.04ZM100.483 168.16C101.323 168.16 101.983 168.82 101.983 169.64C101.983 170.46 101.323 171.12 100.503 171.12C99.7028 171.12 99.0428 170.46 99.0428 169.64C99.0428 168.82 99.6828 168.16 100.483 168.16ZM91.4828 157.96C89.4428 157.96 87.8428 159.54 87.8428 161.58C87.8428 163.56 89.4628 165.18 91.4628 165.18C93.4628 165.18 95.0828 163.56 95.0828 161.56C95.0828 159.6 93.4428 157.96 91.4828 157.96ZM91.4428 160.08C92.2828 160.08 92.9428 160.74 92.9428 161.56C92.9428 162.38 92.2828 163.04 91.4628 163.04C90.6628 163.04 90.0028 162.38 90.0028 161.56C90.0028 160.74 90.6428 160.08 91.4428 160.08Z" fill="white"/>
<path d="M195.5 116.88H195.94C197.72 116.88 198.84 117.86 198.84 119.36C198.84 120.78 197.86 121.82 196.52 121.82C195.22 121.82 194.3 120.92 194.12 119.52H191.44C191.6 122.3 193.7 124.26 196.54 124.26C199.4 124.26 201.5 122.16 201.5 119.3C201.5 117.44 200.74 116.18 199.2 115.48C200.06 114.86 200.44 114.08 200.44 112.94C200.44 110.66 198.74 108.96 196.46 108.96C195.34 108.96 194.3 109.38 193.56 110.16C192.9 110.84 192.64 111.5 192.54 112.74H195.24C195.36 111.82 195.74 111.4 196.48 111.4C197.24 111.4 197.78 111.98 197.78 112.8C197.78 113.42 197.5 113.86 196.96 114.1C196.62 114.24 196.26 114.3 195.5 114.32V116.88ZM206.691 116.88H207.131C208.911 116.88 210.031 117.86 210.031 119.36C210.031 120.78 209.051 121.82 207.711 121.82C206.411 121.82 205.491 120.92 205.311 119.52H202.631C202.791 122.3 204.891 124.26 207.731 124.26C210.591 124.26 212.691 122.16 212.691 119.3C212.691 117.44 211.931 116.18 210.391 115.48C211.251 114.86 211.631 114.08 211.631 112.94C211.631 110.66 209.931 108.96 207.651 108.96C206.531 108.96 205.491 109.38 204.751 110.16C204.091 110.84 203.831 111.5 203.731 112.74H206.431C206.551 111.82 206.931 111.4 207.671 111.4C208.431 111.4 208.971 111.98 208.971 112.8C208.971 113.42 208.691 113.86 208.151 114.1C207.811 114.24 207.451 114.3 206.691 114.32V116.88ZM223.983 109.22L217.883 124H219.923L226.043 109.22H223.983ZM226.523 117.04C224.483 117.04 222.883 118.62 222.883 120.66C222.883 122.64 224.503 124.26 226.503 124.26C228.503 124.26 230.123 122.64 230.123 120.64C230.123 118.68 228.483 117.04 226.523 117.04ZM226.483 119.16C227.323 119.16 227.983 119.82 227.983 120.64C227.983 121.46 227.323 122.12 226.503 122.12C225.703 122.12 225.043 121.46 225.043 120.64C225.043 119.82 225.683 119.16 226.483 119.16ZM217.483 108.96C215.443 108.96 213.843 110.54 213.843 112.58C213.843 114.56 215.463 116.18 217.463 116.18C219.463 116.18 221.083 114.56 221.083 112.56C221.083 110.6 219.443 108.96 217.483 108.96ZM217.443 111.08C218.283 111.08 218.943 111.74 218.943 112.56C218.943 113.38 218.283 114.04 217.463 114.04C216.663 114.04 216.003 113.38 216.003 112.56C216.003 111.74 216.643 111.08 217.443 111.08Z" fill="white"/>
<path d="M240.82 232H250.38V229.5H244.56L247.58 226.76C249.74 224.8 250.44 223.58 250.44 221.76C250.44 219.02 248.38 216.96 245.62 216.96C243.94 216.96 242.42 217.74 241.56 219.02C240.96 219.92 240.72 220.84 240.72 222.32H243.34C243.34 220.56 244.26 219.4 245.64 219.4C246.86 219.4 247.78 220.4 247.78 221.72C247.78 222.68 247.3 223.54 246.08 224.68L240.82 229.66V232ZM261.791 217.22L255.691 232H257.731L263.851 217.22H261.791ZM264.331 225.04C262.291 225.04 260.691 226.62 260.691 228.66C260.691 230.64 262.311 232.26 264.311 232.26C266.311 232.26 267.931 230.64 267.931 228.64C267.931 226.68 266.291 225.04 264.331 225.04ZM264.291 227.16C265.131 227.16 265.791 227.82 265.791 228.64C265.791 229.46 265.131 230.12 264.311 230.12C263.511 230.12 262.851 229.46 262.851 228.64C262.851 227.82 263.491 227.16 264.291 227.16ZM255.291 216.96C253.251 216.96 251.651 218.54 251.651 220.58C251.651 222.56 253.271 224.18 255.271 224.18C257.271 224.18 258.891 222.56 258.891 220.56C258.891 218.6 257.251 216.96 255.291 216.96ZM255.251 219.08C256.091 219.08 256.751 219.74 256.751 220.56C256.751 221.38 256.091 222.04 255.271 222.04C254.471 222.04 253.811 221.38 253.811 220.56C253.811 219.74 254.451 219.08 255.251 219.08Z" fill="white"/>
<path d="M137.552 317V305.576H146.128V317H144.704V306.84H138.992V317H137.552ZM147.719 308.424H149.223L151.079 313.304C151.186 313.592 151.282 313.869 151.367 314.136C151.463 314.403 151.548 314.664 151.623 314.92C151.698 315.165 151.756 315.405 151.799 315.64H151.863C151.927 315.373 152.028 315.027 152.167 314.6C152.306 314.163 152.45 313.725 152.599 313.288L154.343 308.424H155.863L152.167 318.184C151.964 318.717 151.724 319.181 151.447 319.576C151.18 319.981 150.85 320.291 150.455 320.504C150.071 320.728 149.602 320.84 149.047 320.84C148.791 320.84 148.567 320.824 148.375 320.792C148.183 320.771 148.018 320.744 147.879 320.712V319.592C147.996 319.613 148.135 319.635 148.295 319.656C148.466 319.677 148.642 319.688 148.823 319.688C149.154 319.688 149.436 319.624 149.671 319.496C149.916 319.379 150.124 319.203 150.295 318.968C150.466 318.744 150.61 318.477 150.727 318.168L151.175 317.032L147.719 308.424ZM163.435 317H162.011V309.592H159.483C159.376 310.947 159.243 312.104 159.083 313.064C158.923 314.013 158.72 314.787 158.475 315.384C158.23 315.981 157.936 316.419 157.595 316.696C157.254 316.973 156.854 317.112 156.395 317.112C156.256 317.112 156.118 317.101 155.979 317.08C155.851 317.069 155.744 317.043 155.659 317V315.944C155.723 315.965 155.792 315.981 155.867 315.992C155.942 316.003 156.016 316.008 156.091 316.008C156.326 316.008 156.539 315.912 156.731 315.72C156.923 315.528 157.094 315.235 157.243 314.84C157.403 314.445 157.547 313.949 157.675 313.352C157.803 312.744 157.915 312.029 158.011 311.208C158.107 310.387 158.192 309.459 158.267 308.424H163.435V317ZM176.951 317H175.527V309.592H172.999C172.892 310.947 172.759 312.104 172.599 313.064C172.439 314.013 172.236 314.787 171.991 315.384C171.745 315.981 171.452 316.419 171.111 316.696C170.769 316.973 170.369 317.112 169.911 317.112C169.772 317.112 169.633 317.101 169.495 317.08C169.367 317.069 169.26 317.043 169.175 317V315.944C169.239 315.965 169.308 315.981 169.383 315.992C169.457 316.003 169.532 316.008 169.607 316.008C169.841 316.008 170.055 315.912 170.247 315.72C170.439 315.528 170.609 315.235 170.759 314.84C170.919 314.445 171.063 313.949 171.191 313.352C171.319 312.744 171.431 312.029 171.527 311.208C171.623 310.387 171.708 309.459 171.783 308.424H176.951V317ZM181.001 313.656C181.001 313.752 180.995 313.891 180.985 314.072C180.985 314.243 180.979 314.429 180.969 314.632C180.958 314.824 180.947 315.011 180.937 315.192C180.926 315.363 180.915 315.501 180.905 315.608L185.497 308.424H187.225V317H185.913V311.944C185.913 311.773 185.913 311.549 185.913 311.272C185.923 310.995 185.934 310.723 185.945 310.456C185.955 310.179 185.966 309.971 185.977 309.832L181.417 317H179.673V308.424H181.001V313.656ZM195.026 308.424H196.562L192.898 312.552L196.866 317H195.234L191.362 312.648V317H189.954V308.424H191.362V312.584L195.026 308.424ZM205.319 310.584C205.319 311.117 205.159 311.533 204.839 311.832C204.519 312.131 204.108 312.333 203.607 312.44V312.504C204.14 312.579 204.604 312.771 204.999 313.08C205.393 313.379 205.591 313.848 205.591 314.488C205.591 314.851 205.521 315.187 205.383 315.496C205.255 315.805 205.052 316.072 204.775 316.296C204.497 316.52 204.14 316.696 203.703 316.824C203.265 316.941 202.737 317 202.119 317H198.423V308.424H202.103C202.711 308.424 203.255 308.493 203.735 308.632C204.225 308.76 204.609 308.984 204.887 309.304C205.175 309.613 205.319 310.04 205.319 310.584ZM204.135 314.488C204.135 313.997 203.948 313.645 203.575 313.432C203.201 313.219 202.652 313.112 201.927 313.112H199.831V315.864H201.959C202.663 315.864 203.201 315.763 203.575 315.56C203.948 315.347 204.135 314.989 204.135 314.488ZM203.895 310.76C203.895 310.355 203.745 310.061 203.447 309.88C203.159 309.688 202.684 309.592 202.023 309.592H199.831V311.944H201.766C202.46 311.944 202.988 311.848 203.351 311.656C203.713 311.464 203.895 311.165 203.895 310.76ZM208.969 313.656C208.969 313.752 208.964 313.891 208.953 314.072C208.953 314.243 208.948 314.429 208.937 314.632C208.927 314.824 208.916 315.011 208.905 315.192C208.895 315.363 208.884 315.501 208.873 315.608L213.465 308.424H215.193V317H213.881V311.944C213.881 311.773 213.881 311.549 213.881 311.272C213.892 310.995 213.903 310.723 213.913 310.456C213.924 310.179 213.935 309.971 213.945 309.832L209.385 317H207.641V308.424H208.969V313.656ZM224.291 308.424V315.816H225.539V319.976H224.179V317H218.211V319.976H216.867V315.816H217.555C218.045 315.133 218.451 314.392 218.771 313.592C219.101 312.781 219.347 311.939 219.507 311.064C219.677 310.179 219.768 309.299 219.779 308.424H224.291ZM221.027 309.528C220.984 310.253 220.872 311.005 220.691 311.784C220.509 312.552 220.275 313.288 219.987 313.992C219.709 314.696 219.384 315.304 219.011 315.816H222.931V309.528H221.027ZM228.627 308.424V311.992H233.283V308.424H234.691V317H233.283V313.176H228.627V317H227.219V308.424H228.627ZM244.863 312.696C244.863 313.411 244.767 314.045 244.575 314.6C244.394 315.144 244.127 315.608 243.775 315.992C243.434 316.376 243.012 316.669 242.511 316.872C242.02 317.064 241.471 317.16 240.863 317.16C240.298 317.16 239.775 317.064 239.295 316.872C238.815 316.669 238.399 316.376 238.047 315.992C237.695 315.608 237.418 315.144 237.215 314.6C237.023 314.045 236.927 313.411 236.927 312.696C236.927 311.747 237.087 310.947 237.407 310.296C237.727 309.635 238.186 309.133 238.783 308.792C239.38 308.44 240.09 308.264 240.911 308.264C241.69 308.264 242.372 308.44 242.959 308.792C243.556 309.133 244.02 309.635 244.351 310.296C244.692 310.947 244.863 311.747 244.863 312.696ZM238.383 312.696C238.383 313.368 238.468 313.955 238.639 314.456C238.82 314.947 239.098 315.325 239.471 315.592C239.844 315.859 240.319 315.992 240.895 315.992C241.471 315.992 241.946 315.859 242.319 315.592C242.692 315.325 242.964 314.947 243.135 314.456C243.316 313.955 243.407 313.368 243.407 312.696C243.407 312.013 243.316 311.432 243.135 310.952C242.954 310.472 242.676 310.104 242.303 309.848C241.94 309.581 241.466 309.448 240.879 309.448C240.004 309.448 239.37 309.736 238.975 310.312C238.58 310.888 238.383 311.683 238.383 312.696ZM250.534 317.16C249.777 317.16 249.1 317.005 248.502 316.696C247.916 316.387 247.452 315.907 247.11 315.256C246.78 314.605 246.614 313.773 246.614 312.76C246.614 311.704 246.79 310.845 247.142 310.184C247.494 309.523 247.969 309.037 248.566 308.728C249.174 308.419 249.862 308.264 250.63 308.264C251.068 308.264 251.489 308.312 251.894 308.408C252.3 308.493 252.63 308.6 252.886 308.728L252.454 309.896C252.198 309.8 251.9 309.709 251.558 309.624C251.217 309.539 250.897 309.496 250.598 309.496C250.022 309.496 249.548 309.619 249.174 309.864C248.801 310.109 248.524 310.472 248.342 310.952C248.161 311.432 248.07 312.029 248.07 312.744C248.07 313.427 248.161 314.008 248.342 314.488C248.524 314.968 248.796 315.331 249.158 315.576C249.521 315.821 249.974 315.944 250.518 315.944C250.988 315.944 251.398 315.896 251.75 315.8C252.113 315.704 252.444 315.587 252.742 315.448V316.696C252.454 316.845 252.134 316.957 251.782 317.032C251.441 317.117 251.025 317.16 250.534 317.16ZM260.702 309.608H257.902V317H256.51V309.608H253.742V308.424H260.702V309.608ZM263.719 313.656C263.719 313.752 263.714 313.891 263.703 314.072C263.703 314.243 263.698 314.429 263.687 314.632C263.677 314.824 263.666 315.011 263.655 315.192C263.645 315.363 263.634 315.501 263.623 315.608L268.215 308.424H269.943V317H268.631V311.944C268.631 311.773 268.631 311.549 268.631 311.272C268.642 310.995 268.653 310.723 268.663 310.456C268.674 310.179 268.685 309.971 268.695 309.832L264.135 317H262.391V308.424H263.719V313.656ZM144.688 332.112C144.688 333.04 144.368 333.813 143.728 334.432C143.099 335.04 142.133 335.344 140.832 335.344H138.688V340H137.232V328.848H140.832C142.091 328.848 143.045 329.152 143.696 329.76C144.357 330.368 144.688 331.152 144.688 332.112ZM140.832 334.144C141.643 334.144 142.24 333.968 142.624 333.616C143.008 333.264 143.2 332.763 143.2 332.112C143.2 330.736 142.411 330.048 140.832 330.048H138.688V334.144H140.832ZM145.954 335.584C145.954 334.688 146.135 333.904 146.498 333.232C146.86 332.549 147.356 332.021 147.986 331.648C148.626 331.275 149.335 331.088 150.114 331.088C150.882 331.088 151.548 331.253 152.114 331.584C152.679 331.915 153.1 332.331 153.378 332.832V331.232H154.85V340H153.378V338.368C153.09 338.88 152.658 339.307 152.082 339.648C151.516 339.979 150.855 340.144 150.098 340.144C149.319 340.144 148.615 339.952 147.986 339.568C147.356 339.184 146.86 338.645 146.498 337.952C146.135 337.259 145.954 336.469 145.954 335.584ZM153.378 335.6C153.378 334.939 153.244 334.363 152.978 333.872C152.711 333.381 152.348 333.008 151.89 332.752C151.442 332.485 150.946 332.352 150.402 332.352C149.858 332.352 149.362 332.48 148.914 332.736C148.466 332.992 148.108 333.365 147.842 333.856C147.575 334.347 147.442 334.923 147.442 335.584C147.442 336.256 147.575 336.843 147.842 337.344C148.108 337.835 148.466 338.213 148.914 338.48C149.362 338.736 149.858 338.864 150.402 338.864C150.946 338.864 151.442 338.736 151.89 338.48C152.348 338.213 152.711 337.835 152.978 337.344C153.244 336.843 153.378 336.261 153.378 335.6ZM161.582 331.072C162.649 331.072 163.513 331.397 164.174 332.048C164.835 332.688 165.166 333.616 165.166 334.832V340H163.726V335.04C163.726 334.165 163.507 333.499 163.07 333.04C162.633 332.571 162.035 332.336 161.278 332.336C160.51 332.336 159.897 332.576 159.438 333.056C158.99 333.536 158.766 334.235 158.766 335.152V340H157.31V331.232H158.766V332.48C159.054 332.032 159.443 331.685 159.934 331.44C160.435 331.195 160.985 331.072 161.582 331.072ZM167.001 335.6C167.001 334.693 167.182 333.904 167.545 333.232C167.907 332.549 168.409 332.021 169.049 331.648C169.699 331.275 170.441 331.088 171.273 331.088C172.35 331.088 173.235 331.349 173.929 331.872C174.633 332.395 175.097 333.12 175.321 334.048H173.753C173.603 333.515 173.31 333.093 172.873 332.784C172.446 332.475 171.913 332.32 171.273 332.32C170.441 332.32 169.769 332.608 169.257 333.184C168.745 333.749 168.489 334.555 168.489 335.6C168.489 336.656 168.745 337.472 169.257 338.048C169.769 338.624 170.441 338.912 171.273 338.912C171.913 338.912 172.446 338.763 172.873 338.464C173.299 338.165 173.593 337.739 173.753 337.184H175.321C175.086 338.08 174.617 338.8 173.913 339.344C173.209 339.877 172.329 340.144 171.273 340.144C170.441 340.144 169.699 339.957 169.049 339.584C168.409 339.211 167.907 338.683 167.545 338C167.182 337.317 167.001 336.517 167.001 335.6ZM176.719 335.584C176.719 334.688 176.901 333.904 177.263 333.232C177.626 332.549 178.122 332.021 178.751 331.648C179.391 331.275 180.101 331.088 180.879 331.088C181.647 331.088 182.314 331.253 182.879 331.584C183.445 331.915 183.866 332.331 184.143 332.832V331.232H185.615V340H184.143V338.368C183.855 338.88 183.423 339.307 182.847 339.648C182.282 339.979 181.621 340.144 180.863 340.144C180.085 340.144 179.381 339.952 178.751 339.568C178.122 339.184 177.626 338.645 177.263 337.952C176.901 337.259 176.719 336.469 176.719 335.584ZM184.143 335.6C184.143 334.939 184.01 334.363 183.743 333.872C183.477 333.381 183.114 333.008 182.655 332.752C182.207 332.485 181.711 332.352 181.167 332.352C180.623 332.352 180.127 332.48 179.679 332.736C179.231 332.992 178.874 333.365 178.607 333.856C178.341 334.347 178.207 334.923 178.207 335.584C178.207 336.256 178.341 336.843 178.607 337.344C178.874 337.835 179.231 338.213 179.679 338.48C180.127 338.736 180.623 338.864 181.167 338.864C181.711 338.864 182.207 338.736 182.655 338.48C183.114 338.213 183.477 337.835 183.743 337.344C184.01 336.843 184.143 336.261 184.143 335.6ZM192.972 340L189.532 336.128V340H188.076V328.16H189.532V335.12L192.908 331.232H194.94L190.812 335.6L194.956 340H192.972ZM204.31 335.28C204.31 335.557 204.294 335.851 204.262 336.16H197.254C197.307 337.024 197.601 337.701 198.134 338.192C198.678 338.672 199.334 338.912 200.102 338.912C200.731 338.912 201.254 338.768 201.67 338.48C202.097 338.181 202.395 337.787 202.566 337.296H204.134C203.899 338.139 203.43 338.827 202.726 339.36C202.022 339.883 201.147 340.144 200.102 340.144C199.27 340.144 198.523 339.957 197.862 339.584C197.211 339.211 196.699 338.683 196.326 338C195.953 337.307 195.766 336.507 195.766 335.6C195.766 334.693 195.947 333.899 196.31 333.216C196.673 332.533 197.179 332.011 197.83 331.648C198.491 331.275 199.249 331.088 200.102 331.088C200.934 331.088 201.67 331.269 202.31 331.632C202.95 331.995 203.441 332.496 203.782 333.136C204.134 333.765 204.31 334.48 204.31 335.28ZM202.806 334.976C202.806 334.421 202.683 333.947 202.438 333.552C202.193 333.147 201.857 332.843 201.43 332.64C201.014 332.427 200.55 332.32 200.038 332.32C199.302 332.32 198.673 332.555 198.15 333.024C197.638 333.493 197.345 334.144 197.27 334.976H202.806ZM209.768 340.112C209.032 340.112 208.371 339.984 207.784 339.728C207.208 339.461 206.755 339.099 206.424 338.64C206.093 338.171 205.923 337.632 205.912 337.024H207.464C207.517 337.547 207.731 337.989 208.104 338.352C208.488 338.704 209.043 338.88 209.768 338.88C210.461 338.88 211.005 338.709 211.4 338.368C211.805 338.016 212.008 337.568 212.008 337.024C212.008 336.597 211.891 336.251 211.656 335.984C211.421 335.717 211.128 335.515 210.776 335.376C210.424 335.237 209.949 335.088 209.352 334.928C208.616 334.736 208.024 334.544 207.576 334.352C207.139 334.16 206.76 333.861 206.44 333.456C206.131 333.04 205.976 332.485 205.976 331.792C205.976 331.184 206.131 330.645 206.44 330.176C206.749 329.707 207.181 329.344 207.736 329.088C208.301 328.832 208.947 328.704 209.672 328.704C210.717 328.704 211.571 328.965 212.232 329.488C212.904 330.011 213.283 330.704 213.368 331.568H211.768C211.715 331.141 211.491 330.768 211.096 330.448C210.701 330.117 210.179 329.952 209.528 329.952C208.92 329.952 208.424 330.112 208.04 330.432C207.656 330.741 207.464 331.179 207.464 331.744C207.464 332.149 207.576 332.48 207.8 332.736C208.035 332.992 208.317 333.189 208.648 333.328C208.989 333.456 209.464 333.605 210.072 333.776C210.808 333.979 211.4 334.181 211.848 334.384C212.296 334.576 212.68 334.88 213 335.296C213.32 335.701 213.48 336.256 213.48 336.96C213.48 337.504 213.336 338.016 213.048 338.496C212.76 338.976 212.333 339.365 211.768 339.664C211.203 339.963 210.536 340.112 209.768 340.112ZM227.303 331.232L224.567 340H223.063L220.951 333.04L218.839 340H217.335L214.583 331.232H216.071L218.087 338.592L220.263 331.232H221.751L223.879 338.608L225.863 331.232H227.303ZM228.204 335.584C228.204 334.688 228.385 333.904 228.748 333.232C229.11 332.549 229.606 332.021 230.236 331.648C230.876 331.275 231.585 331.088 232.364 331.088C233.132 331.088 233.798 331.253 234.364 331.584C234.929 331.915 235.35 332.331 235.628 332.832V331.232H237.1V340H235.628V338.368C235.34 338.88 234.908 339.307 234.332 339.648C233.766 339.979 233.105 340.144 232.348 340.144C231.569 340.144 230.865 339.952 230.236 339.568C229.606 339.184 229.11 338.645 228.748 337.952C228.385 337.259 228.204 336.469 228.204 335.584ZM235.628 335.6C235.628 334.939 235.494 334.363 235.228 333.872C234.961 333.381 234.598 333.008 234.14 332.752C233.692 332.485 233.196 332.352 232.652 332.352C232.108 332.352 231.612 332.48 231.164 332.736C230.716 332.992 230.358 333.365 230.092 333.856C229.825 334.347 229.692 334.923 229.692 335.584C229.692 336.256 229.825 336.843 230.092 337.344C230.358 337.835 230.716 338.213 231.164 338.48C231.612 338.736 232.108 338.864 232.652 338.864C233.196 338.864 233.692 338.736 234.14 338.48C234.598 338.213 234.961 337.835 235.228 337.344C235.494 336.843 235.628 336.261 235.628 335.6ZM241.016 332.848C241.304 332.347 241.731 331.931 242.296 331.6C242.872 331.259 243.539 331.088 244.296 331.088C245.075 331.088 245.779 331.275 246.408 331.648C247.048 332.021 247.549 332.549 247.912 333.232C248.275 333.904 248.456 334.688 248.456 335.584C248.456 336.469 248.275 337.259 247.912 337.952C247.549 338.645 247.048 339.184 246.408 339.568C245.779 339.952 245.075 340.144 244.296 340.144C243.549 340.144 242.888 339.979 242.312 339.648C241.747 339.307 241.315 338.885 241.016 338.384V344.16H239.56V331.232H241.016V332.848ZM246.968 335.584C246.968 334.923 246.835 334.347 246.568 333.856C246.301 333.365 245.939 332.992 245.48 332.736C245.032 332.48 244.536 332.352 243.992 332.352C243.459 332.352 242.963 332.485 242.504 332.752C242.056 333.008 241.693 333.387 241.416 333.888C241.149 334.379 241.016 334.949 241.016 335.6C241.016 336.261 241.149 336.843 241.416 337.344C241.693 337.835 242.056 338.213 242.504 338.48C242.963 338.736 243.459 338.864 243.992 338.864C244.536 338.864 245.032 338.736 245.48 338.48C245.939 338.213 246.301 337.835 246.568 337.344C246.835 336.843 246.968 336.256 246.968 335.584Z" fill="white"/>
<path d="M143.136 375.416V376.824C144.373 376.845 145.349 377.048 146.064 377.432C146.779 377.816 147.285 378.328 147.584 378.968C147.883 379.597 148.032 380.301 148.032 381.08C148.032 381.592 147.952 382.104 147.792 382.616C147.643 383.117 147.381 383.576 147.008 383.992C146.635 384.397 146.133 384.728 145.504 384.984C144.875 385.24 144.085 385.379 143.136 385.4V387.16H141.712V385.4C140.741 385.379 139.936 385.24 139.296 384.984C138.667 384.717 138.171 384.376 137.808 383.96C137.445 383.533 137.189 383.069 137.04 382.568C136.891 382.067 136.816 381.571 136.816 381.08C136.816 380.515 136.896 379.981 137.056 379.48C137.227 378.968 137.499 378.52 137.872 378.136C138.256 377.741 138.763 377.427 139.392 377.192C140.021 376.957 140.795 376.835 141.712 376.824V375.416H143.136ZM141.712 378.04C140.859 378.061 140.176 378.2 139.664 378.456C139.163 378.712 138.805 379.064 138.592 379.512C138.379 379.949 138.272 380.467 138.272 381.064C138.272 381.693 138.389 382.243 138.624 382.712C138.869 383.171 139.243 383.528 139.744 383.784C140.256 384.04 140.912 384.184 141.712 384.216V378.04ZM143.136 384.216C143.957 384.184 144.619 384.035 145.12 383.768C145.632 383.501 146 383.139 146.224 382.68C146.459 382.211 146.576 381.672 146.576 381.064C146.576 380.456 146.469 379.933 146.256 379.496C146.043 379.048 145.685 378.701 145.184 378.456C144.683 378.2 144 378.061 143.136 378.04V384.216ZM157.675 382.696C157.675 383.411 157.579 384.045 157.387 384.6C157.206 385.144 156.939 385.608 156.587 385.992C156.246 386.376 155.825 386.669 155.323 386.872C154.833 387.064 154.283 387.16 153.675 387.16C153.11 387.16 152.587 387.064 152.107 386.872C151.627 386.669 151.211 386.376 150.859 385.992C150.507 385.608 150.23 385.144 150.027 384.6C149.835 384.045 149.739 383.411 149.739 382.696C149.739 381.747 149.899 380.947 150.219 380.296C150.539 379.635 150.998 379.133 151.595 378.792C152.193 378.44 152.902 378.264 153.723 378.264C154.502 378.264 155.185 378.44 155.771 378.792C156.369 379.133 156.833 379.635 157.163 380.296C157.505 380.947 157.675 381.747 157.675 382.696ZM151.195 382.696C151.195 383.368 151.281 383.955 151.451 384.456C151.633 384.947 151.91 385.325 152.283 385.592C152.657 385.859 153.131 385.992 153.707 385.992C154.283 385.992 154.758 385.859 155.131 385.592C155.505 385.325 155.777 384.947 155.947 384.456C156.129 383.955 156.219 383.368 156.219 382.696C156.219 382.013 156.129 381.432 155.947 380.952C155.766 380.472 155.489 380.104 155.115 379.848C154.753 379.581 154.278 379.448 153.691 379.448C152.817 379.448 152.182 379.736 151.787 380.312C151.393 380.888 151.195 381.683 151.195 382.696ZM161.315 378.424V381.992H165.971V378.424H167.379V387H165.971V383.176H161.315V387H159.907V378.424H161.315ZM176.462 378.424V385.816H177.71V389.976H176.35V387H170.382V389.976H169.038V385.816H169.726C170.217 385.133 170.622 384.392 170.942 383.592C171.273 382.781 171.518 381.939 171.678 381.064C171.849 380.179 171.94 379.299 171.95 378.424H176.462ZM173.198 379.528C173.156 380.253 173.044 381.005 172.862 381.784C172.681 382.552 172.446 383.288 172.158 383.992C171.881 384.696 171.556 385.304 171.182 385.816H175.102V379.528H173.198ZM191.545 375.576V385.72H193.001V390.008H191.625V387H183.769V390.008H182.393V385.72H183.273C183.657 385.059 184.02 384.317 184.361 383.496C184.713 382.675 185.022 381.816 185.289 380.92C185.556 380.013 185.774 379.107 185.945 378.2C186.116 377.293 186.222 376.419 186.265 375.576H191.545ZM187.529 376.872C187.486 377.491 187.38 378.189 187.209 378.968C187.049 379.747 186.841 380.547 186.585 381.368C186.34 382.179 186.062 382.963 185.753 383.72C185.454 384.477 185.134 385.144 184.793 385.72H190.121V376.872H187.529ZM205.007 378.424L201.471 382.584L205.311 387H203.711L199.999 382.648V387H198.687V382.648L194.975 387H193.375L197.215 382.584L193.679 378.424H195.215L198.687 382.584V378.424H199.999V382.584L203.487 378.424H205.007ZM209.719 378.264C210.455 378.264 211.084 378.424 211.607 378.744C212.14 379.064 212.546 379.517 212.823 380.104C213.111 380.68 213.255 381.357 213.255 382.136V382.984H207.383C207.404 383.955 207.65 384.696 208.119 385.208C208.599 385.709 209.266 385.96 210.119 385.96C210.663 385.96 211.143 385.912 211.559 385.816C211.986 385.709 212.423 385.56 212.871 385.368V386.6C212.434 386.792 212.002 386.931 211.575 387.016C211.148 387.112 210.642 387.16 210.055 387.16C209.244 387.16 208.524 386.995 207.895 386.664C207.276 386.333 206.791 385.843 206.439 385.192C206.098 384.531 205.927 383.725 205.927 382.776C205.927 381.837 206.082 381.032 206.391 380.36C206.711 379.688 207.154 379.171 207.719 378.808C208.295 378.445 208.962 378.264 209.719 378.264ZM209.703 379.416C209.031 379.416 208.498 379.635 208.103 380.072C207.719 380.499 207.49 381.096 207.415 381.864H211.783C211.783 381.373 211.708 380.947 211.559 380.584C211.41 380.221 211.18 379.939 210.871 379.736C210.572 379.523 210.183 379.416 209.703 379.416ZM220.51 378.424H222.046L218.382 382.552L222.35 387H220.718L216.846 382.648V387H215.438V378.424H216.846V382.584L220.51 378.424ZM231.155 378.424V387H229.747V379.624H225.315V387H223.907V378.424H231.155ZM241.347 382.696C241.347 383.411 241.251 384.045 241.059 384.6C240.878 385.144 240.611 385.608 240.259 385.992C239.918 386.376 239.497 386.669 238.995 386.872C238.505 387.064 237.955 387.16 237.347 387.16C236.782 387.16 236.259 387.064 235.779 386.872C235.299 386.669 234.883 386.376 234.531 385.992C234.179 385.608 233.902 385.144 233.699 384.6C233.507 384.045 233.411 383.411 233.411 382.696C233.411 381.747 233.571 380.947 233.891 380.296C234.211 379.635 234.67 379.133 235.267 378.792C235.865 378.44 236.574 378.264 237.395 378.264C238.174 378.264 238.857 378.44 239.443 378.792C240.041 379.133 240.505 379.635 240.835 380.296C241.177 380.947 241.347 381.747 241.347 382.696ZM234.867 382.696C234.867 383.368 234.953 383.955 235.123 384.456C235.305 384.947 235.582 385.325 235.955 385.592C236.329 385.859 236.803 385.992 237.379 385.992C237.955 385.992 238.43 385.859 238.803 385.592C239.177 385.325 239.449 384.947 239.619 384.456C239.801 383.955 239.891 383.368 239.891 382.696C239.891 382.013 239.801 381.432 239.619 380.952C239.438 380.472 239.161 380.104 238.787 379.848C238.425 379.581 237.95 379.448 237.363 379.448C236.489 379.448 235.854 379.736 235.459 380.312C235.065 380.888 234.867 381.683 234.867 382.696ZM249.343 379.608H246.543V387H245.151V379.608H242.383V378.424H249.343V379.608ZM254.28 378.28C255.325 378.28 256.099 378.509 256.6 378.968C257.101 379.427 257.352 380.157 257.352 381.16V387H256.328L256.056 385.784H255.992C255.747 386.093 255.491 386.355 255.224 386.568C254.968 386.771 254.669 386.92 254.328 387.016C253.997 387.112 253.592 387.16 253.112 387.16C252.6 387.16 252.136 387.069 251.72 386.888C251.315 386.707 250.995 386.429 250.76 386.056C250.525 385.672 250.408 385.192 250.408 384.616C250.408 383.763 250.744 383.107 251.416 382.648C252.088 382.179 253.123 381.923 254.52 381.88L255.976 381.832V381.32C255.976 380.605 255.821 380.109 255.512 379.832C255.203 379.555 254.765 379.416 254.2 379.416C253.752 379.416 253.325 379.485 252.92 379.624C252.515 379.752 252.136 379.901 251.784 380.072L251.352 379.016C251.725 378.813 252.168 378.643 252.68 378.504C253.192 378.355 253.725 378.28 254.28 378.28ZM254.696 382.856C253.629 382.899 252.888 383.069 252.472 383.368C252.067 383.667 251.864 384.088 251.864 384.632C251.864 385.112 252.008 385.464 252.296 385.688C252.595 385.912 252.973 386.024 253.432 386.024C254.157 386.024 254.76 385.827 255.24 385.432C255.72 385.027 255.96 384.408 255.96 383.576V382.808L254.696 382.856Z" fill="white"/>
<path d="M142.592 434L138.832 423.984H138.768C138.789 424.197 138.805 424.469 138.816 424.8C138.837 425.131 138.853 425.493 138.864 425.888C138.875 426.272 138.88 426.667 138.88 427.072V434H137.552V422.576H139.68L143.2 431.936H143.264L146.848 422.576H148.96V434H147.536V426.976C147.536 426.603 147.541 426.235 147.552 425.872C147.563 425.499 147.579 425.152 147.6 424.832C147.621 424.501 147.637 424.224 147.648 424H147.584L143.776 434H142.592ZM155.124 425.28C156.169 425.28 156.942 425.509 157.444 425.968C157.945 426.427 158.196 427.157 158.196 428.16V434H157.172L156.9 432.784H156.836C156.59 433.093 156.334 433.355 156.068 433.568C155.812 433.771 155.513 433.92 155.172 434.016C154.841 434.112 154.436 434.16 153.956 434.16C153.444 434.16 152.98 434.069 152.564 433.888C152.158 433.707 151.838 433.429 151.604 433.056C151.369 432.672 151.252 432.192 151.252 431.616C151.252 430.763 151.588 430.107 152.26 429.648C152.932 429.179 153.966 428.923 155.364 428.88L156.82 428.832V428.32C156.82 427.605 156.665 427.109 156.356 426.832C156.046 426.555 155.609 426.416 155.044 426.416C154.596 426.416 154.169 426.485 153.764 426.624C153.358 426.752 152.98 426.901 152.628 427.072L152.196 426.016C152.569 425.813 153.012 425.643 153.524 425.504C154.036 425.355 154.569 425.28 155.124 425.28ZM155.54 429.856C154.473 429.899 153.732 430.069 153.316 430.368C152.91 430.667 152.708 431.088 152.708 431.632C152.708 432.112 152.852 432.464 153.14 432.688C153.438 432.912 153.817 433.024 154.276 433.024C155.001 433.024 155.604 432.827 156.084 432.432C156.564 432.027 156.804 431.408 156.804 430.576V429.808L155.54 429.856ZM164.924 425.264C165.98 425.264 166.828 425.632 167.468 426.368C168.119 427.104 168.444 428.213 168.444 429.696C168.444 430.667 168.295 431.488 167.996 432.16C167.708 432.821 167.298 433.323 166.764 433.664C166.242 433.995 165.623 434.16 164.908 434.16C164.471 434.16 164.082 434.101 163.74 433.984C163.399 433.867 163.106 433.717 162.86 433.536C162.626 433.344 162.423 433.136 162.252 432.912H162.156C162.178 433.093 162.199 433.323 162.22 433.6C162.242 433.877 162.252 434.117 162.252 434.32V437.84H160.844V425.424H161.996L162.188 426.592H162.252C162.423 426.347 162.626 426.123 162.86 425.92C163.106 425.717 163.394 425.557 163.724 425.44C164.066 425.323 164.466 425.264 164.924 425.264ZM164.668 426.448C164.092 426.448 163.628 426.56 163.276 426.784C162.924 426.997 162.668 427.323 162.508 427.76C162.348 428.197 162.263 428.752 162.252 429.424V429.696C162.252 430.4 162.327 430.997 162.476 431.488C162.626 431.979 162.876 432.352 163.228 432.608C163.591 432.864 164.082 432.992 164.7 432.992C165.223 432.992 165.65 432.848 165.98 432.56C166.322 432.272 166.572 431.883 166.732 431.392C166.903 430.891 166.988 430.32 166.988 429.68C166.988 428.699 166.796 427.915 166.412 427.328C166.039 426.741 165.458 426.448 164.668 426.448ZM175.76 425.424H177.296L173.632 429.552L177.6 434H175.968L172.096 429.648V434H170.688V425.424H172.096V429.584L175.76 425.424ZM182.156 425.264C182.892 425.264 183.522 425.424 184.044 425.744C184.578 426.064 184.983 426.517 185.26 427.104C185.548 427.68 185.692 428.357 185.692 429.136V429.984H179.82C179.842 430.955 180.087 431.696 180.556 432.208C181.036 432.709 181.703 432.96 182.556 432.96C183.1 432.96 183.58 432.912 183.996 432.816C184.423 432.709 184.86 432.56 185.308 432.368V433.6C184.871 433.792 184.439 433.931 184.012 434.016C183.586 434.112 183.079 434.16 182.492 434.16C181.682 434.16 180.962 433.995 180.332 433.664C179.714 433.333 179.228 432.843 178.876 432.192C178.535 431.531 178.364 430.725 178.364 429.776C178.364 428.837 178.519 428.032 178.828 427.36C179.148 426.688 179.591 426.171 180.156 425.808C180.732 425.445 181.399 425.264 182.156 425.264ZM182.14 426.416C181.468 426.416 180.935 426.635 180.54 427.072C180.156 427.499 179.927 428.096 179.852 428.864H184.22C184.22 428.373 184.146 427.947 183.996 427.584C183.847 427.221 183.618 426.939 183.308 426.736C183.01 426.523 182.62 426.416 182.14 426.416ZM193.796 426.608H190.996V434H189.604V426.608H186.836V425.424H193.796V426.608ZM196.813 430.656C196.813 430.752 196.808 430.891 196.797 431.072C196.797 431.243 196.792 431.429 196.781 431.632C196.77 431.824 196.76 432.011 196.749 432.192C196.738 432.363 196.728 432.501 196.717 432.608L201.309 425.424H203.037V434H201.725V428.944C201.725 428.773 201.725 428.549 201.725 428.272C201.736 427.995 201.746 427.723 201.757 427.456C201.768 427.179 201.778 426.971 201.789 426.832L197.229 434H195.485V425.424H196.813V430.656ZM207.174 425.424V428.992H211.83V425.424H213.238V434H211.83V430.176H207.174V434H205.766V425.424H207.174ZM221.186 425.424V426.608H217.362V434H215.954V425.424H221.186Z" fill="white"/>
<rect x="18" y="317" width="47" height="13" fill="#FD39A0"/>
<rect x="18" y="375" width="47" height="13" fill="#4434FF"/>
<rect x="18" y="422" width="47" height="13" fill="#7DE64A"/>
<defs>
<linearGradient id="paint0_linear_604_696" x1="175.404" y1="250.034" x2="63.0807" y2="88.7936" gradientUnits="userSpaceOnUse">
<stop stop-color="#FF1791"/>
<stop offset="1" stop-color="#F77FBD"/>
</linearGradient>
<linearGradient id="paint1_linear_604_696" x1="189.726" y1="274.198" x2="104.75" y2="42.5434" gradientUnits="userSpaceOnUse">
<stop stop-color="#FF72BC" stop-opacity="0.5"/>
<stop offset="1" stop-color="#FF81C3" stop-opacity="0.51"/>
</linearGradient>
<linearGradient id="paint2_linear_604_696" x1="158.095" y1="146.737" x2="245.233" y2="73.6848" gradientUnits="userSpaceOnUse">
<stop stop-color="#2C27FF"/>
<stop offset="1" stop-color="#8E58FF"/>
</linearGradient>
<linearGradient id="paint3_linear_604_696" x1="262.751" y1="174.169" x2="165.562" y2="49.4338" gradientUnits="userSpaceOnUse">
<stop stop-color="#FF81BD"/>
<stop offset="1" stop-color="#FF9FCD" stop-opacity="0"/>
</linearGradient>
<linearGradient id="paint4_linear_604_696" x1="232.8" y1="211.596" x2="157.182" y2="147.193" gradientUnits="userSpaceOnUse">
<stop stop-color="#8BFF55"/>
<stop offset="1" stop-color="#449B00" stop-opacity="0"/>
</linearGradient>
<linearGradient id="paint5_linear_604_696" x1="232.8" y1="211.596" x2="157.182" y2="147.193" gradientUnits="userSpaceOnUse">
<stop stop-color="#FF6CBF"/>
<stop offset="1" stop-color="#A7206C" stop-opacity="0.19"/>
</linearGradient>
</defs>
</svg>
