<svg width="88" height="88" viewBox="0 0 88 88" fill="none" xmlns="http://www.w3.org/2000/svg">
<g filter="url(#filter0_d_228_474)">
<g filter="url(#filter1_i_228_474)">
<path d="M75.25 37.625C75.25 52.4677 63.2177 64.5 48.375 64.5C33.5324 64.5 21.5 52.4677 21.5 37.625C21.5 22.7823 33.5324 10.75 48.375 10.75C63.2177 10.75 75.25 22.7823 75.25 37.625Z" fill="url(#paint0_linear_228_474)"/>
</g>
<g filter="url(#filter2_bii_228_474)">
<path fill-rule="evenodd" clip-rule="evenodd" d="M37.625 75.25C52.4677 75.25 64.5 63.2177 64.5 48.375C64.5 33.5323 52.4677 21.5 37.625 21.5C22.7823 21.5 10.75 33.5323 10.75 48.375C10.75 63.2177 22.7823 75.25 37.625 75.25ZM21.5 41.8574C21.5 36.5599 25.8099 32.25 31.1074 32.25H44.1425C49.4401 32.25 53.7499 36.5599 53.75 41.8574V54.8925C53.75 60.1901 49.4401 64.5 44.1425 64.5H31.1074C25.8099 64.5 21.5 60.1901 21.5 54.8925V41.8574ZM44.1425 61.2557C47.6568 61.2557 50.5057 58.4068 50.5057 54.8925V41.8574C50.5057 38.3432 47.6568 35.4943 44.1425 35.4943H31.1074C27.5932 35.4943 24.7443 38.3432 24.7443 41.8574V54.8925C24.7443 58.4068 27.5932 61.2557 31.1074 61.2557H44.1425ZM47.9808 40.0966C47.9808 41.2005 47.086 42.0953 45.9822 42.0953C44.8783 42.0953 43.9835 41.2005 43.9835 40.0966C43.9835 38.9928 44.8783 38.098 45.9822 38.098C47.086 38.098 47.9808 38.9928 47.9808 40.0966ZM37.625 40.034C33.0258 40.034 29.284 43.7758 29.284 48.3749C29.284 52.9741 33.0258 56.7159 37.625 56.7159C42.2242 56.7159 45.966 52.9742 45.966 48.3749C45.966 43.7757 42.2242 40.034 37.625 40.034ZM37.625 53.4716C34.8102 53.4716 32.5284 51.1898 32.5284 48.375C32.5284 45.5602 34.8102 43.2784 37.625 43.2784C40.4398 43.2784 42.7216 45.5602 42.7216 48.375C42.7216 51.1898 40.4398 53.4716 37.625 53.4716Z" fill="white" fill-opacity="0.4"/>
</g>
</g>
<defs>
<filter id="filter0_d_228_474" x="6.75" y="6.75" width="80.5" height="80.5" filterUnits="userSpaceOnUse" color-interpolation-filters="sRGB">
<feFlood flood-opacity="0" result="BackgroundImageFix"/>
<feColorMatrix in="SourceAlpha" type="matrix" values="0 0 0 0 0 0 0 0 0 0 0 0 0 0 0 0 0 0 127 0" result="hardAlpha"/>
<feOffset dx="4" dy="4"/>
<feGaussianBlur stdDeviation="4"/>
<feColorMatrix type="matrix" values="0 0 0 0 0.991667 0 0 0 0 0.501783 0 0 0 0 0.347083 0 0 0 0.4 0"/>
<feBlend mode="normal" in2="BackgroundImageFix" result="effect1_dropShadow_228_474"/>
<feBlend mode="normal" in="SourceGraphic" in2="effect1_dropShadow_228_474" result="shape"/>
</filter>
<filter id="filter1_i_228_474" x="21.5" y="10.75" width="53.75" height="53.75" filterUnits="userSpaceOnUse" color-interpolation-filters="sRGB">
<feFlood flood-opacity="0" result="BackgroundImageFix"/>
<feBlend mode="normal" in="SourceGraphic" in2="BackgroundImageFix" result="shape"/>
<feColorMatrix in="SourceAlpha" type="matrix" values="0 0 0 0 0 0 0 0 0 0 0 0 0 0 0 0 0 0 127 0" result="hardAlpha"/>
<feOffset/>
<feGaussianBlur stdDeviation="4"/>
<feComposite in2="hardAlpha" operator="arithmetic" k2="-1" k3="1"/>
<feColorMatrix type="matrix" values="0 0 0 0 1 0 0 0 0 1 0 0 0 0 1 0 0 0 0.8 0"/>
<feBlend mode="normal" in2="shape" result="effect1_innerShadow_228_474"/>
</filter>
<filter id="filter2_bii_228_474" x="6.75" y="17.5" width="61.75" height="61.75" filterUnits="userSpaceOnUse" color-interpolation-filters="sRGB">
<feFlood flood-opacity="0" result="BackgroundImageFix"/>
<feGaussianBlur in="BackgroundImage" stdDeviation="2"/>
<feComposite in2="SourceAlpha" operator="in" result="effect1_backgroundBlur_228_474"/>
<feBlend mode="normal" in="SourceGraphic" in2="effect1_backgroundBlur_228_474" result="shape"/>
<feColorMatrix in="SourceAlpha" type="matrix" values="0 0 0 0 0 0 0 0 0 0 0 0 0 0 0 0 0 0 127 0" result="hardAlpha"/>
<feOffset/>
<feGaussianBlur stdDeviation="2"/>
<feComposite in2="hardAlpha" operator="arithmetic" k2="-1" k3="1"/>
<feColorMatrix type="matrix" values="0 0 0 0 1 0 0 0 0 1 0 0 0 0 1 0 0 0 1 0"/>
<feBlend mode="normal" in2="shape" result="effect2_innerShadow_228_474"/>
<feColorMatrix in="SourceAlpha" type="matrix" values="0 0 0 0 0 0 0 0 0 0 0 0 0 0 0 0 0 0 127 0" result="hardAlpha"/>
<feOffset dy="4"/>
<feGaussianBlur stdDeviation="4"/>
<feComposite in2="hardAlpha" operator="arithmetic" k2="-1" k3="1"/>
<feColorMatrix type="matrix" values="0 0 0 0 1 0 0 0 0 1 0 0 0 0 1 0 0 0 1 0"/>
<feBlend mode="normal" in2="effect2_innerShadow_228_474" result="effect3_innerShadow_228_474"/>
</filter>
<linearGradient id="paint0_linear_228_474" x1="48.375" y1="64.3435" x2="48.375" y2="11.1675" gradientUnits="userSpaceOnUse">
<stop stop-color="#E09B3D"/>
<stop offset="0.3" stop-color="#C74C4D"/>
<stop offset="0.6" stop-color="#C21975"/>
<stop offset="1" stop-color="#7024C4"/>
</linearGradient>
</defs>
</svg>
