<svg width="32" height="32" viewBox="0 0 32 32" fill="none" xmlns="http://www.w3.org/2000/svg">
<path d="M28.0138 20.9836L26.3973 26.0847L23.224 25.2747L28.0138 20.9836Z" fill="#E4761B" stroke="#E4761B" stroke-width="0.190386"/>
<path d="M23.224 25.2747L26.2847 21.3608L28.0138 20.9836L23.224 25.2747Z" fill="#E4761B" stroke="#E4761B" stroke-width="0.190386"/>
<path d="M25.6354 17.1377L28.0137 20.9836L26.2846 21.3608L25.6354 17.1377ZM25.6354 17.1377L27.1657 16.1484L28.0137 20.9836L25.6354 17.1377Z" fill="#F6851B" stroke="#F6851B" stroke-width="0.190386"/>
<path d="M23.6878 14.2316L28.0867 12.5498L27.868 13.4711L23.6878 14.2316ZM27.7289 14.5779L23.6878 14.2316L27.868 13.4711L27.7289 14.5779Z" fill="#763D16" stroke="#763D16" stroke-width="0.190386"/>
<path d="M27.7289 14.5779L27.1658 16.1484L23.6878 14.2316L27.7289 14.5779ZM28.61 12.9393L27.868 13.4711L28.0867 12.5498L28.61 12.9393ZM27.7289 14.5779L27.868 13.4711L28.4577 13.9286L27.7289 14.5779Z" fill="#763D16" stroke="#763D16" stroke-width="0.190386"/>
<path d="M19.8123 24.0317L20.912 24.3594L23.2241 25.2745L19.8123 24.0317Z" fill="#E2761B" stroke="#E2761B" stroke-width="0.190386"/>
<path d="M27.1659 16.1484L27.729 14.5779L28.2126 14.9242L27.1659 16.1484ZM27.1659 16.1484L22.6014 14.7449L23.6879 14.2317L27.1659 16.1484Z" fill="#763D16" stroke="#763D16" stroke-width="0.190386"/>
<path d="M24.7744 9.41504L23.6879 14.2317L22.6014 14.7448L24.7744 9.41504Z" fill="#763D16" stroke="#763D16" stroke-width="0.190386"/>
<path d="M28.0867 12.5499L23.6878 14.2317L24.7742 9.41504L28.0867 12.5499Z" fill="#763D16" stroke="#763D16" stroke-width="0.190386"/>
<path d="M24.7742 9.41506L29.3652 8.92041L28.0866 12.5499L24.7742 9.41506Z" fill="#763D16" stroke="#763D16" stroke-width="0.190386"/>
<path d="M27.1659 16.1484L25.6356 17.1377L22.6014 14.7449L27.1659 16.1484Z" fill="#F6851B" stroke="#F6851B" stroke-width="0.190386"/>
<path d="M29.1664 5.45166L29.3652 8.92037L24.7742 9.41501L29.1664 5.45166Z" fill="#763D16" stroke="#763D16" stroke-width="0.190386"/>
<path d="M29.1665 5.45166L19.9911 11.678L19.8718 7.45498L29.1665 5.45166Z" fill="#E2761B" stroke="#E2761B" stroke-width="0.190386"/>
<path d="M13.0484 6.948L19.872 7.45501L19.9912 11.6781L13.0484 6.948Z" fill="#F6851B" stroke="#F6851B" stroke-width="0.190386"/>
<path d="M22.6013 14.7448L19.9911 11.678L24.7743 9.41504L22.6013 14.7448Z" fill="#763D16" stroke="#763D16" stroke-width="0.190386"/>
<path d="M22.6013 14.7449L25.6354 17.1377L21.3757 17.5767L22.6013 14.7449Z" fill="#E4761B" stroke="#E4761B" stroke-width="0.190386"/>
<path d="M21.3757 17.5766L19.9911 11.678L22.6013 14.7448L21.3757 17.5766Z" fill="#E4761B" stroke="#E4761B" stroke-width="0.190386"/>
<path d="M24.7743 9.41501L19.9911 11.678L29.1665 5.45166L24.7743 9.41501Z" fill="#763D16" stroke="#763D16" stroke-width="0.190386"/>
<path d="M13.1079 25.1757L15.2743 27.2842L12.3262 24.78L13.1079 25.1757Z" fill="#C0AD9E" stroke="#C0AD9E" stroke-width="0.190386"/>
<path d="M23.224 25.2747L24.2509 21.6329L26.2847 21.3608L23.224 25.2747Z" fill="#CD6116" stroke="#CD6116" stroke-width="0.190386"/>
<path d="M4.3233 15.0293L8.07296 11.3503L4.80692 14.5903L4.3233 15.0293Z" fill="#E2761B" stroke="#E2761B" stroke-width="0.190386"/>
<path d="M26.2848 21.3608L24.251 21.6328L25.6356 17.1377L26.2848 21.3608ZM19.9912 11.6781L16.3409 11.5668L13.0484 6.948L19.9912 11.6781Z" fill="#F6851B" stroke="#F6851B" stroke-width="0.190386"/>
<path d="M25.6355 17.1377L24.2509 21.6328L24.1383 19.4378L25.6355 17.1377Z" fill="#E4751F" stroke="#E4751F" stroke-width="0.190386"/>
<path d="M21.3757 17.5767L25.6354 17.1377L24.1382 19.4378L21.3757 17.5767Z" fill="#CD6116" stroke="#CD6116" stroke-width="0.190386"/>
<path d="M16.3408 11.5667L19.991 11.6779L21.3756 17.5766L16.3408 11.5667Z" fill="#F6851B" stroke="#F6851B" stroke-width="0.190386"/>
<path d="M16.3408 11.5668L6.48969 3.05884L13.0483 6.94799L16.3408 11.5668ZM13.0417 26.468L4.48237 28.9412L2.77316 22.8509L13.0417 26.468Z" fill="#E4761B" stroke="#E4761B" stroke-width="0.190386"/>
<path d="M5.59531 16.5502L8.82823 14.1821L11.5378 14.7695L5.59531 16.5502Z" fill="#763D16" stroke="#763D16" stroke-width="0.190386"/>
<path d="M11.5377 14.7697L8.82816 14.1823L10.279 8.59277L11.5377 14.7697Z" fill="#763D16" stroke="#763D16" stroke-width="0.190386"/>
<path d="M4.80682 14.5902L8.8281 14.1821L5.59518 16.5502L4.80682 14.5902Z" fill="#763D16" stroke="#763D16" stroke-width="0.190386"/>
<path d="M24.1382 19.4378L22.4688 18.6525L21.3757 17.5767L24.1382 19.4378Z" fill="#CD6116" stroke="#CD6116" stroke-width="0.190386"/>
<path d="M4.80705 14.5903L4.52219 13.1868L8.82833 14.1822L4.80705 14.5903Z" fill="#763D16" stroke="#763D16" stroke-width="0.190386"/>
<path d="M22.1244 20.4209L22.4689 18.6526L24.1383 19.4378L22.1244 20.4209Z" fill="#233447" stroke="#233447" stroke-width="0.190386"/>
<path d="M24.251 21.6327L22.1244 20.4209L24.1383 19.4377L24.251 21.6327Z" fill="#F6851B" stroke="#F6851B" stroke-width="0.190386"/>
<path d="M8.82822 14.1823L4.52208 13.1868L4.17096 12.0058L8.82822 14.1823ZM10.2791 8.59277L8.82822 14.1823L4.17096 12.0058L10.2791 8.59277ZM10.2791 8.59277L16.3408 11.5668L11.5378 14.7697L10.2791 8.59277Z" fill="#763D16" stroke="#763D16" stroke-width="0.190386"/>
<path d="M11.5377 14.7695L16.3407 11.5667L18.4805 17.6693L11.5377 14.7695ZM18.4805 17.6693L11.8425 17.5395L11.5377 14.7695L18.4805 17.6693Z" fill="#E4761B" stroke="#E4761B" stroke-width="0.190386"/>
<path d="M5.59531 16.5502L11.5378 14.7695L11.8425 17.5395L5.59531 16.5502ZM21.3757 17.5766L18.4806 17.6693L16.3408 11.5667L21.3757 17.5766Z" fill="#F6851B" stroke="#F6851B" stroke-width="0.190386"/>
<path d="M22.4688 18.6525L22.1243 20.4209L21.3757 17.5767L22.4688 18.6525Z" fill="#CD6116" stroke="#CD6116" stroke-width="0.190386"/>
<path d="M6.48984 3.05884L16.341 11.5667L10.2792 8.59269L6.48984 3.05884Z" fill="#763D16" stroke="#763D16" stroke-width="0.190386"/>
<path d="M2.77316 22.8508L11.0807 22.5293L13.0417 26.4679L2.77316 22.8508Z" fill="#E4761B" stroke="#E4761B" stroke-width="0.190386"/>
<path d="M13.0417 26.4679L11.0807 22.5292L15.1616 22.3438L13.0417 26.4679Z" fill="#CD6116" stroke="#CD6116" stroke-width="0.190386"/>
<path d="M22.1243 20.4209L24.2509 21.6328L25.4235 24.2111L22.1243 20.4209ZM11.8426 17.5396L2.77316 22.8508L5.59534 16.5503L11.8426 17.5396ZM11.0807 22.5293L2.77316 22.8508L11.8426 17.5396L11.0807 22.5293ZM21.3757 17.5767L21.9189 19.4192L19.2955 19.5615L21.3757 17.5767ZM19.2955 19.5615L18.4807 17.6694L21.3757 17.5767L19.2955 19.5615Z" fill="#F6851B" stroke="#F6851B" stroke-width="0.190386"/>
<path d="M15.2742 27.2842L13.0416 26.468L20.8059 27.6861L15.2742 27.2842Z" fill="#C0AD9E" stroke="#C0AD9E" stroke-width="0.190386"/>
<path d="M5.59527 16.5504L4.3233 15.0293L4.80692 14.5903L5.59527 16.5504Z" fill="#763D16" stroke="#763D16" stroke-width="0.190386"/>
<path d="M21.687 26.7834L20.8059 27.6861L13.0416 26.468L21.687 26.7834Z" fill="#D7C1B3" stroke="#D7C1B3" stroke-width="0.190386"/>
<path d="M22.1044 24.5697L13.0416 26.4679L15.1615 22.3438L22.1044 24.5697Z" fill="#E4761B" stroke="#E4761B" stroke-width="0.190386"/>
<path d="M13.0416 26.468L22.1044 24.5698L21.687 26.7834L13.0416 26.468Z" fill="#D7C1B3" stroke="#D7C1B3" stroke-width="0.190386"/>
<path d="M4.17092 12.0058L3.8728 7.25098L10.279 8.5927L4.17092 12.0058ZM4.8069 14.5903L3.9258 13.7556L4.52204 13.1867L4.8069 14.5903Z" fill="#763D16" stroke="#763D16" stroke-width="0.190386"/>
<path d="M16.9966 18.8937L18.4806 17.6694L18.2686 20.662L16.9966 18.8937Z" fill="#CD6116" stroke="#CD6116" stroke-width="0.190386"/>
<path d="M18.4805 17.6694L16.9966 18.8937L14.8369 19.9386L18.4805 17.6694Z" fill="#CD6116" stroke="#CD6116" stroke-width="0.190386"/>
<path d="M25.4236 24.2111L25.0194 23.9329L22.1244 20.4209L25.4236 24.2111Z" fill="#F6851B" stroke="#F6851B" stroke-width="0.190386"/>
<path d="M14.8371 19.9386L11.8427 17.5396L18.4808 17.6694L14.8371 19.9386Z" fill="#CD6116" stroke="#CD6116" stroke-width="0.190386"/>
<path d="M18.2686 20.662L18.4806 17.6694L19.2955 19.5615L18.2686 20.662Z" fill="#E4751F" stroke="#E4751F" stroke-width="0.190386"/>
<path d="M3.63443 12.4758L4.17104 12.0059L4.52216 13.1868L3.63443 12.4758Z" fill="#763D16" stroke="#763D16" stroke-width="0.190386"/>
<path d="M18.2685 20.6622L14.8369 19.9387L16.9966 18.8938L18.2685 20.6622Z" fill="#233447" stroke="#233447" stroke-width="0.190386"/>
<path d="M10.279 8.59269L3.8728 7.25096L6.48961 3.05884L10.279 8.59269Z" fill="#763D16" stroke="#763D16" stroke-width="0.190386"/>
<path d="M20.8059 27.6861L21.1702 28.6135L15.2741 27.2842L20.8059 27.6861Z" fill="#C0AD9E" stroke="#C0AD9E" stroke-width="0.190386"/>
<path d="M15.1615 22.3439L14.8369 19.9387L18.2685 20.6621L15.1615 22.3439Z" fill="#F6851B" stroke="#F6851B" stroke-width="0.190386"/>
<path d="M11.8427 17.5396L14.8371 19.9386L15.1617 22.3438L11.8427 17.5396Z" fill="#E4751F" stroke="#E4751F" stroke-width="0.190386"/>
<path d="M19.2955 19.5614L21.9189 19.4192L25.0194 23.9329L19.2955 19.5614ZM11.8426 17.5396L15.1616 22.3438L11.0807 22.5293L11.8426 17.5396Z" fill="#F6851B" stroke="#F6851B" stroke-width="0.190386"/>
<path d="M19.2955 19.5615L22.5549 24.1926L18.2686 20.6621L19.2955 19.5615Z" fill="#E4751F" stroke="#E4751F" stroke-width="0.190386"/>
<path d="M18.2686 20.6621L22.5549 24.1926L22.1044 24.5698L18.2686 20.6621Z" fill="#F6851B" stroke="#F6851B" stroke-width="0.190386"/>
<path d="M22.1044 24.5698L15.1616 22.3439L18.2686 20.6621L22.1044 24.5698ZM25.0193 23.933L22.5549 24.1926L19.2955 19.5615L25.0193 23.933Z" fill="#F6851B" stroke="#F6851B" stroke-width="0.190386"/>
<path d="M25.6687 26.1094L24.6088 28.0941L21.1705 28.6135L25.6687 26.1094ZM21.1705 28.6135L20.8061 27.6861L21.6872 26.7833L21.1705 28.6135Z" fill="#C0AD9E" stroke="#C0AD9E" stroke-width="0.190386"/>
<path d="M21.6871 26.7833L22.3363 26.5422L21.1703 28.6135L21.6871 26.7833ZM21.1703 28.6135L22.3363 26.5422L25.6686 26.1094L21.1703 28.6135Z" fill="#C0AD9E" stroke="#C0AD9E" stroke-width="0.190386"/>
<path d="M25.0194 23.9329L25.8343 24.3966L23.3566 24.6748L25.0194 23.9329Z" fill="#161616" stroke="#161616" stroke-width="0.190386"/>
<path d="M23.3565 24.6748L22.5549 24.1925L25.0193 23.9329L23.3565 24.6748ZM23.0716 25.0396L26.0859 24.6996L25.6685 26.1093L23.0716 25.0396Z" fill="#161616" stroke="#161616" stroke-width="0.190386"/>
<path d="M25.6687 26.1094L22.3364 26.5422L23.0717 25.0397L25.6687 26.1094ZM22.3364 26.5422L21.6871 26.7833L22.1045 24.5698L22.3364 26.5422ZM22.1045 24.5698L22.555 24.1926L23.3566 24.6749L22.1045 24.5698ZM25.8343 24.3967L26.086 24.6996L23.0717 25.0397L25.8343 24.3967Z" fill="#161616" stroke="#161616" stroke-width="0.190386"/>
<path d="M23.0716 25.0398L23.3564 24.675L25.8341 24.3967L23.0716 25.0398ZM22.1043 24.5699L23.0716 25.0398L22.3362 26.5423L22.1043 24.5699Z" fill="#161616" stroke="#161616" stroke-width="0.190386"/>
<path d="M23.3564 24.6749L23.0716 25.0397L22.1043 24.5698L23.3564 24.6749Z" fill="#161616" stroke="#161616" stroke-width="0.190386"/>
</svg>
