<svg width="77" height="77" viewBox="0 0 30 32" fill="none" xmlns="http://www.w3.org/2000/svg">
<path fill-rule="evenodd" clip-rule="evenodd" d="M15.7543 30.4634C11.522 30.6962 8.05602 29.867 5.57197 28.1691C3.05812 26.4508 1.63275 23.8928 1.46688 20.9178C1.30706 18.0512 2.4678 15.9131 3.83366 14.4354C4.90408 13.2773 6.11357 12.5065 6.96049 12.0546C6.73011 11.46 6.44063 10.6809 6.17551 9.87429C5.82078 8.79496 5.46103 7.52546 5.4085 6.5834C5.34634 5.46836 5.52612 4.33503 6.13072 3.42848C6.76949 2.47068 7.78085 1.92027 9.03055 1.85059C10.0073 1.79614 10.8567 2.11352 11.5409 2.7046C12.1948 3.26959 12.6522 4.04283 12.9837 4.85699C13.5661 6.28762 13.8633 8.10919 14.02 9.93483L15.2171 9.86809C15.1699 8.03634 15.2627 6.19302 15.6826 4.70652C15.9215 3.86056 16.29 3.04127 16.8772 2.40708C17.4914 1.74362 18.3002 1.33377 19.2769 1.27932C20.5267 1.20964 21.5929 1.64421 22.3343 2.52507C23.0359 3.3588 23.3406 4.46511 23.4027 5.58015C23.4553 6.52221 23.2387 7.82384 23.0062 8.93591C22.8324 9.76698 22.6313 10.5734 22.4685 11.19C23.3604 11.5449 24.6481 12.1765 25.8406 13.2084C27.3623 14.5251 28.7534 16.521 28.9132 19.3875C29.0791 22.3626 27.947 25.0631 25.6397 27.0502C23.3598 29.0137 20.0075 30.2231 15.7755 30.4622L15.7543 30.4634Z" fill="#633001"/>
<path d="M9.0896 2.91096C7.2592 3.01301 6.49382 4.4445 6.60057 6.35924C6.68543 7.88118 7.83436 10.8746 8.3022 12.0388C8.40742 12.3006 8.28177 12.601 8.02863 12.7189C6.59432 13.3872 2.38476 15.7758 2.65895 20.6937C2.94777 25.874 7.56509 29.5348 15.6785 29.0887C15.6818 29.0885 15.685 29.0882 15.6882 29.088C15.6914 29.0878 15.6947 29.0878 15.6979 29.0876C23.8106 28.629 27.9923 24.4777 27.7035 19.2974C27.4293 14.3795 22.9804 12.4736 21.4807 11.9689C21.216 11.8798 21.0578 11.5953 21.1332 11.3234C21.4688 10.1145 22.2778 7.01185 22.193 5.4899C22.0862 3.57516 21.1664 2.23762 19.336 2.33968C16.7012 2.48658 16.2554 6.30731 16.435 10.3712C16.447 10.6425 16.243 10.8745 15.9757 10.8894L13.3796 11.0342C13.1121 11.0491 12.8837 10.8412 12.8655 10.5702C12.5922 6.51155 11.7244 2.76406 9.0896 2.91096Z" fill="#D1884F"/>
<path d="M15.6054 27.4282C9.64429 27.7605 2.90332 24.891 2.65954 20.7036C2.65989 20.71 2.66024 20.7166 2.6606 20.7231C2.94966 25.9077 7.57409 29.57 15.6995 29.117C23.825 28.664 28.0136 24.5102 27.7246 19.3257C27.7242 19.3191 27.7238 19.3126 27.7235 19.3062C27.9467 23.4948 21.5664 27.0958 15.6054 27.4282Z" fill="#FEDC90"/>
<path d="M11.8077 18.9032C11.8865 20.3172 11.2685 21.0904 10.4555 21.1357C9.64247 21.181 8.94235 20.4814 8.86351 19.0674C8.78468 17.6534 9.40269 16.8802 10.2157 16.8349C11.0287 16.7896 11.7288 17.4892 11.8077 18.9032Z" fill="#633001"/>
<path d="M21.3761 18.3698C21.455 19.7838 20.837 20.5569 20.024 20.6022C19.2109 20.6476 18.5108 19.9479 18.432 18.5339C18.3532 17.1199 18.9712 16.3468 19.7842 16.3015C20.5972 16.2561 21.2973 16.9558 21.3761 18.3698Z" fill="#633001"/>
</svg>
