<svg width="89" height="88" viewBox="0 0 89 88" fill="none" xmlns="http://www.w3.org/2000/svg">
<g filter="url(#filter0_d_228_481)">
<g filter="url(#filter1_i_228_481)">
<path d="M76.125 37.625C76.125 52.4677 63.9527 64.5 48.9375 64.5C33.9223 64.5 21.75 52.4677 21.75 37.625C21.75 22.7823 33.9223 10.75 48.9375 10.75C63.9527 10.75 76.125 22.7823 76.125 37.625Z" fill="#FF4500"/>
</g>
<g filter="url(#filter2_bii_228_481)">
<path fill-rule="evenodd" clip-rule="evenodd" d="M38.0625 75.25C53.0777 75.25 65.25 63.2177 65.25 48.375C65.25 33.5323 53.0777 21.5 38.0625 21.5C23.0473 21.5 10.875 33.5323 10.875 48.375C10.875 63.2177 23.0473 75.25 38.0625 75.25ZM50.8001 44.7676C52.7828 44.7676 54.375 46.351 54.375 48.3229C54.375 49.7868 53.5038 51.0118 52.2721 51.5197C52.3322 51.8782 52.3622 52.2367 52.3622 52.5952C52.3622 58.0626 45.9634 62.4844 38.0625 62.4844C30.1616 62.4844 23.7628 58.0626 23.7628 52.5952C23.7628 52.2367 23.7928 51.8782 23.8529 51.5197C22.6212 50.9819 21.75 49.7271 21.75 48.293C21.75 46.3212 23.3422 44.7377 25.3249 44.7377C26.2863 44.7377 27.1574 45.1261 27.7883 45.7236C30.2818 43.931 33.6764 42.8256 37.4917 42.7061L39.2942 34.2212C39.3242 34.0718 39.4144 33.9224 39.5646 33.8328C39.7148 33.7431 39.895 33.7133 40.0452 33.7431L45.9934 34.9979C46.414 34.1614 47.2852 33.5938 48.2766 33.5938C49.6885 33.5938 50.8301 34.7291 50.8301 36.1333C50.8301 37.5375 49.6885 38.6728 48.2766 38.6728C46.8947 38.6728 45.7831 37.5972 45.7231 36.2528L40.4057 35.1175L38.7835 42.736C42.5387 42.8555 45.9033 43.9908 48.3367 45.7535C48.9675 45.156 49.8387 44.7676 50.8001 44.7676ZM32.4447 48.3229C31.0328 48.3229 29.8912 49.4582 29.8912 50.8624C29.8912 52.2666 31.0328 53.4019 32.4447 53.4019C33.8567 53.4019 34.9983 52.2666 34.9983 50.8624C34.9983 49.4582 33.8567 48.3229 32.4447 48.3229ZM38.0325 59.4071C39.0238 59.4071 42.3584 59.2876 44.1008 57.5547C44.3712 57.3157 44.3712 56.8975 44.0708 56.5987C43.8305 56.3298 43.4099 56.3298 43.1395 56.5987C42.028 57.7041 39.6547 58.0925 38.0024 58.0925C36.3501 58.0925 34.0069 57.734 32.8954 56.6286C32.655 56.3597 32.2345 56.3597 31.9641 56.6286C31.6937 56.8676 31.6937 57.2859 31.9641 57.5547C33.7065 59.2876 37.0411 59.4071 38.0325 59.4071ZM41.0967 50.8624C41.0967 52.2666 42.2383 53.4019 43.6502 53.4019C45.0621 53.4019 46.2037 52.2666 46.2037 50.8624C46.2037 49.4582 45.0621 48.3229 43.6502 48.3229C42.2383 48.3229 41.0967 49.4582 41.0967 50.8624Z" fill="white" fill-opacity="0.4"/>
</g>
</g>
<defs>
<filter id="filter0_d_228_481" x="6.875" y="6.75" width="81.25" height="80.5" filterUnits="userSpaceOnUse" color-interpolation-filters="sRGB">
<feFlood flood-opacity="0" result="BackgroundImageFix"/>
<feColorMatrix in="SourceAlpha" type="matrix" values="0 0 0 0 0 0 0 0 0 0 0 0 0 0 0 0 0 0 127 0" result="hardAlpha"/>
<feOffset dx="4" dy="4"/>
<feGaussianBlur stdDeviation="4"/>
<feColorMatrix type="matrix" values="0 0 0 0 1 0 0 0 0 0.270588 0 0 0 0 0 0 0 0 0.4 0"/>
<feBlend mode="normal" in2="BackgroundImageFix" result="effect1_dropShadow_228_481"/>
<feBlend mode="normal" in="SourceGraphic" in2="effect1_dropShadow_228_481" result="shape"/>
</filter>
<filter id="filter1_i_228_481" x="21.75" y="10.75" width="54.375" height="53.75" filterUnits="userSpaceOnUse" color-interpolation-filters="sRGB">
<feFlood flood-opacity="0" result="BackgroundImageFix"/>
<feBlend mode="normal" in="SourceGraphic" in2="BackgroundImageFix" result="shape"/>
<feColorMatrix in="SourceAlpha" type="matrix" values="0 0 0 0 0 0 0 0 0 0 0 0 0 0 0 0 0 0 127 0" result="hardAlpha"/>
<feOffset/>
<feGaussianBlur stdDeviation="4"/>
<feComposite in2="hardAlpha" operator="arithmetic" k2="-1" k3="1"/>
<feColorMatrix type="matrix" values="0 0 0 0 1 0 0 0 0 1 0 0 0 0 1 0 0 0 0.8 0"/>
<feBlend mode="normal" in2="shape" result="effect1_innerShadow_228_481"/>
</filter>
<filter id="filter2_bii_228_481" x="6.875" y="17.5" width="62.375" height="61.75" filterUnits="userSpaceOnUse" color-interpolation-filters="sRGB">
<feFlood flood-opacity="0" result="BackgroundImageFix"/>
<feGaussianBlur in="BackgroundImage" stdDeviation="2"/>
<feComposite in2="SourceAlpha" operator="in" result="effect1_backgroundBlur_228_481"/>
<feBlend mode="normal" in="SourceGraphic" in2="effect1_backgroundBlur_228_481" result="shape"/>
<feColorMatrix in="SourceAlpha" type="matrix" values="0 0 0 0 0 0 0 0 0 0 0 0 0 0 0 0 0 0 127 0" result="hardAlpha"/>
<feOffset/>
<feGaussianBlur stdDeviation="2"/>
<feComposite in2="hardAlpha" operator="arithmetic" k2="-1" k3="1"/>
<feColorMatrix type="matrix" values="0 0 0 0 1 0 0 0 0 1 0 0 0 0 1 0 0 0 1 0"/>
<feBlend mode="normal" in2="shape" result="effect2_innerShadow_228_481"/>
<feColorMatrix in="SourceAlpha" type="matrix" values="0 0 0 0 0 0 0 0 0 0 0 0 0 0 0 0 0 0 127 0" result="hardAlpha"/>
<feOffset dy="4"/>
<feGaussianBlur stdDeviation="4"/>
<feComposite in2="hardAlpha" operator="arithmetic" k2="-1" k3="1"/>
<feColorMatrix type="matrix" values="0 0 0 0 1 0 0 0 0 1 0 0 0 0 1 0 0 0 1 0"/>
<feBlend mode="normal" in2="effect2_innerShadow_228_481" result="effect3_innerShadow_228_481"/>
</filter>
</defs>
</svg>
