<svg width="86" height="139" viewBox="0 0 86 139" fill="none" xmlns="http://www.w3.org/2000/svg">
<path d="M79.0293 9.0544L76.7571 18.4217L72.699 24.3068L72.5562 30.3499L69.6328 36.5503L67.9123 42.7738L62.6438 48.622L61.2837 57.9868L58.2099 61.3994L54.0544 74.2594L47.8016 82.5801L41.4512 89.0515L40.489 93.6515L35.8524 102.724L40.7601 97.0787L46.2127 90.1921L44.4653 96.2468L39.3204 102.197L37.7732 107.686L24.7378 130.638L19.3271 138.351L30.2314 126.437L41.5798 107.346L47.615 102.009L51.4105 98.1905L50.9363 94.4025L56.2875 84.9244L59.9924 75.8977L66.7336 68.0131L68.4915 57.2348L71.8811 49.343L73.8573 44.4118L77.9308 40.6615L76.2398 36.8509L77.3665 31.6797L76.894 29.6169L78.4563 27.7188L76.9527 22.1272L79.4626 18.5568L80.6193 0.00706335L79.0293 9.0544Z" fill="url(#paint0_linear_1_1548)"/>
<path d="M79.776 8.3434L77.8849 18.7372L73.8265 24.6153L73.6839 30.6654L70.7604 36.8588L69.0399 43.0823L63.7716 48.9375L62.4115 58.3023L59.3377 61.715L55.182 74.5679L48.9292 82.8885L42.5787 89.36L41.6166 93.96L35.8524 102.724L41.8876 97.3872L46.179 90.6598L44.9016 96.3947L39.8432 102.603L38.7165 107.775L24.9861 131.082L19.3271 138.351L31.3592 126.753L42.7076 107.661L48.7498 102.325L52.538 98.4989L52.0639 94.7109L57.4151 85.2328L61.1199 76.2061L67.8614 68.3286L69.6193 57.5504L73.0089 49.6585L74.9848 44.7203L79.0586 40.977L77.3744 37.1591L78.4941 31.9882L78.0215 29.9253L79.5838 28.0273L78.0805 22.4427L80.5904 18.8723L80.6193 0.00706335L79.776 8.3434Z" fill="#FA5BAE"/>
<path opacity="0.3" d="M19.3342 138.35L31.3522 126.753L42.7076 107.661L48.7498 102.325L52.538 98.4989L52.0639 94.7109L57.4151 85.2328L61.1199 76.2061L67.8614 68.3286L69.6193 57.5504L73.0089 49.6585L74.9848 44.7203L79.0586 40.977L77.3744 37.1591L78.4941 31.9882L78.0215 29.9253L79.5838 28.0273L78.0876 22.4424L80.5904 18.8723L80.6191 2.54253e-06L79.776 8.34341L78.0933 17.5777L78.0163 18.0187L77.8847 18.7302L75.7075 21.8934L77.0908 27.0648L75.5286 28.9629L76.0011 31.0257L74.8744 36.1969L76.5656 40.0146L72.4848 43.7581L70.5159 48.6961L67.1263 56.5879L65.3684 67.3662L58.6269 75.2437L54.9221 84.2704L49.5709 93.7485L50.045 97.5365L46.2495 101.355L40.2143 106.692L28.866 125.783L27.1127 127.468L24.9861 131.082L19.3342 138.35Z" fill="url(#paint1_linear_1_1548)"/>
<path d="M48.1863 28.5337L46.7844 36.2384L43.778 40.6032L43.6676 45.0897L41.4961 49.681L40.2234 54.2985L36.3182 58.6371L35.3077 65.5791L33.0314 68.1093L29.9447 77.6455L25.3094 83.8187L20.6065 88.6155L19.8872 92.0265L18.5688 95.2881L19.4792 96.4947L18.5646 99.778L22.6821 95.8636L23.269 89.5722L22.3235 93.8252L18.5688 98.4345L17.7366 102.274L7.55738 119.551L4.11484 124.821L12.2783 116.337L20.696 102.181L25.1727 98.2261L27.9902 95.3877L27.6341 92.5857L31.6041 85.551L34.3553 78.8614L39.3481 73.0155L40.6556 65.0241L43.1663 59.17L44.6338 55.5075L47.6513 52.7331L46.4035 49.9045L47.236 46.0725L46.8875 44.5428L48.0419 43.1322L46.9266 38.9911L48.7888 36.3405L49.5676 22.3146L48.1863 28.5337Z" fill="white"/>
<path d="M48.9389 28.4164L47.537 36.1211L44.5303 40.4789L44.4199 44.9654L42.2484 49.5566L40.9758 54.1742L37.0705 58.5128L36.0603 65.4618L33.784 67.992L30.7044 77.5279L26.0618 83.6944L21.3589 88.4912L20.6398 91.9093L19.3212 95.1637L20.2317 96.3775L19.3169 99.6537L23.4347 95.7463L24.0287 89.4547L23.0761 93.7079L19.3214 98.3172L18.496 102.149L8.30997 119.433L4.11484 124.821L13.0309 116.22L21.4486 102.064L25.9253 98.1088L28.7428 95.2705L28.3865 92.4613L32.3567 85.4337L35.1077 78.7371L40.1078 72.898L41.4079 64.8998L43.926 59.0524L45.3864 55.3902L48.4037 52.6087L47.1559 49.7801L47.9883 45.9481L47.6398 44.4185L48.7945 43.0149L47.686 38.8665L49.5414 36.2232L49.5648 22.2298L48.9389 28.4164Z" fill="#FA5BAE"/>
<path opacity="0.3" d="M4.11484 124.821L13.0309 116.22L21.4486 102.064L25.9324 98.1086L28.7428 95.2705L28.3865 92.4613L32.3567 85.4337L35.1077 78.7371L40.1007 72.8982L41.4079 64.8998L43.9189 59.0527L45.3864 55.3902L48.411 52.6156L47.1561 49.7872L47.9883 45.9481L47.6398 44.4185L48.7943 43.0079L47.686 38.8665L49.5414 36.2232L49.5648 22.2298L48.9389 28.4164L47.6918 35.2603L47.6321 35.5876L47.5367 36.114L45.9191 38.4665L46.9462 42.2995L45.7915 43.703L46.14 45.2326L45.3078 49.0717L46.5556 51.9003L43.531 54.6749L42.0706 58.3372L39.5598 64.1914L38.2524 72.1828L33.2596 78.0287L30.5083 84.7182L26.5382 91.7458L26.8944 94.555L24.0768 97.3863L19.6003 101.348L11.1826 115.504L9.88819 116.75L8.30997 119.433L4.11484 124.821Z" fill="url(#paint2_linear_1_1548)"/>
<defs>
<linearGradient id="paint0_linear_1_1548" x1="49.9393" y1="95.03" x2="40.7898" y2="85.793" gradientUnits="userSpaceOnUse">
<stop stop-color="#2C2C2C"/>
<stop offset="1" stop-color="#171717"/>
</linearGradient>
<linearGradient id="paint1_linear_1_1548" x1="64.5988" y1="77.6724" x2="55.089" y2="72.1473" gradientUnits="userSpaceOnUse">
<stop stop-color="white"/>
<stop offset="0.0889" stop-color="white"/>
<stop offset="1" stop-color="#949494"/>
</linearGradient>
<linearGradient id="paint2_linear_1_1548" x1="37.6841" y1="79.8258" x2="30.6319" y2="75.7286" gradientUnits="userSpaceOnUse">
<stop stop-color="white"/>
<stop offset="0.0889" stop-color="white"/>
<stop offset="1" stop-color="#949494"/>
</linearGradient>
</defs>
</svg>
