<svg width="82" height="82" viewBox="0 0 82 82" fill="none" xmlns="http://www.w3.org/2000/svg">
<g filter="url(#filter0_d_592_64)">
<g filter="url(#filter1_i_592_64)">
<path d="M69.25 31.625C69.25 46.4677 57.2177 58.5 42.375 58.5C27.5323 58.5 15.5 46.4677 15.5 31.625C15.5 16.7823 27.5323 4.75 42.375 4.75C57.2177 4.75 69.25 16.7823 69.25 31.625Z" fill="url(#paint0_linear_592_64)"/>
</g>
<g filter="url(#filter2_bii_592_64)">
<path fill-rule="evenodd" clip-rule="evenodd" d="M31.625 69.25C46.4676 69.25 58.5 57.2177 58.5 42.375C58.5 27.5323 46.4676 15.5 31.625 15.5C16.7823 15.5 4.75 27.5323 4.75 42.375C4.75 57.2177 16.7823 69.25 31.625 69.25ZM23.0865 38.7919C20.2418 40.034 17.319 41.3101 14.6464 42.7823L14.6462 42.7824C13.2505 43.8043 15.1056 44.527 16.8459 45.2049C17.1225 45.3127 17.3962 45.4194 17.6536 45.5259C17.8677 45.5917 18.0854 45.6611 18.3061 45.7314C20.2415 46.348 22.3996 47.0357 24.2786 46.0013C27.3652 44.2283 30.278 42.1783 33.1887 40.13C34.1423 39.4589 35.0956 38.788 36.0548 38.127C36.0998 38.0982 36.1506 38.0653 36.206 38.0293C37.0233 37.4996 38.8605 36.3087 38.1809 37.95C36.5734 39.7078 34.8517 41.2639 33.1207 42.8285C31.9541 43.8829 30.7832 44.9411 29.6401 46.0676C28.6446 46.8765 27.6109 48.5031 28.7256 49.6358C31.2906 51.4315 33.8957 53.1836 36.4993 54.9348C37.3499 55.5069 38.2004 56.0789 39.0492 56.6522C40.4836 57.7974 42.7252 56.871 43.0406 55.0816C43.1807 54.2593 43.3213 53.4369 43.462 52.6146C44.2402 48.0645 45.0187 43.5129 45.7065 38.948C45.7999 38.2323 45.9058 37.5167 46.0117 36.8007C46.2687 35.0645 46.5259 33.3261 46.6062 31.5806C46.3991 29.8388 44.2874 30.2218 43.1121 30.6135C37.0713 32.9121 31.0909 35.381 25.1342 37.8936C24.4593 38.1926 23.7752 38.4913 23.0865 38.7919Z" fill="white" fill-opacity="0.4"/>
</g>
</g>
<defs>
<filter id="filter0_d_592_64" x="0.75" y="0.75" width="80.5" height="80.5" filterUnits="userSpaceOnUse" color-interpolation-filters="sRGB">
<feFlood flood-opacity="0" result="BackgroundImageFix"/>
<feColorMatrix in="SourceAlpha" type="matrix" values="0 0 0 0 0 0 0 0 0 0 0 0 0 0 0 0 0 0 127 0" result="hardAlpha"/>
<feOffset dx="4" dy="4"/>
<feGaussianBlur stdDeviation="4"/>
<feColorMatrix type="matrix" values="0 0 0 0 0.207843 0 0 0 0 0.67451 0 0 0 0 0.878431 0 0 0 0.4 0"/>
<feBlend mode="normal" in2="BackgroundImageFix" result="effect1_dropShadow_592_64"/>
<feBlend mode="normal" in="SourceGraphic" in2="effect1_dropShadow_592_64" result="shape"/>
</filter>
<filter id="filter1_i_592_64" x="15.5" y="4.75" width="53.75" height="53.75" filterUnits="userSpaceOnUse" color-interpolation-filters="sRGB">
<feFlood flood-opacity="0" result="BackgroundImageFix"/>
<feBlend mode="normal" in="SourceGraphic" in2="BackgroundImageFix" result="shape"/>
<feColorMatrix in="SourceAlpha" type="matrix" values="0 0 0 0 0 0 0 0 0 0 0 0 0 0 0 0 0 0 127 0" result="hardAlpha"/>
<feOffset/>
<feGaussianBlur stdDeviation="4"/>
<feComposite in2="hardAlpha" operator="arithmetic" k2="-1" k3="1"/>
<feColorMatrix type="matrix" values="0 0 0 0 1 0 0 0 0 1 0 0 0 0 1 0 0 0 0.8 0"/>
<feBlend mode="normal" in2="shape" result="effect1_innerShadow_592_64"/>
</filter>
<filter id="filter2_bii_592_64" x="0.75" y="11.5" width="61.75" height="61.75" filterUnits="userSpaceOnUse" color-interpolation-filters="sRGB">
<feFlood flood-opacity="0" result="BackgroundImageFix"/>
<feGaussianBlur in="BackgroundImage" stdDeviation="2"/>
<feComposite in2="SourceAlpha" operator="in" result="effect1_backgroundBlur_592_64"/>
<feBlend mode="normal" in="SourceGraphic" in2="effect1_backgroundBlur_592_64" result="shape"/>
<feColorMatrix in="SourceAlpha" type="matrix" values="0 0 0 0 0 0 0 0 0 0 0 0 0 0 0 0 0 0 127 0" result="hardAlpha"/>
<feOffset/>
<feGaussianBlur stdDeviation="2"/>
<feComposite in2="hardAlpha" operator="arithmetic" k2="-1" k3="1"/>
<feColorMatrix type="matrix" values="0 0 0 0 1 0 0 0 0 1 0 0 0 0 1 0 0 0 1 0"/>
<feBlend mode="normal" in2="shape" result="effect2_innerShadow_592_64"/>
<feColorMatrix in="SourceAlpha" type="matrix" values="0 0 0 0 0 0 0 0 0 0 0 0 0 0 0 0 0 0 127 0" result="hardAlpha"/>
<feOffset dy="4"/>
<feGaussianBlur stdDeviation="4"/>
<feComposite in2="hardAlpha" operator="arithmetic" k2="-1" k3="1"/>
<feColorMatrix type="matrix" values="0 0 0 0 1 0 0 0 0 1 0 0 0 0 1 0 0 0 1 0"/>
<feBlend mode="normal" in2="effect2_innerShadow_592_64" result="effect3_innerShadow_592_64"/>
</filter>
<linearGradient id="paint0_linear_592_64" x1="35.6594" y1="6.99137" x2="22.2219" y2="38.3437" gradientUnits="userSpaceOnUse">
<stop stop-color="#37AEE2"/>
<stop offset="1" stop-color="#1E96C8"/>
</linearGradient>
</defs>
</svg>
