<svg width="40" height="40" viewBox="0 0 40 40" fill="none" xmlns="http://www.w3.org/2000/svg">
<path d="M30.6067 9.39343C31.9996 10.7863 33.1045 12.4399 33.8583 14.2598C34.6121 16.0797 35.0001 18.0303 35.0001 20.0001C35.0001 21.9699 34.6121 23.9205 33.8583 25.7404C33.1045 27.5603 31.9996 29.2139 30.6067 30.6068C29.2138 31.9996 27.5602 33.1045 25.7403 33.8584C23.9204 34.6122 21.9698 35.0002 20 35.0002C18.0302 35.0002 16.0796 34.6122 14.2597 33.8584C12.4398 33.1045 10.7862 31.9996 9.39333 30.6068C6.58027 27.7937 4.99991 23.9784 4.99991 20.0001C4.99991 16.0218 6.58027 12.2065 9.39333 9.39343C12.2064 6.58036 16.0217 5 20 5C23.9783 5 27.7936 6.58036 30.6067 9.39343" stroke="white" stroke-width="1.5" stroke-linecap="round" stroke-linejoin="round"/>
<path d="M28.845 32.0951C28.205 29.0284 24.5083 26.6667 20 26.6667C15.4917 26.6667 11.795 29.0284 11.155 32.0951" stroke="white" stroke-width="1.5" stroke-linecap="round" stroke-linejoin="round"/>
<path d="M23.535 13.1318C24.0205 13.591 24.4091 14.1429 24.6776 14.7549C24.9462 15.3669 25.0894 16.0265 25.0987 16.6947C25.108 17.363 24.9832 18.0263 24.7317 18.6455C24.4803 19.2647 24.1073 19.8272 23.6347 20.2998C23.1621 20.7724 22.5996 21.1454 21.9804 21.3969C21.3612 21.6483 20.6979 21.7731 20.0296 21.7638C19.3614 21.7545 18.7018 21.6113 18.0898 21.3427C17.4778 21.0742 16.9259 20.6856 16.4667 20.2001C15.5835 19.2523 15.1026 17.9986 15.1255 16.7033C15.1484 15.408 15.6731 14.1721 16.5892 13.256C17.5053 12.3399 18.7412 11.8151 20.0365 11.7923C21.3319 11.7694 22.5855 12.2502 23.5333 13.1334" stroke="white" stroke-width="1.5" stroke-linecap="round" stroke-linejoin="round"/>
</svg>
