<svg width="32" height="32" viewBox="0 0 32 32" fill="none" xmlns="http://www.w3.org/2000/svg">
<path d="M26.6067 5.39343C27.9996 6.78631 29.1045 8.43991 29.8583 10.2598C30.6121 12.0797 31.0001 14.0303 31.0001 16.0001C31.0001 17.9699 30.6121 19.9205 29.8583 21.7404C29.1045 23.5603 27.9996 25.2139 26.6067 26.6068C25.2138 27.9996 23.5602 29.1045 21.7403 29.8584C19.9204 30.6122 17.9698 31.0002 16 31.0002C14.0302 31.0002 12.0796 30.6122 10.2597 29.8584C8.43982 29.1045 6.78622 27.9996 5.39333 26.6068C2.58027 23.7937 0.999908 19.9784 0.999908 16.0001C0.999908 12.0218 2.58027 8.20649 5.39333 5.39343C8.2064 2.58036 12.0217 1 16 1C19.9783 1 23.7936 2.58036 26.6067 5.39343" stroke="white" stroke-width="1.5" stroke-linecap="round" stroke-linejoin="round"/>
</svg>
